<?xml version="1.0" encoding="utf-8"?>
<!-- Generator: Adobe Illustrator 27.7.0, SVG Export Plug-In . SVG Version: 6.00 Build 0)  -->
<svg version="1.1" id="Layer_1" xmlns="http://www.w3.org/2000/svg" xmlns:xlink="http://www.w3.org/1999/xlink" x="0px" y="0px"
	 viewBox="0 0 375 375" style="enable-background:new 0 0 375 375;" xml:space="preserve">
<style type="text/css">
	.st0{fill:none;stroke:#8DA3C4;stroke-width:0;stroke-miterlimit:10;}
	.st1{fill:none;stroke:#90B6C6;stroke-width:0;stroke-miterlimit:10;}
	.st2{fill:none;stroke:#1D5A8B;stroke-width:0;stroke-miterlimit:10;}
	.st3{fill:#206D8C;}
	.st4{fill:#1A4789;}
	.st5{fill:#FFFFFF;}
</style>
<g>
	<path class="st0" d="M112.37,151.3c0.3,2.77,0.22,4.93-0.22,6.45"/>
	<path class="st1" d="M112.15,157.75c-8.08,3.97-15.82,8.07-23.2,12.31c-18.1,10.39-36.66,20.07-54.98,30.1
		c-5.05,2.77-15.31,8.11-15.48,14.08c-0.01,0.25,0.07,0.46,0.22,0.64c3.1,3.64,5.52,7.48,11.14,5.4c4.09-1.51,8.05-3.33,11.89-5.45
		c23.38-12.94,46.92-25.76,70.63-38.46"/>
	<path class="st0" d="M112.37,176.36c0.2,4.99,0.18,9.91-0.07,14.77c-0.01,0.28-0.16,0.4-0.43,0.4"/>
	<path class="st1" d="M111.87,191.53c-19.63,11.19-39.2,22.49-58.7,33.9c-5.79,3.39-7.66,5.91-11.12,11.8
		c-0.12,0.21-0.14,0.43-0.07,0.66c1.72,5.18,6.12,6.55,11.07,6.97c0.7,0.06,1.07,0.85,0.68,1.42c-1.56,2.3-3.66,5.64-4.13,8.42
		c-0.47,2.8,1.25,6.88,1.97,9.67c0.05,0.22-0.07,0.46-0.28,0.54c-4.67,1.78-6.37,7.75-9.07,11.6c-0.14,0.2-0.16,0.41-0.03,0.63
		c2.81,4.82,6.08,8.32,12.25,6.82c3.34-0.82,6.87-2.27,10.58-4.37c16.82-9.5,33.52-19.3,50.11-29.41"/>
	<line class="st0" x1="115.12" y1="250.19" x2="118.2" y2="254.81"/>
	<path class="st1" d="M118.2,254.81c-15.32,8.74-30.36,17.84-45.13,27.3c-5.13,3.28-10.2,6.79-13.9,10.52
		c-1.62,1.63-1.99,4.69-1.2,6.92c4.9,13.95,22.46,0.84,29.25-3.25c0.19-0.12,0.43-0.14,0.64-0.06c2.36,0.88,4.36,2.23,5.98,4.06
		c2.03,2.27,4.05,3.83,6.85,3.49c5.85-0.7,11.77-2.95,17.76-6.75c18.74-11.89,38.1-23.33,58.07-34.33"/>
	<line class="st0" x1="176.53" y1="262.72" x2="193.77" y2="262.63"/>
	<path class="st1" d="M193.77,262.63l-25.22,16.01c-0.2,0.13-0.35,0.31-0.44,0.52l-3.35,8.25c-0.08,0.2-0.03,0.43,0.13,0.59
		c1.84,1.74,3.01,4.27,4.69,5.56c8.7,6.65,24.97-3.6,33.61-7.31c0.31-0.13,0.61,0.19,0.46,0.49c-2.2,4.35-4.03,8.84-5.51,13.48
		c-0.07,0.22-0.07,0.47,0.02,0.7c6.91,18.01,27.51,3.34,38.87-0.6c0.4-0.13,0.77,0.28,0.59,0.66c-3.04,6.41-3.05,8.65,2.99,12.99
		c0.2,0.14,0.42,0.2,0.66,0.18c7.43-0.58,14.04-2.69,19.82-6.34c22.14-13.98,45.91-30.09,71.28-48.32c4.16-2.99,6.1-7.18,5.81-12.56
		c-0.01-0.28-0.11-0.52-0.29-0.72l-8.04-9.1c-0.16-0.19-0.36-0.27-0.61-0.26c-4.72,0.23-9.29,1.17-13.72,2.8
		c-0.55,0.19-1.39,0.23-2.53,0.11c-0.29-0.04-0.37-0.18-0.22-0.43c1.55-2.83,5.17-9.56,3.06-12.55c-2.96-4.19-6.36-7.82-10.2-10.89
		c-0.35-0.28-0.34-0.55,0.04-0.79c12.64-8.1,25.99-15.49,36.57-26.37c8.49-8.73-1.5-15.7-7.42-21.13c-0.17-0.16-0.19-0.41-0.04-0.59
		c0.84-1.07,1.7-2.26,2.92-2.95c9.61-5.47,17.43-10.18,23.44-14.14c7.88-5.19-0.19-14.79-4.06-19.45c-0.17-0.2-0.2-0.42-0.09-0.67
		c1.42-3.13,2.59-6.08,1.23-8.96c-0.89-1.9-2.77-5.47-5.62-10.72c-0.13-0.23-0.08-0.43,0.13-0.58c4.02-2.86,8.02-5.75,12-8.67
		c6.23-4.55,9.49-8.26,9.7-15.73c0.01-0.25-0.07-0.5-0.22-0.7l-4.15-5.59c-0.14-0.19-0.33-0.29-0.56-0.31
		c-5.44-0.51-10.19-0.4-15.61,1.43c-9.04,3.05-19.78,6.78-32.22,11.17c-1.44,0.5-2.86,0.34-4.28-0.48c-0.2-0.11-0.26-0.36-0.16-0.55
		c3.98-7.26,2.77-18.72-6.39-20.84c-4.21-0.97-10.86,0.58-15.83,1.06c-0.23,0.02-0.46-0.07-0.62-0.24c-7.6-8.44-12.79-9.12-23.6-6
		c-14.98,4.33-28.41,8.52-40.31,12.56c-2.63,0.89-4.69,1.24-7.13-0.34c-3.53-2.3-4.8-2.98-9.17-1.76
		c-10.55,2.95-21.06,6.01-31.55,9.18c-0.95,0.28-2.08,0.37-3.4,0.25c-0.43-0.04-0.46-0.17-0.09-0.39
		c4.36-2.62,11.09-6.67,4.65-12.28c-1.43-1.25-3.01-1.86-4.72-1.84c-11.26,0.18-20.29,4.36-31.09,10.43
		c-37.35,20.97-74.62,42.11-111.8,63.4c-6.13,3.5-14.05,7.56-23.76,12.16c-5.41,2.56-8.4,4.7-10.93,9.7
		c-2.17,4.28,4.16,8.56,7.34,9.33c5.47,1.31,11.29-1.75,16.52-4.33c13.42-6.65,26.84-13.32,40.25-19.99
		c4.45-2.22,9.2-4.21,14.23-5.98c0.59-0.21,1.05,0.55,0.58,0.97c-1.73,1.6-3.75,3.12-6.07,4.57c-14.17,8.88-28.38,17.67-42.65,26.37
		c-2.23,1.36-4.54,3.08-6.91,5.15c-3.75,3.27-7.46,5.85-3.58,10.44c7.14,8.44,13.59,3.8,21.98-1.27
		c22.63-13.69,45.7-26.72,69.19-39.09"/>
	<path class="st2" d="M193.77,262.63c13.35-0.12,26.89-0.16,40.62-0.12c5.13,0.02,8.92-0.32,11.35-1.01
		c10.39-2.96,16.72-11.98,16.72-22.98c0.01-32.39,0.01-64.77-0.01-97.15c-0.01-6.06-0.39-10.33-1.15-12.82
		c-2.09-6.8-6.82-11.76-14.18-14.88"/>
	<path class="st1" d="M247.13,113.67l2.83-3.31c0.29-0.34,0.21-0.51-0.23-0.5c-3.12,0.01-6.13,0.86-9.02,2.58"/>
	<line class="st2" x1="240.7" y1="112.44" x2="199.27" y2="112.28"/>
	<path class="st1" d="M199.27,112.28c5.96-3.51,11.65-6.69,17.04-9.53c0.89-0.47,1.34-1.18,1.36-2.14c0-0.28-0.28-0.46-0.53-0.35
		l-28.08,12.13"/>
	<path class="st2" d="M189.06,112.38c-16.14,0.16-32.47,0.22-49.01,0.19c-5.51-0.01-9.45,0.35-11.8,1.08
		c-8.75,2.72-16.03,12.07-15.83,21c0.13,5.57,0.11,11.12-0.06,16.65"/>
	<line class="st0" x1="199.27" y1="112.28" x2="189.06" y2="112.38"/>
	<line class="st0" x1="247.13" y1="113.67" x2="240.7" y2="112.44"/>
	<path class="st2" d="M176.53,262.72c-12.1-0.18-24.03-0.27-35.82-0.26c-9.85,0.01-16.18-0.85-22.51-7.64"/>
	<path class="st2" d="M115.12,250.19c-1.75-3.44-2.62-6.83-2.62-10.17c-0.01-15.85-0.01-31.7-0.01-47.54c0-0.25-0.09-0.45-0.27-0.62
		l-0.34-0.32"/>
	<path class="st2" d="M112.37,176.36c0.29-6.05,0.22-12.25-0.22-18.61"/>
	<path class="st0" d="M195.73,180.02c0-4.61-0.82-13.16,0.84-16.7c2.6-5.53,12.7-4.16,17.89-4.09c0.26,0.01,0.4-0.13,0.4-0.39v-16.1
		c0-0.23-0.11-0.36-0.34-0.39c-8.14-1.06-18.7-1.66-25.86,1.77c-14.02,6.7-12.82,22.52-12.34,35.64c0.01,0.35-0.27,0.64-0.62,0.64
		h-15.21c-0.23,0-0.34,0.11-0.34,0.34l-0.07,18c0,0.22,0.18,0.4,0.4,0.4h15.4c0.25,0,0.37,0.13,0.37,0.37v47.24
		c0,0.37,0.19,0.56,0.56,0.56h18.56c0.21,0,0.37-0.16,0.37-0.37v-47.43c0-0.25,0.13-0.37,0.37-0.37h15.41
		c0.25,0,0.38-0.12,0.41-0.36l2.34-18.01c0.03-0.25-0.08-0.38-0.34-0.38h-17.82C195.85,180.4,195.73,180.27,195.73,180.02"/>
</g>
<path class="st3" d="M193.77,262.63c13.35-0.12,26.89-0.16,40.62-0.12c5.13,0.02,8.92-0.32,11.35-1.01
	c10.39-2.96,16.72-11.98,16.72-22.98c0.01-32.39,0.01-64.77-0.01-97.15c-0.01-6.06-0.39-10.33-1.15-12.82
	c-2.09-6.8-6.82-11.76-14.18-14.88l2.83-3.31c0.29-0.34,0.21-0.51-0.23-0.5c-3.12,0.01-6.13,0.86-9.02,2.58l-41.43-0.16
	c5.96-3.51,11.65-6.69,17.04-9.53c0.89-0.47,1.34-1.18,1.36-2.14c0-0.28-0.28-0.46-0.53-0.35l-28.08,12.13
	c-16.14,0.16-32.47,0.22-49.01,0.19c-5.51-0.01-9.45,0.35-11.8,1.08c-8.75,2.72-16.03,12.07-15.83,21
	c0.13,5.57,0.11,11.12-0.06,16.65c-23.49,12.37-46.56,25.41-69.19,39.09c-8.39,5.08-14.84,9.72-21.98,1.27
	c-3.88-4.59-0.17-7.17,3.58-10.44c2.37-2.07,4.67-3.79,6.91-5.15c14.27-8.71,28.48-17.5,42.65-26.37c2.32-1.45,4.33-2.97,6.07-4.57
	c0.46-0.43,0.01-1.18-0.58-0.97c-5.03,1.76-9.78,3.76-14.23,5.98c-13.41,6.67-26.82,13.34-40.25,19.99
	c-5.23,2.59-11.05,5.65-16.52,4.33c-3.18-0.76-9.51-5.05-7.34-9.33c2.53-5,5.51-7.14,10.93-9.7c9.72-4.6,17.64-8.66,23.76-12.16
	c37.18-21.29,74.45-42.42,111.8-63.4c10.81-6.07,19.84-10.25,31.09-10.43c1.72-0.02,3.29,0.58,4.72,1.84
	c6.44,5.61-0.28,9.67-4.65,12.28c-0.37,0.22-0.34,0.35,0.09,0.39c1.32,0.12,2.45,0.04,3.4-0.25c10.48-3.16,21-6.22,31.55-9.18
	c4.37-1.22,5.64-0.54,9.17,1.76c2.44,1.58,4.5,1.23,7.13,0.34c11.89-4.04,25.33-8.23,40.31-12.56c10.81-3.12,16-2.44,23.6,6
	c0.16,0.17,0.39,0.26,0.62,0.24c4.97-0.48,11.62-2.03,15.83-1.06c9.16,2.12,10.37,13.58,6.39,20.84c-0.1,0.19-0.04,0.44,0.16,0.55
	c1.42,0.82,2.84,0.98,4.28,0.48c12.44-4.39,23.18-8.11,32.22-11.17c5.42-1.83,10.17-1.94,15.61-1.43c0.23,0.02,0.42,0.13,0.56,0.31
	l4.15,5.59c0.15,0.2,0.23,0.45,0.22,0.7c-0.22,7.48-3.47,11.18-9.7,15.73c-3.98,2.92-7.98,5.8-12,8.67
	c-0.22,0.16-0.26,0.35-0.13,0.58c2.85,5.24,4.72,8.82,5.62,10.72c1.36,2.88,0.19,5.83-1.23,8.96c-0.11,0.25-0.08,0.46,0.09,0.67
	c3.88,4.66,11.95,14.26,4.06,19.45c-6.01,3.96-13.83,8.67-23.44,14.14c-1.22,0.69-2.08,1.87-2.92,2.95
	c-0.14,0.18-0.13,0.43,0.04,0.59c5.92,5.44,15.91,12.4,7.42,21.13c-10.57,10.88-23.93,18.27-36.57,26.37
	c-0.38,0.25-0.39,0.51-0.04,0.79c3.84,3.07,7.24,6.7,10.2,10.89c2.11,2.98-1.51,9.72-3.06,12.55c-0.14,0.25-0.07,0.4,0.22,0.43
	c1.14,0.13,1.98,0.09,2.53-0.11c4.43-1.63,9.01-2.56,13.72-2.8c0.25-0.01,0.45,0.07,0.61,0.26l8.04,9.1
	c0.18,0.2,0.28,0.44,0.29,0.72c0.28,5.38-1.65,9.57-5.81,12.56c-25.37,18.24-49.13,34.35-71.28,48.32
	c-5.78,3.65-12.39,5.77-19.82,6.34c-0.24,0.02-0.46-0.04-0.66-0.18c-6.04-4.34-6.03-6.58-2.99-12.99c0.18-0.38-0.19-0.79-0.59-0.66
	c-11.35,3.94-31.96,18.61-38.87,0.6c-0.09-0.22-0.1-0.47-0.02-0.7c1.48-4.64,3.31-9.13,5.51-13.48c0.15-0.3-0.15-0.63-0.46-0.49
	c-8.64,3.71-24.91,13.96-33.61,7.31c-1.68-1.29-2.85-3.82-4.69-5.56c-0.16-0.16-0.22-0.39-0.13-0.59l3.35-8.25
	c0.09-0.22,0.24-0.4,0.44-0.52L193.77,262.63z"/>
<path class="st4" d="M195.73,180.02c0-4.61-0.82-13.16,0.84-16.7c2.6-5.53,12.7-4.16,17.89-4.09c0.26,0.01,0.4-0.13,0.4-0.39v-16.1
	c0-0.23-0.11-0.36-0.34-0.39c-8.14-1.06-18.7-1.66-25.86,1.77c-14.02,6.7-12.82,22.52-12.34,35.64c0.01,0.35-0.27,0.64-0.62,0.64
	h-15.21c-0.23,0-0.34,0.11-0.34,0.34l-0.07,18c0,0.22,0.18,0.4,0.4,0.4h15.4c0.25,0,0.37,0.13,0.37,0.37v47.24
	c0,0.37,0.19,0.56,0.56,0.56h18.56c0.21,0,0.37-0.16,0.37-0.37v-47.43c0-0.25,0.13-0.37,0.37-0.37h15.41c0.25,0,0.38-0.12,0.41-0.36
	l2.34-18.01c0.03-0.25-0.08-0.38-0.34-0.38h-17.82C195.85,180.4,195.73,180.27,195.73,180.02z M199.27,112.28l41.43,0.16l6.43,1.23
	c7.36,3.12,12.09,8.08,14.18,14.88c0.76,2.49,1.15,6.76,1.15,12.82c0.02,32.38,0.02,64.76,0.01,97.15
	c-0.01,11-6.33,20.02-16.72,22.98c-2.44,0.69-6.22,1.03-11.35,1.01c-13.73-0.04-27.27,0-40.62,0.12l-17.24,0.09
	c-12.1-0.18-24.03-0.27-35.82-0.26c-9.85,0.01-16.18-0.85-22.51-7.64l-3.08-4.63c-1.75-3.44-2.62-6.83-2.62-10.17
	c-0.01-15.85-0.01-31.7-0.01-47.54c0-0.25-0.09-0.45-0.27-0.62l-0.34-0.32c0.28,0.01,0.42-0.12,0.43-0.4
	c0.25-4.87,0.27-9.79,0.07-14.77c0.29-6.05,0.22-12.25-0.22-18.61c0.44-1.52,0.52-3.67,0.22-6.45c0.17-5.53,0.19-11.08,0.06-16.65
	c-0.19-8.93,7.08-18.28,15.83-21c2.35-0.73,6.28-1.09,11.8-1.08c16.54,0.03,32.87-0.03,49.01-0.19L199.27,112.28"/>
<path class="st5" d="M196.11,180.4h17.82c0.25,0,0.37,0.13,0.34,0.38l-2.34,18.01c-0.03,0.24-0.16,0.36-0.41,0.36H196.1
	c-0.25,0-0.37,0.13-0.37,0.37v47.43c0,0.21-0.16,0.37-0.37,0.37h-18.56c-0.37,0-0.56-0.19-0.56-0.56v-47.24
	c0-0.25-0.13-0.37-0.37-0.37h-15.4c-0.22,0-0.4-0.18-0.4-0.4l0.07-18c0-0.23,0.11-0.34,0.34-0.34h15.21c0.35,0,0.64-0.29,0.62-0.64
	c-0.47-13.12-1.68-28.93,12.34-35.64c7.17-3.43,17.73-2.83,25.86-1.77c0.23,0.03,0.34,0.16,0.34,0.39v16.1c0,0.26-0.13,0.4-0.4,0.39
	c-5.19-0.07-15.28-1.45-17.89,4.09c-1.66,3.54-0.84,12.09-0.84,16.7C195.73,180.27,195.85,180.4,196.11,180.4z"/>
<path class="st3" d="M112.15,157.75c0.44,6.36,0.52,12.56,0.22,18.61c-23.7,12.7-47.24,25.53-70.63,38.46
	c-3.83,2.12-7.79,3.94-11.89,5.45c-5.62,2.08-8.04-1.76-11.14-5.4c-0.16-0.19-0.23-0.4-0.22-0.64c0.17-5.97,10.42-11.3,15.48-14.08
	c18.31-10.03,36.87-19.71,54.98-30.1C96.33,165.81,104.07,161.71,112.15,157.75z"/>
<path class="st3" d="M111.87,191.53l0.34,0.32c0.18,0.17,0.27,0.37,0.27,0.62c0,15.85,0,31.7,0.01,47.54
	c0,3.34,0.88,6.73,2.62,10.17C98.53,260.3,81.83,270.1,65.01,279.6c-3.71,2.1-7.24,3.55-10.58,4.37c-6.16,1.5-9.43-2-12.25-6.82
	c-0.13-0.22-0.11-0.43,0.03-0.63c2.71-3.85,4.4-9.82,9.07-11.6c0.22-0.08,0.34-0.31,0.28-0.54c-0.72-2.8-2.44-6.88-1.97-9.67
	c0.47-2.78,2.57-6.12,4.13-8.42c0.39-0.58,0.01-1.36-0.68-1.42c-4.95-0.42-9.35-1.78-11.07-6.97c-0.07-0.23-0.05-0.45,0.07-0.66
	c3.46-5.89,5.33-8.41,11.12-11.8C72.67,214.02,92.25,202.72,111.87,191.53z"/>
<path class="st3" d="M118.2,254.81c6.33,6.79,12.66,7.65,22.51,7.64c11.78-0.01,23.72,0.08,35.82,0.26
	c-19.97,11-39.33,22.44-58.07,34.33c-5.99,3.8-11.91,6.05-17.76,6.75c-2.8,0.34-4.81-1.22-6.85-3.49c-1.63-1.82-3.62-3.18-5.98-4.06
	c-0.21-0.08-0.45-0.06-0.64,0.06c-6.79,4.09-24.35,17.2-29.25,3.25c-0.79-2.23-0.42-5.29,1.2-6.92c3.7-3.73,8.77-7.24,13.9-10.52
	C87.84,272.65,102.88,263.56,118.2,254.81z"/>
</svg>
