<?xml version="1.0" encoding="utf-8"?>
<!-- Generator: Adobe Illustrator 27.7.0, SVG Export Plug-In . SVG Version: 6.00 Build 0)  -->
<svg version="1.1" id="Layer_1" xmlns="http://www.w3.org/2000/svg" xmlns:xlink="http://www.w3.org/1999/xlink" x="0px" y="0px"
	 viewBox="0 0 375 375" style="enable-background:new 0 0 375 375;" xml:space="preserve">
<style type="text/css">
	.st0{fill:none;stroke:#BF9DD7;stroke-width:0;stroke-miterlimit:10;}
	.st1{fill:none;stroke:#90B6C6;stroke-width:0;stroke-miterlimit:10;}
	.st2{fill:none;stroke:#D29AD8;stroke-width:0;stroke-miterlimit:10;}
	.st3{fill:none;stroke:#DD98CD;stroke-width:0;stroke-miterlimit:10;}
	.st4{fill:none;stroke:#ED97BD;stroke-width:0;stroke-miterlimit:10;}
	.st5{fill:none;stroke:#FDD3A1;stroke-width:0;stroke-miterlimit:10;}
	.st6{fill:none;stroke:#FEDDAB;stroke-width:0;stroke-miterlimit:10;}
	.st7{fill:none;stroke:#FFE9BA;stroke-width:0;stroke-miterlimit:10;}
	.st8{fill:none;stroke:#8FA080;stroke-width:0;stroke-miterlimit:10;}
	.st9{fill:none;stroke:#8F9472;stroke-width:0;stroke-miterlimit:10;}
	.st10{fill:none;stroke:#8E8A67;stroke-width:0;stroke-miterlimit:10;}
	.st11{fill:none;stroke:#8D7A5D;stroke-width:0;stroke-miterlimit:10;}
	.st12{fill:none;stroke:#866768;stroke-width:0;stroke-miterlimit:10;}
	.st13{fill:none;stroke:#855C6F;stroke-width:0;stroke-miterlimit:10;}
	.st14{fill:none;stroke:#815278;stroke-width:0;stroke-miterlimit:10;}
	.st15{fill:none;stroke:#7D4E84;stroke-width:0;stroke-miterlimit:10;}
	.st16{fill:none;stroke:#6E4F93;stroke-width:0;stroke-miterlimit:10;}
	.st17{fill:none;stroke:#62519F;stroke-width:0;stroke-miterlimit:10;}
	.st18{fill:none;stroke:#4F549E;stroke-width:0;stroke-miterlimit:10;}
	.st19{fill:none;stroke:#435EA8;stroke-width:0;stroke-miterlimit:10;}
	.st20{fill:none;stroke:#3867AE;stroke-width:0;stroke-miterlimit:10;}
	.st21{fill:none;stroke:#DE3370;stroke-width:0;stroke-miterlimit:10;}
	.st22{fill:none;stroke:#FCB14D;stroke-width:0;stroke-miterlimit:10;}
	.st23{fill:none;stroke:#FEC766;stroke-width:0;stroke-miterlimit:10;}
	.st24{fill:none;stroke:#FB9738;stroke-width:0;stroke-miterlimit:10;}
	.st25{fill:none;stroke:#EB554B;stroke-width:0;stroke-miterlimit:10;}
	.st26{fill:none;stroke:#B033A6;stroke-width:0;stroke-miterlimit:10;}
	.st27{fill:none;stroke:#CB2F8B;stroke-width:0;stroke-miterlimit:10;}
	.st28{fill:none;stroke:#9138B0;stroke-width:0;stroke-miterlimit:10;}
	.st29{fill:none;stroke:#F37339;stroke-width:0;stroke-miterlimit:10;}
	.st30{fill:none;stroke:#7245B9;stroke-width:0;stroke-miterlimit:10;}
	.st31{fill:none;stroke:#5B57CA;stroke-width:0;stroke-miterlimit:10;}
	.st32{fill:none;stroke:#E6415B;stroke-width:0;stroke-miterlimit:10;}
	.st33{fill:none;stroke:#B3A7E1;stroke-width:0;stroke-miterlimit:10;}
	.st34{fill:none;stroke:#F09BB2;stroke-width:0;stroke-miterlimit:10;}
	.st35{fill:none;stroke:#F5A5A9;stroke-width:0;stroke-miterlimit:10;}
	.st36{fill:none;stroke:#F6B0A1;stroke-width:0;stroke-miterlimit:10;}
	.st37{fill:none;stroke:#FDC397;stroke-width:0;stroke-miterlimit:10;}
	.st38{fill:none;stroke:#FBB898;stroke-width:0;stroke-miterlimit:10;}
	.st39{fill:none;stroke:#E23C67;stroke-width:0;stroke-miterlimit:10;}
	.st40{fill:none;stroke:#F1693A;stroke-width:0;stroke-miterlimit:10;}
	.st41{fill:none;stroke:#F87C2F;stroke-width:0;stroke-miterlimit:10;}
	.st42{fill:#206D8C;}
	.st43{fill:#664EC3;}
	.st44{fill:#5060D0;}
	.st45{fill:#7E3BAF;}
	.st46{fill:#A435B1;}
	.st47{fill:#FFFFFF;}
	.st48{fill:#BB309A;}
	.st49{fill:#DA2E7B;}
	.st50{fill:#E13764;}
	.st51{fill:#EA4A52;}
	.st52{fill:#EC6043;}
	.st53{fill:#F67130;}
	.st54{fill:#FA862E;}
	.st55{fill:#FBA742;}
	.st56{fill:#FDBB57;}
	.st57{fill:#FED374;}
</style>
<g>
	<line class="st0" x1="113.47" y1="150.58" x2="113.27" y2="157.08"/>
	<path class="st1" d="M113.27,157.08c-9.58,4.85-18.93,9.88-28.05,15.07c-16.91,9.62-34.2,18.64-51.25,28
		c-5.04,2.76-15.3,8.11-15.48,14.06c-0.01,0.24,0.06,0.46,0.22,0.64c2.97,3.61,5.52,7.43,10.99,5.44c4.15-1.51,8.16-3.34,12.04-5.48
		c23.76-13.15,47.65-26.15,71.65-39"/>
	<line class="st2" x1="113.39" y1="175.82" x2="113.44" y2="176.53"/>
	<line class="st3" x1="113.44" y1="176.53" x2="113.45" y2="188.99"/>
	<line class="st4" x1="113.45" y1="188.99" x2="113.43" y2="190.58"/>
	<path class="st1" d="M113.43,190.58c-20.3,11.67-40.58,23.37-60.84,35.11c-5.13,2.96-8.08,6.55-10.51,11.68
		c-0.1,0.21-0.11,0.42-0.04,0.64c1.79,5.14,6.09,6.41,11.01,6.85c0.7,0.06,1.07,0.85,0.68,1.42c-1.56,2.29-3.66,5.63-4.13,8.41
		c-0.47,2.8,1.25,6.88,1.97,9.67c0.05,0.22-0.07,0.46-0.28,0.54c-4.67,1.78-6.37,7.75-9.07,11.59c-0.14,0.21-0.16,0.42-0.03,0.64
		c6.9,11.83,15.31,6.41,24.36,1.37c17.75-9.91,35.34-20.2,52.75-30.87"/>
	<line class="st5" x1="119.29" y1="247.65" x2="121.14" y2="249.92"/>
	<line class="st6" x1="121.14" y1="249.92" x2="122.83" y2="251.95"/>
	<path class="st1" d="M122.83,251.95c-17.96,10.75-36.06,21.09-53.49,32.66c-4.98,3.3-13.65,8.45-11.37,14.95
		c4.9,13.95,22.46,0.84,29.25-3.25c0.19-0.12,0.43-0.14,0.64-0.06c2.36,0.88,4.36,2.23,5.98,4.06c1.25,1.4,2.21,2.29,2.88,2.64
		c6.77,3.63,20.21-5.2,27.75-9.88c17.64-10.91,35.59-21.33,53.86-31.26"/>
	<line class="st7" x1="178.34" y1="261.81" x2="194.93" y2="261.94"/>
	<path class="st1" d="M194.93,261.94l-26.37,16.69c-0.2,0.13-0.34,0.31-0.43,0.52l-3.36,8.26c-0.08,0.2-0.04,0.43,0.13,0.58
		c3.56,3.34,3.94,6.91,9.52,7.44c10.57,1,19.41-5.12,28.77-9.19c0.31-0.13,0.61,0.19,0.46,0.49c-2.2,4.34-4.03,8.83-5.51,13.48
		c-0.07,0.22-0.07,0.47,0.02,0.7c6.91,18.01,27.51,3.34,38.87-0.6c0.4-0.13,0.77,0.28,0.59,0.66c-3.04,6.41-3.05,8.65,2.99,12.99
		c0.2,0.14,0.42,0.2,0.66,0.18c7.43-0.58,14.04-2.69,19.82-6.34c22.14-13.98,45.91-30.09,71.28-48.32c4.16-2.99,6.1-7.18,5.81-12.56
		c-0.01-0.28-0.11-0.52-0.29-0.72l-8.04-9.1c-0.16-0.19-0.36-0.27-0.61-0.26c-4.72,0.23-9.29,1.17-13.72,2.8
		c-0.55,0.19-1.39,0.23-2.53,0.11c-0.29-0.04-0.37-0.18-0.22-0.43c1.55-2.83,5.17-9.56,3.06-12.55c-2.96-4.19-6.36-7.82-10.2-10.89
		c-0.35-0.28-0.34-0.55,0.04-0.79c12.64-8.1,25.99-15.49,36.57-26.37c8.49-8.73-1.5-15.7-7.42-21.13c-0.17-0.16-0.19-0.41-0.04-0.59
		c0.84-1.07,1.7-2.26,2.92-2.95c9.61-5.47,17.43-10.18,23.44-14.14c7.88-5.19-0.19-14.79-4.06-19.45c-0.17-0.2-0.2-0.42-0.09-0.67
		c1.42-3.13,2.59-6.08,1.23-8.96c-0.89-1.9-2.77-5.47-5.62-10.72c-0.13-0.23-0.08-0.43,0.13-0.58c4.02-2.86,8.02-5.75,12-8.67
		c6.23-4.55,9.49-8.26,9.7-15.73c0.01-0.25-0.07-0.5-0.22-0.7l-4.15-5.59c-0.14-0.19-0.33-0.29-0.56-0.31
		c-5.44-0.51-10.19-0.4-15.61,1.43c-9.04,3.05-19.78,6.78-32.22,11.17c-1.44,0.5-2.86,0.34-4.28-0.48c-0.2-0.11-0.26-0.36-0.16-0.55
		c3.98-7.26,2.77-18.72-6.39-20.84c-4.21-0.97-10.86,0.58-15.83,1.06c-0.23,0.02-0.46-0.07-0.62-0.24c-7.6-8.44-12.79-9.12-23.6-6
		c-14.98,4.33-28.41,8.52-40.31,12.56c-2.63,0.89-4.69,1.24-7.13-0.34c-3.53-2.3-4.8-2.98-9.17-1.76
		c-10.55,2.95-21.06,6.01-31.55,9.18c-0.95,0.28-2.08,0.37-3.4,0.25c-0.43-0.04-0.46-0.17-0.09-0.39
		c4.36-2.62,11.09-6.67,4.65-12.28c-1.43-1.25-3.01-1.86-4.72-1.83c-11.26,0.17-20.29,4.35-31.09,10.42
		c-37.35,20.98-74.62,42.11-111.8,63.4c-6.13,3.51-14.05,7.57-23.76,12.16c-5.41,2.56-8.4,4.7-10.93,9.7
		c-2.17,4.28,4.16,8.56,7.34,9.33c5.47,1.32,11.29-1.75,16.52-4.34c13.42-6.64,26.84-13.3,40.26-19.98
		c2.8-1.39,12.37-6.31,15.07-5.66c0.26,0.07,0.29,0.19,0.09,0.37c-2.06,1.88-4.27,3.55-6.64,5.03
		c-14.17,8.86-28.39,17.63-42.65,26.33c-3.24,1.98-6.38,4.86-9.7,7.61c-3.97,3.31-1.75,7.17,1.54,9.82
		c6.84,5.5,12.03,1.52,19.3-2.87c24.64-14.9,41.15-24.02,70.9-40.2"/>
	<path class="st8" d="M194.93,261.94c0.22,0.07,0.37,0.01,0.45-0.18"/>
	<line class="st9" x1="195.38" y1="261.76" x2="202.33" y2="261.76"/>
	<line class="st10" x1="202.33" y1="261.76" x2="212.49" y2="261.76"/>
	<line class="st11" x1="212.49" y1="261.76" x2="220.65" y2="261.77"/>
	<line class="st12" x1="220.65" y1="261.77" x2="230.32" y2="261.42"/>
	<line class="st13" x1="230.32" y1="261.42" x2="238.27" y2="260.16"/>
	<line class="st14" x1="238.27" y1="260.16" x2="242.62" y2="258.59"/>
	<path class="st15" d="M242.62,258.59c15.24-7.11,18.99-19.98,19.07-35.82c0.05-8.71,0.05-17.07,0-25.08"/>
	<line class="st16" x1="261.69" y1="197.69" x2="261.69" y2="152.26"/>
	<path class="st17" d="M261.69,152.26c0.13-15.2-3.94-28.32-18.6-35.31"/>
	<path class="st18" d="M243.09,116.94c-0.2-0.01-0.37-0.16-0.5-0.46"/>
	<path class="st1" d="M242.59,116.49c2.95-1.44,5.39-3.46,7.35-6.06c0.16-0.22,0.1-0.34-0.16-0.4c-3.39-0.67-8.68,2.05-14.19,4.39"
		/>
	<path class="st18" d="M235.59,114.42c-6.93-0.76-13.98-1-21.15-0.73"/>
	<line class="st19" x1="214.44" y1="113.7" x2="196.63" y2="113.49"/>
	<path class="st1" d="M196.63,113.49c6.74-3.62,13.39-7.28,19.97-10.99c0.89-0.5,1.23-1.17,1-2.01c-0.08-0.29-0.26-0.37-0.54-0.25
		l-31.07,13.34"/>
	<line class="st19" x1="185.99" y1="113.58" x2="184.75" y2="113.67"/>
	<path class="st20" d="M184.75,113.67c-11.98-0.01-23.88,0-35.7,0.04c-10.69,0.03-20.04,2.79-27.21,10.86"/>
	<path class="st19" d="M121.83,124.56c-3.38,3.85-5.65,8.17-6.79,12.94"/>
	<path class="st18" d="M115.04,137.5c-1,4.23-1.53,8.59-1.57,13.08"/>
	<path class="st21" d="M242.62,258.59l-1.83-8.14c-0.04-0.19-0.13-0.22-0.27-0.07l-0.18,0.18c-0.08,0.08-0.22,0.03-0.22-0.08
		c-0.59-6.9-2.55-13.21-5.86-18.91"/>
	<path class="st22" d="M181.49,242.1l-2.4,0.5c-0.34,0.07-0.37,0.19-0.06,0.37l5.7,3.22c0.09,0.05,0.13,0.02,0.13-0.07
		c0-0.07-0.01-0.14-0.05-0.21c-0.1-0.17-0.07-0.22,0.09-0.13l5.77,3.16c0.09,0.04,0.07,0.18-0.02,0.21
		c-0.07,0.02-0.14,0.05-0.21,0.07c-0.11,0.04-0.12,0.09-0.04,0.17c0.57,0.53,1.68,1.33,3.32,2.37c2.41,1.54,5.02,4.81,8.29,7.6
		c0.78,0.67,0.88,1.46,0.31,2.39"/>
	<path class="st23" d="M195.38,261.76l-7.65-5.83c-0.02-0.01-0.04-0.01-0.06-0.01c-0.07,0.04-0.13,0.09-0.16,0.14
		c-0.06,0.09-0.13,0.1-0.22,0.04c-3.22-2.49-6.28-4.55-10.44-5.55c-3.97-0.95-7.59-2.57-11.72-2.87c-1.07-0.07-1.77,0.38-3.05,0.19
		c-8.95-1.37-20.74,1.57-28.84,5.41c-1.71,0.81-2.77,2.31-5.05,2.96"/>
	<line class="st9" x1="128.18" y1="256.24" x2="122.83" y2="251.95"/>
	<path class="st24" d="M212.49,261.76c0.1-1.24-0.31-2.3-1.2-3.18c-0.19-0.19-0.3-0.42-0.33-0.68c-0.13-1.15-0.67-2-1.65-2.57
		c-0.23-0.13-0.4-0.34-0.47-0.6c-0.34-1.24-1.1-2.12-2.26-2.65c-0.28-0.13-0.52-0.31-0.73-0.53l-1.67-1.87
		c-0.01-0.01-0.01-0.01,0.01-0.02c0.07-0.02,0.13-0.04,0.2-0.07c0.16-0.04,0.18-0.12,0.04-0.23c-1.5-1.19-3.66-3.76-5.38-4.3
		c-0.08-0.02-0.15-0.08-0.19-0.16l-1.04-1.84c-0.09-0.16-0.06-0.35,0.07-0.48c0.19-0.19,0.42-0.34,0.68-0.46"/>
	<path class="st25" d="M230.32,261.42c-0.07-1.75-0.62-3.47-1.65-5.16c-1.71-2.83-2.28-5.29-3.52-8.12
		c-0.37-0.86-0.72-2.06-1.03-3.6c-0.44-2.2-1.39-3.77-2.86-4.69"/>
	<path class="st26" d="M261.69,152.26c-0.22,0.14-0.35,0.43-0.4,0.88c-0.05,0.4-0.14,0.4-0.26,0.02c-0.43-1.39-1.43-2.13-3-2.23
		c-0.18-0.01-0.26-0.1-0.25-0.28c0.01-0.08,0.01-0.16,0.01-0.23c0.01-0.22-0.1-0.44-0.3-0.56c-3.88-2.38-8.89-2.69-13.29-3.42
		c-2.98-0.49-5.02-2.76-8.18-0.41"/>
	<path class="st2" d="M236.01,146.02c-7.99-10.59-19.05-12.69-31.66-12.68c-11.12,0.01-22.25,0.01-33.39-0.01"/>
	<path class="st27" d="M261.69,197.69c-1.82-0.81-3.26-2.18-4.31-4.12c-1.41-2.6-2.68-3.97-4.42-5.97c-0.01-0.01,0-0.01,0.01-0.02
		l0.23-0.08c0.08-0.02,0.09-0.07,0.04-0.14c-2.92-3.37-7.12-8.73-10.15-8.85c-0.25-0.01-0.43,0.1-0.56,0.31
		c-0.24,0.4-0.41,0.43-0.52,0.09"/>
	<path class="st28" d="M243.09,116.94c-2.4-0.67-3.82-1.07-6.34-0.37c-4.54,1.25-9.1,2.29-13.68,3.1c-0.1,0.02-0.17,0.1-0.16,0.21
		c0.01,0.1,0.1,0.18,0.19,0.18c2.14,0.04,4.26-0.2,6.34-0.72c0.08-0.02,0.13,0,0.16,0.07c0,0.02,0,0.04,0.01,0.06
		c0.01,0.08-0.04,0.13-0.14,0.15c-0.95,0.16-1.89,0.43-2.8,0.78c-0.19,0.08-0.19,0.11,0.02,0.1l2.73-0.13
		c0.03,0,0.06,0.02,0.06,0.05c0.01,0.03-0.02,0.05-0.04,0.06l-13.41,2.38c-0.06,0.02-0.07,0.1-0.01,0.12l0.27,0.08
		c0.06,0.02,0.05,0.11-0.02,0.13c-7.66,1.42-15.31,2.8-22.98,4.15c-1.69,0.3-3.38,0.07-4.97,0.42c-4.71,1.01-9.65,2.03-14.83,3.06
		c-0.37,0.07-0.64,0.37-0.7,0.73c-0.05,0.37-0.25,0.78-0.58,1.24c-0.03,0.04-0.02,0.07,0.02,0.07c0.07,0.02,0.13,0.04,0.18,0.07
		c0.2,0.11,0.19,0.16-0.04,0.16c-0.53-0.01-1,0.06-1.39,0.22"/>
	<path class="st0" d="M170.96,133.33c-14.15,0.46-25.14,2.14-33.14,14.84"/>
	<path class="st28" d="M137.83,148.17c-0.89-0.58-1.72-0.6-2.5-0.07c-1.09,0.74-3.25,2.32-6.46,4.71
		c-3.83,2.85-8.95,6.12-12.98,10.18c-0.19,0.2-0.43,0.28-0.71,0.25c-1.25-0.16-1.84,0.1-1.74,0.78"/>
	<line class="st18" x1="113.43" y1="164.02" x2="113.27" y2="157.08"/>
	<path class="st29" d="M220.65,261.77c-1.51-2.89-1.31-4.75-4.1-7.63c-0.16-0.17-0.25-0.38-0.25-0.61c0.01-0.44-0.16-0.77-0.48-0.98
		c-1.71-1.11-2.86-3.2-3.4-5.13c-0.05-0.2-0.22-0.37-0.42-0.43c-0.79-0.22-1.14-0.73-1.04-1.54c0.13-1.12-0.79-2.1-1.95-2.08
		c-0.62,0.01-1.07-0.5-1.36-1.51"/>
	<path class="st8" d="M178.34,261.81c-9.61-0.03-19.17-0.1-28.68-0.2c-7.92-0.09-14.62-1.08-21.48-5.37"/>
	<path class="st30" d="M214.44,113.7c-5.27,1.94-10.7,3.43-16.27,4.47c-2.2,0.41-4.64,1.18-6.75,1.54
		c-5.89,0.97-11.71,2.25-17.45,3.84c-0.4,0.11-0.77,0.3-1.09,0.55c-0.19,0.15-0.4,0.25-0.63,0.3l-7.57,1.6
		c-0.24,0.05-0.47,0.03-0.7-0.08c-0.65-0.32-1.22,0.12-1.66,0.22c-2.79,0.63-5.53,1.45-8.2,2.46c-0.01,0-0.01,0.01,0,0.01
		c0.07,0.02,0.13,0.04,0.2,0.06c0.11,0.02,0.12,0.05,0.01,0.1c-1.74,0.76-3.53,1.37-5.38,1.83c-0.04,0.01-0.04,0.03,0,0.04
		c0.07,0.03,0.13,0.05,0.18,0.07c0.16,0.07,0.15,0.13-0.01,0.19c-1.21,0.44-2.92,0.82-5.14,1.12c-6.24,0.83-11.7,1.22-17.62,2.27
		c-3.19,0.56-6.42,0.94-9.68,1.15c-0.24,0.02-0.46,0.15-0.58,0.36l-1.06,1.7"/>
	<path class="st31" d="M121.83,124.56c6.67,0.14,12.73-0.2,18.21-1.03c4.63-0.7,9.52-0.61,13.4-1.31c3.29-0.59,6.57-1.3,9.82-2.13
		c1.72-0.43,3.43-0.23,5.2-0.81c3.84-1.24,7.6-2.5,11.54-3.42c1.59-0.37,3.17-1.1,4.75-2.19"/>
	<path class="st32" d="M238.27,260.16c-0.86-3.94-1.51-7.87-1.93-11.76c-0.23-2.12-0.66-4.03-1.28-5.72
		c-1.04-2.86-2.15-5.73-3.33-8.61"/>
	<line class="st0" x1="242.59" y1="116.49" x2="235.59" y2="114.42"/>
	<line class="st33" x1="196.63" y1="113.49" x2="185.99" y2="113.58"/>
	<path class="st3" d="M236.01,146.02c6.35,10.21,5.99,21.32,6,32.88"/>
	<path class="st4" d="M242.01,178.9c0.17,12.06,0.05,22.93-0.35,32.62c-0.31,7.42-2.77,14.1-7.4,20.04"/>
	<line class="st34" x1="234.26" y1="231.56" x2="231.72" y2="234.07"/>
	<path class="st35" d="M231.72,234.07c-3.61,2.96-7.09,4.89-10.45,5.77"/>
	<path class="st36" d="M221.27,239.85c-4.57,1.36-9.1,2.02-13.61,2"/>
	<line class="st37" x1="207.66" y1="241.85" x2="198.56" y2="242.1"/>
	<line class="st5" x1="198.56" y1="242.1" x2="181.49" y2="242.1"/>
	<path class="st6" d="M181.49,242.1c-8.86,0.01-15.1-0.13-18.72-0.44c-3.98-0.34-8.06-1.33-12.24-2.97"/>
	<path class="st5" d="M150.54,238.69c-4.78-2.4-8.53-5.53-11.24-9.37"/>
	<path class="st37" d="M139.3,229.32c-2.32-3.35-3.98-7.28-4.96-11.78"/>
	<path class="st36" d="M134.33,217.54c-0.79-5.46-1.13-11.17-1.03-17.13"/>
	<line class="st35" x1="133.3" y1="200.41" x2="133.14" y2="194.8"/>
	<line class="st34" x1="133.14" y1="194.8" x2="133.3" y2="180.56"/>
	<line class="st4" x1="133.3" y1="180.56" x2="133.26" y2="177.78"/>
	<line class="st3" x1="133.26" y1="177.78" x2="133.72" y2="162.18"/>
	<path class="st2" d="M133.72,162.18c0.37-4.63,1.73-9.3,4.11-14.02"/>
	<path class="st22" d="M150.54,238.69c-2.57,0.82-5.08,1.54-7.51,2.2c-5.94,1.59-12.74,3.81-17.79,7.2
		c-0.2,0.14-0.43,0.22-0.67,0.26c-1.22,0.19-2.36,0.71-3.42,1.57"/>
	<path class="st26" d="M133.72,162.18c-3.25,1.18-5.65,2.37-7.19,3.56c-2.26,1.75-5.62,4.84-10.09,9.27
		c-0.16,0.17-0.35,0.31-0.57,0.4l-2.42,1.11"/>
	<line class="st17" x1="113.39" y1="175.82" x2="113.43" y2="164.02"/>
	<path class="st24" d="M139.3,229.32l-0.01,1.12c0,0.3-0.14,0.49-0.43,0.58l-5.33,1.52c-0.03,0.01-0.03,0.02-0.01,0.04l0.18,0.16
		c0.06,0.05,0.04,0.15-0.04,0.18c-4.15,1.57-8.09,3.55-11.83,5.95c-1.64,1.04-3.67,1-4.77,3.2c-0.02,0.05-0.07,0.07-0.13,0.05
		c-0.07-0.02-0.15-0.05-0.23-0.08c-0.02-0.01-0.04,0.01-0.04,0.03c0,0.25-0.06,0.39-0.19,0.4"/>
	<path class="st32" d="M133.14,194.8c-1.52,1.51-3.28,2.5-5.27,2.98c-0.24,0.05-0.46,0.18-0.63,0.35c-1.63,1.63-3.56,2.7-5.79,3.19
		c-0.06,0.02-0.12-0.02-0.14-0.07c-0.02-0.06,0.01-0.13,0.06-0.16c0.1-0.05,0.18-0.13,0.23-0.21c0.09-0.13,0.05-0.18-0.1-0.14
		c-2.17,0.58-3.53,1.84-5.35,3c-0.67,0.43-1.3,0.92-1.89,1.48c-0.15,0.14-0.26,0.12-0.34-0.07c-0.14-0.34-0.29-0.4-0.46-0.19"/>
	<line class="st14" x1="113.44" y1="204.96" x2="113.45" y2="193.51"/>
	<path class="st27" d="M133.26,177.78c0.02,1.45-0.59,2.19-1.84,2.21c-0.13,0-0.28,0.03-0.4,0.09l-3.67,1.71
		c-0.04,0.01-0.03,0.07,0.01,0.07l0.28,0.04c0.06,0.01,0.07,0.09,0.01,0.11l-7.19,3.2c-0.27,0.12-0.48,0.31-0.63,0.55
		c-0.41,0.68-0.99,1.1-1.74,1.26c-0.26,0.05-0.46,0.2-0.59,0.44c-0.65,1.2-1.7,1.79-3.15,1.78c-0.01,0-0.07,0.04-0.22,0.1
		c-0.11,0.05-0.13,0.13-0.07,0.24c0.1,0.16,0.05,0.21-0.12,0.16c-0.19-0.06-0.35-0.31-0.49-0.76"/>
	<path class="st25" d="M133.3,200.41c-4.59,0.61-8.09,2.68-11.86,4.65c-1.43,0.74-2.79,1.61-4.07,2.62
		c-0.13,0.1-0.19,0.07-0.19-0.09c0-0.08,0-0.17,0.01-0.27c0.01-0.24-0.1-0.31-0.31-0.2l-2.85,1.37c-0.1,0.05-0.16,0.02-0.16-0.1
		c0-0.1-0.01-0.19-0.03-0.27c-0.07-0.31-0.13-0.31-0.18,0.01c-0.04,0.2-0.1,0.34-0.18,0.4"/>
	<path class="st29" d="M134.33,217.54c-2.05-0.46-4.19,0.05-6.43,1.51c-0.08,0.05-0.15,0.11-0.2,0.19
		c-0.13,0.16-0.09,0.23,0.12,0.21l0.41-0.06c0.46-0.07,0.49,0.04,0.13,0.32c-2.46,1.84-5.02,3.55-7.67,5.1
		c-0.1,0.06-0.21-0.06-0.15-0.16l0.14-0.25c0.15-0.25,0.1-0.31-0.16-0.18l-3.27,1.57c-0.03,0.01-0.07-0.01-0.07-0.04
		c0-0.07,0-0.15,0-0.22c0-0.1-0.11-0.15-0.19-0.08l-2.45,2.18c-0.17,0.15-0.22,0.34-0.16,0.55c0.07,0.28,0.02,0.44-0.18,0.51
		c0.13-0.7-0.06-1.18-0.56-1.43"/>
	<path class="st21" d="M133.3,180.56l-0.21,3.05c-0.01,0.26-0.14,0.46-0.37,0.57c-3.18,1.61-6.37,3.2-9.57,4.77
		c-1.69,0.83-3.98,1.33-5.75,3.1c-0.65,0.65-1.96,1.14-3.94,1.46"/>
	<line class="st15" x1="113.45" y1="193.51" x2="113.43" y2="190.58"/>
	<line class="st13" x1="113.44" y1="204.96" x2="113.46" y2="208.53"/>
	<line class="st12" x1="113.46" y1="208.53" x2="113.63" y2="227.26"/>
	<path class="st11" d="M113.63,227.26c0.08,5.3,1.03,10.37,2.84,15.21"/>
	<line class="st10" x1="116.47" y1="242.47" x2="119.29" y2="247.65"/>
	<line class="st4" x1="143.1" y1="175.6" x2="143.05" y2="187.41"/>
	<line class="st35" x1="143.05" y1="187.41" x2="143.05" y2="195.69"/>
	<line class="st36" x1="143.05" y1="195.69" x2="143.29" y2="207.57"/>
	<path class="st38" d="M143.29,207.57c-0.01,4.12,0.52,7.93,1.57,11.44"/>
	<path class="st37" d="M144.86,219.01c1.65,4.27,4.28,7.5,7.89,9.7"/>
	<path class="st5" d="M152.75,228.7c8.53,4.48,21.09,3.85,32.06,3.37"/>
	<path class="st37" d="M184.81,232.08c3.64,0.4,7.27,0.4,10.89,0.01"/>
	<line class="st38" x1="195.7" y1="232.08" x2="208.26" y2="231.98"/>
	<path class="st36" d="M208.26,231.98c2.94,0.06,6.1-0.36,9.5-1.27"/>
	<path class="st35" d="M217.76,230.71c4.31-1.34,7.59-3.54,9.83-6.59"/>
	<path class="st34" d="M227.59,224.12c1.61-2.33,2.68-4.6,3.2-6.81"/>
	<path class="st4" d="M230.79,217.31c0.67-2.47,1.03-4.64,1.1-6.54c0.49-13.11,0.52-27.5,0.07-43.16c-0.1-3.79-0.51-7.12-1.21-9.97"
		/>
	<path class="st3" d="M230.76,157.63c-3.76-11.77-12.14-13.85-23.88-14.28c-15.46-0.56-30.03-0.49-43.72,0.19
		c-19,0.95-20.44,17.42-20.06,32.06"/>
	<path class="st27" d="M230.76,157.63l-0.55,0.34c-0.06,0.04-0.11,0.02-0.15-0.04l-0.16-0.27c-0.07-0.12-0.13-0.12-0.19,0.01
		c-0.25,0.58-0.66,0.79-1.21,0.61c-1.96-0.64-3.78-0.85-5.45-0.63"/>
	<path class="st3" d="M223.06,157.66c-2.16-9.78-16-5.4-12.14,3.94"/>
	<path class="st27" d="M210.92,161.59c-0.63-0.43-1.4-0.63-2.32-0.61c-0.24,0.01-0.48-0.05-0.7-0.16c-0.98-0.51-1.76-0.93-2.92-0.8
		c-2.59,0.28-4.99,0.79-7.24,1.53"/>
	<path class="st3" d="M197.75,161.55c-11.75-3.85-21.97-1.47-30.66,7.16"/>
	<path class="st27" d="M167.09,168.72c-0.29-0.2-0.48-0.47-0.56-0.8c-0.05-0.23-0.2-0.32-0.43-0.27c-1.6,0.35-3.18,0.66-4.76,0.93
		c-1.36,0.23-2.67,0.68-3.92,1.33c-4.51,2.38-9.28,4.27-14.32,5.69"/>
	<path class="st21" d="M230.79,217.31c-0.87,0-1.53-0.22-2.05-1c-2.27-3.45-11.89-16.15-16.35-15.9"/>
	<path class="st4" d="M212.39,200.41c7.72-15.21,0.7-31.91-14.64-38.85"/>
	<line class="st34" x1="212.39" y1="200.41" x2="210.06" y2="204.22"/>
	<path class="st35" d="M210.06,204.22c-2.41,3.2-5.4,5.81-8.96,7.84"/>
	<path class="st36" d="M201.1,212.05c-2.78,1.56-5.86,2.62-9.22,3.19"/>
	<path class="st38" d="M191.88,215.25c-10.14,1.1-18.51-1.87-25.1-8.93"/>
	<path class="st36" d="M166.78,206.32c-3.53-4.3-5.68-8.64-6.45-13.03"/>
	<path class="st35" d="M160.33,193.29c-0.7-3.34-0.83-6.34-0.42-9.01"/>
	<path class="st4" d="M159.91,184.28c0.88-6.1,3.28-11.29,7.18-15.57"/>
	<path class="st4" d="M223.06,157.66c0.58,7.39-8.21,10.21-12.14,3.94"/>
	<path class="st39" d="M159.91,184.28c-1.63,0.07-3.23,0.3-4.79,0.68c-4.1,1-8.07,1.13-12.07,2.44"/>
	<path class="st32" d="M227.59,224.12c-4.79-6.94-8.47-11.57-11.05-13.9c-2.16-1.94-4.32-3.94-6.47-6"/>
	<path class="st25" d="M160.33,193.29c-3.26,0.15-6.17,0.82-9.58,0.95c-2.48,0.09-5.05,0.57-7.7,1.45"/>
	<path class="st40" d="M166.78,206.32c-3.95,0.68-7.97,0.84-12.06,0.46c-4.12-0.37-7.51,0.32-11.44,0.79"/>
	<path class="st40" d="M191.88,215.25l1.05,0.04c0.26,0.01,0.38,0.15,0.37,0.4c-0.07,2.65,4.54,5.04,6.16,6.72
		c2.87,2.98,5.8,6.16,8.79,9.56"/>
	<path class="st41" d="M195.7,232.08c-0.79-0.34-1.39-0.96-1.81-1.88c-0.1-0.22-0.27-0.36-0.5-0.43c-2.24-0.62-3.52-2.95-5.82-3.14
		c-0.25-0.02-0.47-0.09-0.68-0.22c-2.35-1.43-5.31-1.78-7.17-2.39c-1.93-0.64-3.89-1.19-5.88-1.68c-0.04-0.01-0.07-0.05-0.05-0.09
		c0.02-0.07,0.04-0.13,0.07-0.19c0.05-0.14,0-0.22-0.16-0.23c-0.83-0.05-1.54-0.34-2.12-0.88c-0.17-0.16-0.37-0.28-0.59-0.34
		c-3.65-1.15-7.37-1.95-11.17-2.41c-0.22-0.02-0.42,0.02-0.61,0.14c-0.83,0.54-5.17-0.71-7.14,0.07c-0.23,0.09-0.46,0.12-0.71,0.1
		c-2.29-0.26-4.45-0.1-6.48,0.49"/>
	<path class="st25" d="M217.76,230.71c-2.05-3.49-5.14-7.59-9.25-12.29c-0.97-1.09-1.76-1.84-2.38-2.23
		c-0.22-0.13-0.39-0.3-0.52-0.51c-1.1-1.64-2.59-2.85-4.49-3.63"/>
	<path class="st24" d="M184.81,232.08c-2.47-0.29-3.76,0.3-5.74-0.74c-7.29-3.82-17.78-4.56-26.31-2.63"/>
	<path class="st34" d="M170.76,180.9c-0.82,2.2-1.27,4.37-1.35,6.52"/>
	<path class="st35" d="M169.41,187.43c0.73,17.11,19.81,24.48,31.86,12.13"/>
	<path class="st34" d="M201.27,199.56c1.84-2.15,3.13-4.6,3.84-7.34"/>
	<path class="st4" d="M205.11,192.22c5.19-21.84-24.81-32.07-34.35-11.32"/>
	<path class="st21" d="M205.11,192.22c-2.7-0.95-5.3-2.1-7.81-3.44c-0.85-0.46-1.45-1.42-2.8-1.26c-0.24,0.03-0.47-0.01-0.7-0.11
		c-1.93-0.91-3.93-1.62-6-2.13c-0.08-0.02-0.16-0.07-0.2-0.15l-0.19-0.31c-0.1-0.17-0.24-0.28-0.43-0.32
		c-2.52-0.64-4.76-1.98-7.22-2.35c-2.95-0.45-5.95-0.86-9-1.23"/>
	<path class="st32" d="M201.27,199.56c-0.26-0.14-0.59,0-0.97,0.43c-0.22,0.23-0.29,0.19-0.22-0.11l0.08-0.39
		c0.07-0.32-0.12-0.42-0.58-0.28c-0.21,0.07-0.39-0.04-0.53-0.34c-0.08-0.17-0.22-0.32-0.4-0.41c-3.93-2.11-11.34-6.75-17.05-7.82
		c-0.23-0.04-0.45-0.13-0.64-0.27c-0.92-0.65-1.94-0.9-3.06-0.74c-0.25,0.04-0.5,0-0.73-0.1c-2.44-1.09-5.03-1.79-7.75-2.08"/>
</g>
<path class="st42" d="M194.93,261.94c0.22,0.07,0.37,0.01,0.45-0.18h6.94h10.16l8.17,0.01l9.67-0.34l7.95-1.26l4.35-1.57
	c15.24-7.11,18.99-19.98,19.07-35.82c0.05-8.71,0.05-17.07,0-25.08v-45.43c0.13-15.2-3.94-28.32-18.6-35.31
	c-0.2-0.01-0.37-0.16-0.5-0.46c2.95-1.44,5.39-3.46,7.35-6.06c0.16-0.22,0.1-0.34-0.16-0.4c-3.39-0.67-8.68,2.05-14.19,4.39
	c-6.93-0.76-13.98-1-21.15-0.73l-17.81-0.2c6.74-3.62,13.39-7.28,19.97-10.99c0.89-0.5,1.23-1.17,1-2.01
	c-0.08-0.29-0.26-0.37-0.54-0.25l-31.07,13.34l-1.24,0.08c-11.98-0.01-23.88,0-35.7,0.04c-10.69,0.03-20.04,2.79-27.21,10.86
	c-3.38,3.85-5.65,8.17-6.79,12.94c-1,4.23-1.53,8.59-1.57,13.08c-29.75,16.18-46.25,25.3-70.9,40.2c-7.27,4.39-12.46,8.38-19.3,2.87
	c-3.29-2.65-5.51-6.52-1.54-9.82c3.32-2.75,6.46-5.63,9.7-7.61c14.26-8.7,28.48-17.47,42.65-26.33c2.36-1.48,4.57-3.15,6.64-5.03
	c0.2-0.19,0.17-0.31-0.09-0.37c-2.69-0.65-12.26,4.27-15.07,5.66c-13.42,6.67-26.83,13.33-40.26,19.98
	c-5.23,2.59-11.05,5.66-16.52,4.34c-3.18-0.76-9.51-5.05-7.34-9.33c2.53-5,5.52-7.14,10.93-9.7c9.71-4.6,17.63-8.65,23.76-12.16
	c37.18-21.28,74.45-42.41,111.8-63.4c10.81-6.07,19.83-10.25,31.09-10.42c1.72-0.03,3.29,0.58,4.72,1.83
	c6.44,5.61-0.28,9.67-4.65,12.28c-0.37,0.22-0.34,0.35,0.09,0.39c1.32,0.12,2.45,0.04,3.4-0.25c10.48-3.16,21-6.22,31.55-9.18
	c4.37-1.22,5.64-0.54,9.17,1.76c2.44,1.58,4.5,1.23,7.13,0.34c11.89-4.04,25.33-8.23,40.31-12.56c10.81-3.12,16-2.44,23.6,6
	c0.16,0.17,0.39,0.26,0.62,0.24c4.97-0.48,11.62-2.03,15.83-1.06c9.16,2.12,10.37,13.58,6.39,20.84c-0.1,0.19-0.04,0.44,0.16,0.55
	c1.42,0.82,2.84,0.98,4.28,0.48c12.44-4.39,23.18-8.11,32.22-11.17c5.42-1.83,10.17-1.94,15.61-1.43c0.23,0.02,0.42,0.13,0.56,0.31
	l4.15,5.59c0.15,0.2,0.23,0.45,0.22,0.7c-0.22,7.48-3.47,11.18-9.7,15.73c-3.98,2.92-7.98,5.8-12,8.67
	c-0.22,0.16-0.26,0.35-0.13,0.58c2.85,5.24,4.72,8.82,5.62,10.72c1.36,2.88,0.19,5.83-1.23,8.96c-0.11,0.25-0.08,0.46,0.09,0.67
	c3.88,4.66,11.95,14.26,4.06,19.45c-6.01,3.96-13.83,8.67-23.44,14.14c-1.22,0.69-2.08,1.87-2.92,2.95
	c-0.14,0.18-0.13,0.43,0.04,0.59c5.92,5.44,15.91,12.4,7.42,21.13c-10.57,10.88-23.93,18.27-36.57,26.37
	c-0.38,0.25-0.39,0.51-0.04,0.79c3.84,3.07,7.24,6.7,10.2,10.89c2.11,2.98-1.51,9.72-3.06,12.55c-0.14,0.25-0.07,0.4,0.22,0.43
	c1.14,0.13,1.98,0.09,2.53-0.11c4.43-1.63,9.01-2.56,13.72-2.8c0.25-0.01,0.45,0.07,0.61,0.26l8.04,9.1
	c0.18,0.2,0.28,0.44,0.29,0.72c0.28,5.38-1.65,9.57-5.81,12.56c-25.37,18.24-49.13,34.35-71.28,48.32
	c-5.78,3.65-12.39,5.77-19.82,6.34c-0.24,0.02-0.46-0.04-0.66-0.18c-6.04-4.34-6.03-6.58-2.99-12.99c0.18-0.38-0.19-0.79-0.59-0.66
	c-11.35,3.94-31.96,18.61-38.87,0.6c-0.09-0.22-0.1-0.47-0.02-0.7c1.48-4.64,3.31-9.13,5.51-13.48c0.15-0.3-0.16-0.63-0.46-0.49
	c-9.37,4.06-18.2,10.18-28.77,9.19c-5.59-0.53-5.96-4.1-9.52-7.44c-0.16-0.15-0.21-0.38-0.13-0.58l3.36-8.26
	c0.09-0.22,0.23-0.4,0.43-0.52L194.93,261.94z"/>
<path class="st43" d="M185.99,113.58l10.64-0.09l17.81,0.2c-5.27,1.94-10.7,3.43-16.27,4.47c-2.2,0.41-4.64,1.18-6.75,1.54
	c-5.89,0.97-11.71,2.25-17.45,3.84c-0.4,0.11-0.77,0.3-1.09,0.55c-0.19,0.15-0.4,0.25-0.63,0.3l-7.57,1.6
	c-0.24,0.05-0.47,0.03-0.7-0.08c-0.65-0.32-1.22,0.12-1.66,0.22c-2.79,0.63-5.53,1.45-8.2,2.46c-0.01,0-0.01,0.01,0,0.01
	c0.07,0.02,0.13,0.04,0.2,0.06c0.11,0.02,0.12,0.05,0.01,0.1c-1.74,0.76-3.53,1.37-5.38,1.83c-0.04,0.01-0.04,0.03,0,0.04
	c0.07,0.03,0.13,0.05,0.18,0.07c0.16,0.07,0.15,0.13-0.01,0.19c-1.21,0.44-2.92,0.82-5.14,1.12c-6.24,0.83-11.7,1.22-17.62,2.27
	c-3.19,0.56-6.42,0.94-9.68,1.15c-0.24,0.02-0.46,0.15-0.58,0.36l-1.06,1.7c1.15-4.77,3.41-9.08,6.79-12.94
	c6.67,0.14,12.73-0.2,18.21-1.03c4.63-0.7,9.52-0.61,13.4-1.31c3.29-0.59,6.57-1.3,9.82-2.13c1.72-0.43,3.43-0.23,5.2-0.81
	c3.84-1.24,7.6-2.5,11.54-3.42c1.59-0.37,3.17-1.1,4.75-2.19L185.99,113.58z"/>
<path class="st44" d="M184.75,113.67c-1.57,1.09-3.16,1.81-4.75,2.19c-3.94,0.92-7.7,2.17-11.54,3.42c-1.78,0.58-3.49,0.37-5.2,0.81
	c-3.25,0.82-6.52,1.54-9.82,2.13c-3.88,0.7-8.77,0.61-13.4,1.31c-5.47,0.83-11.54,1.18-18.21,1.03
	c7.18-8.07,16.53-10.83,27.21-10.86C160.87,113.67,172.77,113.65,184.75,113.67z"/>
<path class="st45" d="M214.44,113.7c7.17-0.28,14.22-0.04,21.15,0.73l7,2.06c0.13,0.29,0.3,0.44,0.5,0.46
	c-2.4-0.67-3.82-1.07-6.34-0.37c-4.54,1.25-9.1,2.29-13.68,3.1c-0.1,0.02-0.17,0.1-0.16,0.21c0.01,0.1,0.1,0.18,0.19,0.18
	c2.14,0.04,4.26-0.2,6.34-0.72c0.08-0.02,0.13,0,0.16,0.07c0,0.02,0,0.04,0.01,0.06c0.01,0.08-0.04,0.13-0.14,0.15
	c-0.95,0.16-1.89,0.43-2.8,0.78c-0.19,0.08-0.19,0.11,0.02,0.1l2.73-0.13c0.03,0,0.06,0.02,0.06,0.05c0.01,0.03-0.02,0.05-0.04,0.06
	l-13.41,2.38c-0.06,0.02-0.07,0.1-0.01,0.12l0.27,0.08c0.06,0.02,0.05,0.11-0.02,0.13c-7.66,1.42-15.31,2.8-22.98,4.15
	c-1.69,0.3-3.38,0.07-4.97,0.42c-4.71,1.01-9.65,2.03-14.83,3.06c-0.37,0.07-0.64,0.37-0.7,0.73c-0.05,0.37-0.25,0.78-0.58,1.24
	c-0.03,0.04-0.02,0.07,0.02,0.07c0.07,0.02,0.13,0.04,0.18,0.07c0.2,0.11,0.19,0.16-0.04,0.16c-0.53-0.01-1,0.06-1.39,0.22
	c-14.15,0.46-25.14,2.14-33.14,14.84c-0.89-0.58-1.72-0.6-2.5-0.07c-1.09,0.74-3.25,2.32-6.46,4.71
	c-3.83,2.85-8.95,6.12-12.98,10.18c-0.19,0.2-0.43,0.28-0.71,0.25c-1.25-0.16-1.84,0.1-1.74,0.78l-0.16-6.94l0.19-6.5
	c0.04-4.49,0.56-8.85,1.57-13.08l1.06-1.7c0.13-0.21,0.34-0.34,0.58-0.36c3.26-0.21,6.49-0.59,9.68-1.15
	c5.92-1.05,11.38-1.44,17.62-2.27c2.21-0.3,3.93-0.67,5.14-1.12c0.16-0.06,0.16-0.12,0.01-0.19c-0.05-0.02-0.11-0.04-0.18-0.07
	c-0.04-0.01-0.04-0.03,0-0.04c1.85-0.46,3.64-1.07,5.38-1.83c0.1-0.04,0.1-0.07-0.01-0.1c-0.07-0.01-0.13-0.04-0.2-0.06
	c-0.01,0-0.01-0.01,0-0.01c2.68-1.01,5.41-1.83,8.2-2.46c0.44-0.1,1.01-0.54,1.66-0.22c0.22,0.11,0.46,0.13,0.7,0.08l7.57-1.6
	c0.23-0.05,0.44-0.15,0.63-0.3c0.32-0.25,0.69-0.43,1.09-0.55c5.74-1.59,11.56-2.87,17.45-3.84c2.11-0.35,4.54-1.12,6.75-1.54
	C203.74,117.12,209.17,115.64,214.44,113.7z"/>
<path class="st46" d="M243.09,116.94c14.66,6.99,18.73,20.11,18.6,35.31c-0.22,0.14-0.35,0.43-0.4,0.88
	c-0.05,0.4-0.14,0.4-0.26,0.02c-0.43-1.39-1.43-2.13-3-2.23c-0.18-0.01-0.26-0.1-0.25-0.28c0.01-0.08,0.01-0.16,0.01-0.23
	c0.01-0.22-0.1-0.44-0.3-0.56c-3.88-2.38-8.89-2.69-13.29-3.42c-2.98-0.49-5.02-2.76-8.18-0.41c-7.99-10.59-19.05-12.69-31.66-12.68
	c-11.12,0.01-22.25,0.01-33.39-0.01c0.4-0.16,0.86-0.23,1.39-0.22c0.23,0.01,0.25-0.04,0.04-0.16c-0.05-0.03-0.11-0.05-0.18-0.07
	c-0.04-0.01-0.05-0.04-0.02-0.07c0.34-0.46,0.53-0.87,0.58-1.24c0.05-0.37,0.33-0.66,0.7-0.73c5.18-1.03,10.12-2.05,14.83-3.06
	c1.59-0.34,3.28-0.12,4.97-0.42c7.67-1.36,15.33-2.74,22.98-4.15c0.07-0.01,0.07-0.1,0.02-0.13l-0.27-0.08
	c-0.06-0.02-0.05-0.1,0.01-0.12l13.41-2.38c0.03-0.01,0.05-0.03,0.04-0.06c0-0.03-0.03-0.05-0.06-0.05l-2.73,0.13
	c-0.21,0.01-0.22-0.02-0.02-0.1c0.91-0.35,1.84-0.61,2.8-0.78c0.1-0.02,0.15-0.07,0.14-0.15c-0.01-0.02-0.01-0.04-0.01-0.06
	c-0.02-0.07-0.07-0.1-0.16-0.07c-2.08,0.52-4.2,0.76-6.34,0.72c-0.1,0-0.19-0.08-0.19-0.18c-0.01-0.1,0.07-0.19,0.16-0.21
	c4.58-0.81,9.14-1.84,13.68-3.1C239.27,115.87,240.69,116.28,243.09,116.94z"/>
<path class="st47" d="M143.1,175.6l-0.04,11.81v8.28l0.23,11.88c-0.01,4.12,0.52,7.93,1.57,11.44c1.65,4.27,4.28,7.5,7.89,9.7
	c8.53,4.48,21.09,3.85,32.06,3.37c3.64,0.4,7.27,0.4,10.89,0.01l12.56-0.1c2.94,0.06,6.1-0.36,9.5-1.27
	c4.31-1.34,7.59-3.54,9.83-6.59c1.61-2.33,2.68-4.6,3.2-6.81c0.67-2.47,1.03-4.64,1.1-6.54c0.49-13.11,0.52-27.5,0.07-43.16
	c-0.1-3.79-0.51-7.12-1.21-9.97c-3.76-11.77-12.14-13.85-23.88-14.28c-15.46-0.56-30.03-0.49-43.72,0.19
	C144.16,144.49,142.72,160.96,143.1,175.6z M170.96,133.33c11.14,0.02,22.26,0.02,33.39,0.01c12.61-0.01,23.67,2.09,31.66,12.68
	c6.35,10.21,5.99,21.32,6,32.88c0.17,12.06,0.05,22.93-0.35,32.62c-0.31,7.42-2.77,14.1-7.4,20.04l-2.53,2.51
	c-3.61,2.96-7.09,4.89-10.45,5.77c-4.57,1.36-9.1,2.02-13.61,2l-9.1,0.25h-17.07c-8.86,0.01-15.1-0.13-18.72-0.44
	c-3.98-0.34-8.06-1.33-12.24-2.97c-4.78-2.4-8.53-5.53-11.24-9.37c-2.32-3.35-3.98-7.28-4.96-11.78
	c-0.79-5.46-1.13-11.17-1.03-17.13l-0.16-5.61l0.16-14.24l-0.04-2.78l0.46-15.59c0.37-4.63,1.73-9.3,4.11-14.02
	C145.83,135.47,156.81,133.79,170.96,133.33"/>
<path class="st48" d="M230.76,157.63l-0.55,0.34c-0.06,0.04-0.11,0.02-0.15-0.04l-0.16-0.27c-0.07-0.12-0.13-0.12-0.19,0.01
	c-0.25,0.58-0.66,0.79-1.21,0.61c-1.96-0.64-3.78-0.85-5.45-0.63c-2.16-9.78-16-5.4-12.14,3.94c-0.63-0.43-1.4-0.63-2.32-0.61
	c-0.24,0.01-0.48-0.05-0.7-0.16c-0.98-0.51-1.76-0.93-2.92-0.8c-2.59,0.28-4.99,0.79-7.24,1.53c-11.75-3.85-21.97-1.47-30.66,7.16
	c-0.29-0.2-0.48-0.47-0.56-0.8c-0.05-0.23-0.2-0.32-0.43-0.27c-1.6,0.35-3.18,0.66-4.76,0.93c-1.36,0.23-2.67,0.68-3.92,1.33
	c-4.51,2.38-9.28,4.27-14.32,5.69c-0.38-14.64,1.06-31.11,20.06-32.06c13.69-0.68,28.26-0.75,43.72-0.19
	C218.62,143.78,227.01,145.86,230.76,157.63z"/>
<path class="st48" d="M261.69,152.26v45.43c-1.82-0.81-3.26-2.18-4.31-4.12c-1.41-2.6-2.68-3.97-4.42-5.97
	c-0.01-0.01,0-0.01,0.01-0.02l0.23-0.08c0.08-0.02,0.09-0.07,0.04-0.14c-2.92-3.37-7.12-8.73-10.15-8.85
	c-0.25-0.01-0.43,0.1-0.56,0.31c-0.24,0.4-0.41,0.43-0.52,0.09c-0.01-11.56,0.35-22.68-6-32.88c3.16-2.35,5.2-0.07,8.18,0.41
	c4.4,0.73,9.41,1.03,13.29,3.42c0.19,0.12,0.31,0.34,0.3,0.56c0,0.07,0,0.15-0.01,0.23c-0.01,0.18,0.08,0.28,0.25,0.28
	c1.57,0.1,2.57,0.85,3,2.23c0.12,0.38,0.2,0.37,0.26-0.02C261.34,152.69,261.47,152.4,261.69,152.26z"/>
<path class="st46" d="M137.83,148.17c-2.38,4.72-3.74,9.39-4.11,14.02c-3.25,1.18-5.65,2.37-7.19,3.56
	c-2.26,1.75-5.62,4.84-10.09,9.27c-0.16,0.17-0.35,0.31-0.57,0.4l-2.42,1.11l-0.05-0.71l0.04-11.8c-0.1-0.67,0.49-0.94,1.74-0.78
	c0.28,0.04,0.52-0.04,0.71-0.25c4.03-4.06,9.15-7.33,12.98-10.18c3.22-2.39,5.38-3.97,6.46-4.71
	C136.1,147.57,136.93,147.59,137.83,148.17z"/>
<path class="st47" d="M223.06,157.66c0.58,7.39-8.21,10.21-12.14,3.94C207.06,152.26,220.9,147.88,223.06,157.66z"/>
<path class="st42" d="M113.27,157.08l0.16,6.94l-0.04,11.8c-24,12.85-47.88,25.84-71.65,39c-3.88,2.14-7.89,3.97-12.04,5.48
	c-5.47,1.99-8.02-1.83-10.99-5.44c-0.16-0.19-0.22-0.4-0.22-0.64c0.18-5.95,10.44-11.3,15.48-14.06c17.05-9.37,34.34-18.38,51.25-28
	C94.35,166.95,103.7,161.93,113.27,157.08z"/>
<path class="st49" d="M223.06,157.66c1.67-0.22,3.49-0.01,5.45,0.63c0.55,0.18,0.95-0.02,1.21-0.61c0.05-0.13,0.12-0.13,0.19-0.01
	l0.16,0.27c0.04,0.06,0.09,0.07,0.15,0.04l0.55-0.34c0.7,2.86,1.1,6.19,1.21,9.97c0.44,15.67,0.41,30.06-0.07,43.16
	c-0.07,1.9-0.43,4.07-1.1,6.54c-0.87,0-1.53-0.22-2.05-1c-2.27-3.45-11.89-16.15-16.35-15.9c7.72-15.21,0.7-31.91-14.64-38.85
	c2.24-0.74,4.65-1.25,7.24-1.53c1.15-0.13,1.93,0.29,2.92,0.8c0.22,0.1,0.46,0.16,0.7,0.16c0.91-0.02,1.69,0.18,2.32,0.61
	C214.85,167.87,223.65,165.04,223.06,157.66z"/>
<path class="st47" d="M170.76,180.9c-0.82,2.2-1.27,4.37-1.35,6.52c0.73,17.11,19.81,24.48,31.86,12.13
	c1.84-2.15,3.13-4.6,3.84-7.34C210.3,170.37,180.3,160.15,170.76,180.9z M197.75,161.55c15.34,6.94,22.36,23.64,14.64,38.85
	l-2.32,3.81c-2.41,3.2-5.4,5.81-8.96,7.84c-2.78,1.56-5.86,2.62-9.22,3.19c-10.14,1.1-18.51-1.87-25.1-8.93
	c-3.53-4.3-5.68-8.64-6.45-13.03c-0.7-3.34-0.83-6.34-0.42-9.01c0.88-6.1,3.28-11.29,7.18-15.57
	C175.78,160.09,186,157.7,197.75,161.55"/>
<path class="st48" d="M133.72,162.18l-0.46,15.59c0.02,1.45-0.59,2.19-1.84,2.21c-0.13,0-0.28,0.03-0.4,0.09l-3.67,1.71
	c-0.04,0.01-0.03,0.07,0.01,0.07l0.28,0.04c0.06,0.01,0.07,0.09,0.01,0.11l-7.19,3.2c-0.27,0.12-0.48,0.31-0.63,0.55
	c-0.41,0.68-0.99,1.1-1.74,1.26c-0.26,0.05-0.46,0.2-0.59,0.44c-0.65,1.2-1.7,1.79-3.15,1.78c-0.01,0-0.07,0.04-0.22,0.1
	c-0.11,0.05-0.13,0.13-0.07,0.24c0.1,0.16,0.05,0.21-0.12,0.16c-0.19-0.06-0.35-0.31-0.49-0.76l-0.01-12.46l2.42-1.11
	c0.22-0.1,0.4-0.23,0.57-0.4c4.48-4.43,7.84-7.52,10.09-9.27C128.06,164.55,130.46,163.37,133.72,162.18z"/>
<path class="st49" d="M167.09,168.72c-3.91,4.28-6.31,9.47-7.18,15.57c-1.63,0.07-3.23,0.3-4.79,0.68c-4.1,1-8.07,1.13-12.07,2.44
	l0.04-11.81c5.03-1.42,9.81-3.31,14.32-5.69c1.25-0.65,2.56-1.1,3.92-1.33c1.58-0.27,3.16-0.58,4.76-0.93
	c0.23-0.05,0.38,0.04,0.43,0.27C166.61,168.24,166.8,168.51,167.09,168.72z"/>
<path class="st49" d="M205.11,192.22c-2.7-0.95-5.3-2.1-7.81-3.44c-0.85-0.46-1.45-1.42-2.8-1.26c-0.24,0.03-0.47-0.01-0.7-0.11
	c-1.93-0.91-3.93-1.62-6-2.13c-0.08-0.02-0.16-0.07-0.2-0.15l-0.19-0.31c-0.1-0.17-0.24-0.28-0.43-0.32
	c-2.52-0.64-4.76-1.98-7.22-2.35c-2.95-0.45-5.95-0.86-9-1.23C180.3,160.15,210.3,170.37,205.11,192.22z"/>
<path class="st49" d="M133.26,177.78l0.04,2.78l-0.21,3.05c-0.01,0.26-0.14,0.46-0.37,0.57c-3.18,1.61-6.37,3.2-9.57,4.77
	c-1.69,0.83-3.98,1.33-5.75,3.1c-0.65,0.65-1.96,1.14-3.94,1.46l-0.02-2.92l0.01-1.59c0.14,0.44,0.31,0.7,0.49,0.76
	c0.17,0.05,0.22,0,0.12-0.16c-0.07-0.11-0.05-0.19,0.07-0.24c0.14-0.07,0.21-0.1,0.22-0.1c1.45,0.01,2.5-0.58,3.15-1.78
	c0.13-0.24,0.33-0.39,0.59-0.44c0.75-0.16,1.33-0.58,1.74-1.26c0.15-0.25,0.36-0.43,0.63-0.55l7.19-3.2
	c0.05-0.02,0.04-0.1-0.01-0.11l-0.28-0.04c-0.04-0.01-0.04-0.06-0.01-0.07l3.67-1.71c0.12-0.06,0.26-0.09,0.4-0.09
	C132.67,179.97,133.28,179.22,133.26,177.78z"/>
<path class="st49" d="M261.69,197.69c0.05,8.02,0.05,16.38,0,25.08c-0.08,15.84-3.83,28.71-19.07,35.82l-1.83-8.14
	c-0.04-0.19-0.13-0.22-0.27-0.07l-0.18,0.18c-0.08,0.08-0.22,0.03-0.22-0.08c-0.59-6.9-2.55-13.21-5.86-18.91
	c4.63-5.94,7.09-12.62,7.4-20.04c0.4-9.69,0.52-20.56,0.35-32.62c0.1,0.34,0.28,0.31,0.52-0.09c0.13-0.22,0.31-0.32,0.56-0.31
	c3.03,0.12,7.23,5.47,10.15,8.85c0.05,0.07,0.04,0.12-0.04,0.14l-0.23,0.08c-0.01,0.01-0.01,0.01-0.01,0.02
	c1.73,1.99,3.01,3.37,4.42,5.97C258.43,195.5,259.87,196.88,261.69,197.69z"/>
<path class="st50" d="M133.3,180.56l-0.16,14.24c-1.52,1.51-3.28,2.5-5.27,2.98c-0.24,0.05-0.46,0.18-0.63,0.35
	c-1.63,1.63-3.56,2.7-5.79,3.19c-0.06,0.02-0.12-0.02-0.14-0.07c-0.02-0.06,0.01-0.13,0.06-0.16c0.1-0.05,0.18-0.13,0.23-0.21
	c0.09-0.13,0.05-0.18-0.1-0.14c-2.17,0.58-3.53,1.84-5.35,3c-0.67,0.43-1.3,0.92-1.89,1.48c-0.15,0.14-0.26,0.12-0.34-0.07
	c-0.14-0.34-0.29-0.4-0.46-0.19l0.01-11.45c1.98-0.32,3.29-0.81,3.94-1.46c1.77-1.77,4.06-2.26,5.75-3.1
	c3.2-1.57,6.39-3.16,9.57-4.77c0.23-0.11,0.36-0.31,0.37-0.57L133.3,180.56z"/>
<path class="st50" d="M170.76,180.9c3.04,0.37,6.04,0.78,9,1.23c2.46,0.37,4.7,1.71,7.22,2.35c0.19,0.04,0.33,0.15,0.43,0.32
	l0.19,0.31c0.04,0.07,0.12,0.13,0.2,0.15c2.07,0.51,4.07,1.22,6,2.13c0.22,0.1,0.46,0.14,0.7,0.11c1.36-0.16,1.95,0.8,2.8,1.26
	c2.5,1.34,5.11,2.49,7.81,3.44c-0.71,2.74-1.99,5.19-3.84,7.34c-0.26-0.14-0.59,0-0.97,0.43c-0.22,0.23-0.29,0.19-0.22-0.11
	l0.08-0.39c0.07-0.32-0.12-0.42-0.58-0.28c-0.21,0.07-0.39-0.04-0.53-0.34c-0.08-0.17-0.22-0.32-0.4-0.41
	c-3.93-2.11-11.34-6.75-17.05-7.82c-0.23-0.04-0.45-0.13-0.64-0.27c-0.92-0.65-1.94-0.9-3.06-0.74c-0.25,0.04-0.5,0-0.73-0.1
	c-2.44-1.09-5.03-1.79-7.75-2.08C169.49,185.27,169.94,183.1,170.76,180.9z"/>
<path class="st51" d="M159.91,184.28c-0.41,2.67-0.28,5.67,0.42,9.01c-3.26,0.15-6.17,0.82-9.58,0.95c-2.48,0.09-5.05,0.57-7.7,1.45
	v-8.28c4-1.31,7.96-1.44,12.07-2.44C156.68,184.58,158.28,184.36,159.91,184.28z"/>
<path class="st51" d="M169.41,187.43c2.72,0.29,5.31,0.99,7.75,2.08c0.22,0.1,0.48,0.14,0.73,0.1c1.12-0.16,2.14,0.09,3.06,0.74
	c0.19,0.13,0.41,0.22,0.64,0.27c5.71,1.07,13.12,5.71,17.05,7.82c0.17,0.09,0.31,0.24,0.4,0.41c0.14,0.3,0.32,0.41,0.53,0.34
	c0.46-0.14,0.64-0.04,0.58,0.28l-0.08,0.39c-0.07,0.31,0.01,0.34,0.22,0.11c0.38-0.43,0.71-0.57,0.97-0.43
	C189.22,211.9,170.14,204.53,169.41,187.43z"/>
<path class="st42" d="M113.43,190.58l0.02,2.92l-0.01,11.45l0.02,3.57l0.16,18.73c0.08,5.3,1.03,10.37,2.84,15.21l2.82,5.18
	c-17.41,10.67-35,20.96-52.75,30.87c-9.05,5.04-17.46,10.46-24.36-1.37c-0.13-0.22-0.11-0.43,0.03-0.64
	c2.71-3.85,4.4-9.82,9.07-11.59c0.22-0.08,0.34-0.31,0.28-0.54c-0.72-2.8-2.44-6.88-1.97-9.67c0.47-2.78,2.57-6.12,4.13-8.41
	c0.39-0.58,0.01-1.36-0.68-1.42c-4.92-0.44-9.22-1.72-11.01-6.85c-0.07-0.22-0.06-0.43,0.04-0.64c2.43-5.12,5.38-8.71,10.51-11.68
	C72.85,213.96,93.13,202.25,113.43,190.58z"/>
<path class="st52" d="M160.33,193.29c0.77,4.39,2.92,8.73,6.45,13.03c-3.95,0.68-7.97,0.84-12.06,0.46
	c-4.12-0.37-7.51,0.32-11.44,0.79l-0.23-11.88c2.65-0.88,5.22-1.36,7.7-1.45C154.16,194.12,157.07,193.44,160.33,193.29z"/>
<path class="st51" d="M133.14,194.8l0.16,5.61c-4.59,0.61-8.09,2.68-11.86,4.65c-1.43,0.74-2.79,1.61-4.07,2.62
	c-0.13,0.1-0.19,0.07-0.19-0.09c0-0.08,0-0.17,0.01-0.27c0.01-0.24-0.1-0.31-0.31-0.2l-2.85,1.37c-0.1,0.05-0.16,0.02-0.16-0.1
	c0-0.1-0.01-0.19-0.03-0.27c-0.07-0.31-0.13-0.31-0.18,0.01c-0.04,0.2-0.1,0.34-0.18,0.4l-0.02-3.57c0.17-0.21,0.32-0.14,0.46,0.19
	c0.08,0.19,0.19,0.21,0.34,0.07c0.59-0.56,1.22-1.06,1.89-1.48c1.82-1.15,3.18-2.42,5.35-3c0.16-0.04,0.19,0.01,0.1,0.14
	c-0.05,0.08-0.13,0.16-0.23,0.21c-0.05,0.03-0.08,0.1-0.06,0.16c0.02,0.05,0.08,0.09,0.14,0.07c2.23-0.49,4.16-1.55,5.79-3.19
	c0.17-0.17,0.39-0.3,0.63-0.35C129.86,197.3,131.62,196.31,133.14,194.8z"/>
<path class="st52" d="M133.3,200.41c-0.1,5.96,0.25,11.67,1.03,17.13c-2.05-0.46-4.19,0.05-6.43,1.51c-0.08,0.05-0.15,0.11-0.2,0.19
	c-0.13,0.16-0.09,0.23,0.12,0.21l0.41-0.06c0.46-0.07,0.49,0.04,0.13,0.32c-2.46,1.84-5.02,3.55-7.67,5.1
	c-0.1,0.06-0.21-0.06-0.15-0.16l0.14-0.25c0.15-0.25,0.1-0.31-0.16-0.18l-3.27,1.57c-0.03,0.01-0.07-0.01-0.07-0.04
	c0-0.07,0-0.15,0-0.22c0-0.1-0.11-0.15-0.19-0.08l-2.45,2.18c-0.17,0.15-0.22,0.34-0.16,0.55c0.07,0.28,0.02,0.44-0.18,0.51
	c0.13-0.7-0.06-1.18-0.56-1.43l-0.16-18.73c0.08-0.06,0.14-0.19,0.18-0.4c0.05-0.31,0.11-0.31,0.18-0.01
	c0.02,0.08,0.03,0.17,0.03,0.27c0.01,0.11,0.06,0.15,0.16,0.1l2.85-1.37c0.22-0.1,0.32-0.04,0.31,0.2c-0.01,0.1-0.01,0.19-0.01,0.27
	c0,0.16,0.06,0.19,0.19,0.09c1.28-1.01,2.64-1.88,4.07-2.62C125.2,203.09,128.71,201.02,133.3,200.41z"/>
<path class="st50" d="M212.39,200.41c4.45-0.25,14.08,12.45,16.35,15.9c0.52,0.79,1.18,1,2.05,1c-0.52,2.2-1.59,4.48-3.2,6.81
	c-4.79-6.94-8.47-11.57-11.05-13.9c-2.16-1.94-4.32-3.94-6.47-6L212.39,200.41z"/>
<path class="st51" d="M210.06,204.22c2.15,2.05,4.31,4.06,6.47,6c2.58,2.33,6.26,6.97,11.05,13.9c-2.24,3.05-5.52,5.25-9.83,6.59
	c-2.05-3.49-5.14-7.59-9.25-12.29c-0.97-1.09-1.76-1.84-2.38-2.23c-0.22-0.13-0.39-0.3-0.52-0.51c-1.1-1.64-2.59-2.85-4.49-3.63
	C204.67,210.03,207.66,207.42,210.06,204.22z"/>
<path class="st53" d="M166.78,206.32c6.59,7.06,14.96,10.03,25.1,8.93l1.05,0.04c0.26,0.01,0.38,0.15,0.37,0.4
	c-0.07,2.65,4.54,5.04,6.16,6.72c2.87,2.98,5.8,6.16,8.79,9.56l-12.56,0.1c-0.79-0.34-1.39-0.96-1.81-1.88
	c-0.1-0.22-0.27-0.36-0.5-0.43c-2.24-0.62-3.52-2.95-5.82-3.14c-0.25-0.02-0.47-0.09-0.68-0.22c-2.35-1.43-5.31-1.78-7.17-2.39
	c-1.93-0.64-3.89-1.19-5.88-1.68c-0.04-0.01-0.07-0.05-0.05-0.09c0.02-0.07,0.04-0.13,0.07-0.19c0.05-0.14,0-0.22-0.16-0.23
	c-0.83-0.05-1.54-0.34-2.12-0.88c-0.17-0.16-0.37-0.28-0.59-0.34c-3.65-1.15-7.37-1.95-11.17-2.41c-0.22-0.02-0.42,0.02-0.61,0.14
	c-0.83,0.54-5.17-0.71-7.14,0.07c-0.23,0.09-0.46,0.12-0.71,0.1c-2.29-0.26-4.45-0.1-6.48,0.49c-1.06-3.5-1.58-7.31-1.57-11.44
	c3.92-0.46,7.31-1.16,11.44-0.79C158.81,207.16,162.83,207,166.78,206.32z"/>
<path class="st52" d="M201.1,212.05c1.9,0.78,3.39,1.99,4.49,3.63c0.13,0.21,0.31,0.38,0.52,0.51c0.62,0.39,1.42,1.13,2.38,2.23
	c4.12,4.7,7.2,8.8,9.25,12.29c-3.4,0.91-6.56,1.33-9.5,1.27c-2.98-3.4-5.92-6.58-8.79-9.56c-1.62-1.68-6.24-4.06-6.16-6.72
	c0.01-0.25-0.11-0.39-0.37-0.4l-1.05-0.04C195.25,214.68,198.32,213.61,201.1,212.05z"/>
<path class="st54" d="M134.33,217.54c0.98,4.5,2.64,8.43,4.96,11.78l-0.01,1.12c0,0.3-0.14,0.49-0.43,0.58l-5.33,1.52
	c-0.03,0.01-0.03,0.02-0.01,0.04l0.18,0.16c0.06,0.05,0.04,0.15-0.04,0.18c-4.15,1.57-8.09,3.55-11.83,5.95
	c-1.64,1.04-3.67,1-4.77,3.2c-0.02,0.05-0.07,0.07-0.13,0.05c-0.07-0.02-0.15-0.05-0.23-0.08c-0.02-0.01-0.04,0.01-0.04,0.03
	c0,0.25-0.06,0.39-0.19,0.4c-1.81-4.84-2.76-9.91-2.84-15.21c0.5,0.25,0.69,0.73,0.56,1.43c0.19-0.07,0.25-0.23,0.18-0.51
	c-0.06-0.22-0.01-0.4,0.16-0.55l2.45-2.18c0.07-0.07,0.19-0.02,0.19,0.08c0,0.07,0,0.15,0,0.22c0,0.04,0.04,0.06,0.07,0.04
	l3.27-1.57c0.26-0.13,0.31-0.07,0.16,0.18l-0.14,0.25c-0.06,0.1,0.05,0.22,0.15,0.16c2.65-1.55,5.21-3.25,7.67-5.1
	c0.37-0.28,0.33-0.39-0.13-0.32l-0.41,0.06c-0.21,0.02-0.25-0.04-0.12-0.21c0.05-0.07,0.12-0.13,0.2-0.19
	C130.14,217.59,132.28,217.08,134.33,217.54z"/>
<path class="st54" d="M195.7,232.08c-3.62,0.4-7.25,0.39-10.89-0.01c-2.47-0.29-3.76,0.3-5.74-0.74
	c-7.29-3.82-17.78-4.56-26.31-2.63c-3.61-2.2-6.24-5.43-7.89-9.7c2.02-0.58,4.18-0.75,6.48-0.49c0.25,0.02,0.48-0.01,0.71-0.1
	c1.97-0.79,6.31,0.46,7.14-0.07c0.19-0.12,0.39-0.16,0.61-0.14c3.8,0.46,7.52,1.26,11.17,2.41c0.22,0.07,0.42,0.19,0.59,0.34
	c0.58,0.53,1.29,0.82,2.12,0.88c0.16,0.01,0.21,0.09,0.16,0.23c-0.02,0.06-0.05,0.12-0.07,0.19c-0.01,0.04,0.01,0.08,0.05,0.09
	c1.99,0.49,3.94,1.04,5.88,1.68c1.86,0.61,4.82,0.96,7.17,2.39c0.21,0.13,0.43,0.19,0.68,0.22c2.29,0.19,3.58,2.52,5.82,3.14
	c0.23,0.07,0.4,0.21,0.5,0.43C194.31,231.12,194.91,231.75,195.7,232.08z"/>
<path class="st55" d="M184.81,232.08c-10.96,0.47-23.52,1.1-32.06-3.37c8.53-1.93,19.03-1.19,26.31,2.63
	C181.04,232.38,182.33,231.78,184.81,232.08z"/>
<path class="st55" d="M139.3,229.32c2.71,3.85,6.46,6.97,11.24,9.37c-2.57,0.82-5.08,1.54-7.51,2.2c-5.94,1.59-12.74,3.81-17.79,7.2
	c-0.2,0.14-0.43,0.22-0.67,0.26c-1.22,0.19-2.36,0.71-3.42,1.57l-1.85-2.26l-2.82-5.18c0.13-0.01,0.19-0.14,0.19-0.4
	c0-0.02,0.01-0.04,0.04-0.03c0.08,0.03,0.16,0.06,0.23,0.08c0.06,0.02,0.1,0,0.13-0.05c1.1-2.2,3.13-2.16,4.77-3.2
	c3.74-2.39,7.69-4.37,11.83-5.95c0.07-0.03,0.1-0.13,0.04-0.18l-0.18-0.16c-0.02-0.02-0.02-0.04,0.01-0.04l5.33-1.52
	c0.29-0.08,0.43-0.28,0.43-0.58L139.3,229.32z"/>
<path class="st50" d="M234.26,231.56c3.31,5.71,5.26,12.01,5.86,18.91c0.01,0.11,0.14,0.16,0.22,0.08l0.18-0.18
	c0.14-0.14,0.23-0.11,0.27,0.07l1.83,8.14l-4.35,1.57c-0.86-3.94-1.51-7.87-1.93-11.76c-0.23-2.12-0.66-4.03-1.28-5.72
	c-1.04-2.86-2.15-5.73-3.33-8.61L234.26,231.56z"/>
<path class="st51" d="M231.72,234.07c1.18,2.88,2.29,5.75,3.33,8.61c0.62,1.69,1.05,3.6,1.28,5.72c0.43,3.89,1.07,7.81,1.93,11.76
	l-7.95,1.26c-0.07-1.75-0.62-3.47-1.65-5.16c-1.71-2.83-2.28-5.29-3.52-8.12c-0.37-0.86-0.72-2.06-1.03-3.6
	c-0.44-2.2-1.39-3.77-2.86-4.69C224.63,238.96,228.12,237.03,231.72,234.07z"/>
<path class="st56" d="M150.54,238.69c4.18,1.63,8.26,2.62,12.24,2.97c3.61,0.31,9.85,0.46,18.72,0.44l-2.4,0.5
	c-0.34,0.07-0.37,0.19-0.06,0.37l5.7,3.22c0.09,0.05,0.13,0.02,0.13-0.07c0-0.07-0.01-0.14-0.05-0.21c-0.1-0.17-0.07-0.22,0.09-0.13
	l5.77,3.16c0.09,0.04,0.07,0.18-0.02,0.21c-0.07,0.02-0.14,0.05-0.21,0.07c-0.11,0.04-0.12,0.09-0.04,0.17
	c0.57,0.53,1.68,1.33,3.32,2.37c2.41,1.54,5.02,4.81,8.29,7.6c0.78,0.67,0.88,1.46,0.31,2.39h-6.94l-7.65-5.83
	c-0.02-0.01-0.04-0.01-0.06-0.01c-0.07,0.04-0.13,0.09-0.16,0.14c-0.06,0.09-0.13,0.1-0.22,0.04c-3.22-2.49-6.28-4.55-10.44-5.55
	c-3.97-0.95-7.59-2.57-11.72-2.87c-1.07-0.07-1.77,0.38-3.05,0.19c-8.95-1.37-20.74,1.57-28.84,5.41c-1.71,0.81-2.77,2.31-5.05,2.96
	l-5.35-4.29l-1.69-2.03c1.06-0.85,2.2-1.38,3.42-1.57c0.25-0.04,0.47-0.12,0.67-0.26c5.05-3.39,11.85-5.61,17.79-7.2
	C145.46,240.24,147.96,239.51,150.54,238.69z"/>
<path class="st52" d="M221.27,239.85c1.46,0.92,2.41,2.49,2.86,4.69c0.31,1.54,0.65,2.74,1.03,3.6c1.24,2.83,1.81,5.29,3.52,8.12
	c1.03,1.69,1.58,3.41,1.65,5.16l-9.67,0.34c-1.51-2.89-1.31-4.75-4.1-7.63c-0.16-0.17-0.25-0.38-0.25-0.61
	c0.01-0.44-0.16-0.77-0.48-0.98c-1.71-1.11-2.86-3.2-3.4-5.13c-0.05-0.2-0.22-0.37-0.42-0.43c-0.79-0.22-1.14-0.73-1.04-1.54
	c0.13-1.12-0.79-2.1-1.95-2.08c-0.62,0.01-1.07-0.5-1.36-1.51C212.16,241.87,216.7,241.2,221.27,239.85z"/>
<path class="st54" d="M207.66,241.85c0.28,1.01,0.73,1.52,1.36,1.51c1.16-0.01,2.08,0.97,1.95,2.08c-0.1,0.8,0.25,1.31,1.04,1.54
	c0.2,0.06,0.37,0.22,0.42,0.43c0.53,1.93,1.69,4.02,3.4,5.13c0.32,0.21,0.49,0.54,0.48,0.98c0,0.23,0.08,0.44,0.25,0.61
	c2.79,2.87,2.59,4.73,4.1,7.63l-8.17-0.01c0.1-1.24-0.31-2.3-1.2-3.18c-0.19-0.19-0.3-0.42-0.33-0.68c-0.13-1.15-0.67-2-1.65-2.57
	c-0.23-0.13-0.4-0.34-0.47-0.6c-0.34-1.24-1.1-2.12-2.26-2.65c-0.28-0.13-0.52-0.31-0.73-0.53l-1.67-1.87
	c-0.01-0.01-0.01-0.01,0.01-0.02c0.07-0.02,0.13-0.04,0.2-0.07c0.16-0.04,0.18-0.12,0.04-0.23c-1.5-1.19-3.66-3.76-5.38-4.3
	c-0.08-0.02-0.15-0.08-0.19-0.16l-1.04-1.84c-0.09-0.16-0.06-0.35,0.07-0.48c0.19-0.19,0.42-0.34,0.68-0.46L207.66,241.85z"/>
<path class="st55" d="M181.49,242.1h17.07c-0.26,0.12-0.49,0.28-0.68,0.46c-0.13,0.13-0.16,0.32-0.07,0.48l1.04,1.84
	c0.04,0.07,0.11,0.14,0.19,0.16c1.72,0.53,3.88,3.1,5.38,4.3c0.13,0.11,0.12,0.19-0.04,0.23c-0.07,0.02-0.13,0.04-0.2,0.07
	c-0.01,0.01-0.01,0.02-0.01,0.02l1.67,1.87c0.2,0.22,0.45,0.4,0.73,0.53c1.16,0.53,1.92,1.42,2.26,2.65
	c0.07,0.25,0.24,0.47,0.47,0.6c0.97,0.57,1.52,1.42,1.65,2.57c0.03,0.26,0.14,0.49,0.33,0.68c0.89,0.88,1.3,1.93,1.2,3.18h-10.16
	c0.58-0.93,0.47-1.72-0.31-2.39c-3.27-2.8-5.88-6.07-8.29-7.6c-1.64-1.04-2.75-1.84-3.32-2.37c-0.08-0.08-0.07-0.13,0.04-0.17
	c0.07-0.02,0.14-0.05,0.21-0.07c0.1-0.03,0.11-0.16,0.02-0.21l-5.77-3.16c-0.16-0.09-0.19-0.04-0.09,0.13
	c0.04,0.07,0.05,0.13,0.05,0.21c0,0.1-0.04,0.13-0.13,0.07l-5.7-3.22c-0.31-0.17-0.28-0.29,0.06-0.37L181.49,242.1z"/>
<path class="st57" d="M195.38,261.76c-0.08,0.19-0.23,0.25-0.45,0.18l-16.59-0.13c-9.61-0.03-19.17-0.1-28.68-0.2
	c-7.92-0.09-14.62-1.08-21.48-5.37c2.28-0.65,3.34-2.15,5.05-2.96c8.11-3.84,19.9-6.79,28.84-5.41c1.28,0.19,1.98-0.26,3.05-0.19
	c4.13,0.3,7.75,1.92,11.72,2.87c4.15,1,7.21,3.06,10.44,5.55c0.08,0.07,0.16,0.05,0.22-0.04c0.04-0.05,0.09-0.1,0.16-0.14
	c0.02-0.01,0.04-0.01,0.06,0.01L195.38,261.76z"/>
<path class="st42" d="M122.83,251.95l5.35,4.29c6.85,4.29,13.56,5.28,21.48,5.37c9.52,0.1,19.08,0.17,28.68,0.2
	c-18.27,9.93-36.22,20.35-53.86,31.26c-7.54,4.67-20.98,13.51-27.75,9.88c-0.67-0.35-1.63-1.24-2.88-2.64
	c-1.63-1.82-3.62-3.18-5.98-4.06c-0.21-0.08-0.45-0.06-0.64,0.06c-6.79,4.09-24.35,17.2-29.25,3.25
	c-2.28-6.49,6.39-11.65,11.37-14.95C86.76,273.04,104.87,262.7,122.83,251.95z"/>
</svg>
