<?xml version="1.0" encoding="utf-8"?>
<!-- Generator: Adobe Illustrator 27.7.0, SVG Export Plug-In . SVG Version: 6.00 Build 0)  -->
<svg version="1.1" id="Layer_1" xmlns="http://www.w3.org/2000/svg" xmlns:xlink="http://www.w3.org/1999/xlink" x="0px" y="0px"
	 viewBox="0 0 375 375" style="enable-background:new 0 0 375 375;" xml:space="preserve">
<style type="text/css">
	.st0{fill:none;}
	.st1{fill:#206D8C;}
</style>
<g>
	<line class="st0" x1="112.86" y1="99.38" x2="111.71" y2="99.92"/>
	<path class="st0" d="M111.71,99.92c-2.67,1.67-5.36,3.28-8.08,4.81c-21.18,11.98-42.3,24.06-63.37,36.26
		c-7.71,4.46-17.51,9.53-29.4,15.19c-3.85,1.84-8.95,5.77-9.86,9.97c-0.84,3.82,4.99,7.63,7.8,8.31c5.47,1.31,11.29-1.75,16.52-4.33
		c13.42-6.65,26.84-13.32,40.25-20c4.44-2.21,8.78-4.06,13.03-5.55c2.12-0.74,2.4-0.31,0.84,1.31c-1.07,1.12-2.85,2.45-5.33,4
		c-14.18,8.85-28.4,17.62-42.66,26.32c-2.08,1.27-4.33,2.96-6.76,5.07c-3.85,3.35-7.3,5.68-3.34,10.54
		c4.98,6.09,11.27,5.2,17.35,1.42c18.39-11.44,37.18-22.29,56.38-32.57"/>
	<line class="st0" x1="95.07" y1="160.67" x2="94.97" y2="166.8"/>
	<path class="st0" d="M94.97,166.8c-18.76,10.4-37.5,20.62-56.21,30.64c-6.81,3.65-12.32,6.92-17.62,11.22
		c-1.67,1.36-2.56,3.19-2.67,5.52c-0.01,0.24,0.06,0.46,0.22,0.64c2.97,3.61,5.53,7.47,11.02,5.46c4.15-1.51,8.16-3.34,12.03-5.49
		c17.67-9.77,35.43-19.46,53.3-29.06"/>
	<line class="st0" x1="95.03" y1="185.74" x2="95.07" y2="201.15"/>
	<path class="st0" d="M95.07,201.15c-13.86,7.99-27.6,15.92-41.24,23.82c-5.89,3.41-9.1,6.58-11.74,12.46
		c-0.1,0.21-0.1,0.43-0.03,0.64c1.73,5.05,6.14,6.37,10.99,6.79c0.7,0.06,1.07,0.85,0.68,1.42c-1.56,2.3-3.66,5.64-4.13,8.42
		c-0.47,2.8,1.25,6.88,1.97,9.67c0.05,0.22-0.07,0.46-0.28,0.54c-4.67,1.78-6.37,7.75-9.07,11.6c-0.14,0.2-0.16,0.41-0.03,0.63
		c6.97,11.94,15.37,6.29,24.24,1.4c10.71-5.9,21.35-12,31.92-18.29"/>
	<line class="st0" x1="98.34" y1="260.26" x2="100.98" y2="264.86"/>
	<path class="st0" d="M100.98,264.86c-10.61,6.25-20.94,12.67-30.99,19.27c-5.08,3.34-14.32,8.83-12.01,15.42
		c4.9,13.95,22.46,0.85,29.25-3.25c0.19-0.12,0.43-0.14,0.64-0.06c2.38,0.89,4.39,2.26,6.03,4.1c1.2,1.36,2.12,2.21,2.77,2.56
		c6.69,3.62,19.62-4.84,27.1-9.4c7.09-4.32,14.29-8.73,21.6-13.24"/>
	<line class="st0" x1="145.37" y1="280.28" x2="167.65" y2="280.15"/>
	<path class="st0" d="M167.65,280.15l-2.87,7.23c-0.09,0.22-0.04,0.49,0.14,0.66c1.07,1.05,1.69,1.75,2.57,3.15
		c7.11,11.2,27.54-1.46,35.73-4.92c0.3-0.13,0.58,0.19,0.44,0.47c-2.21,4.34-4.06,8.84-5.53,13.49c-0.07,0.23-0.06,0.46,0.02,0.68
		c6.92,18.24,28.22,2.92,38.92-0.57c0.37-0.13,0.72,0.26,0.55,0.62c-3.06,6.48-3.02,8.7,3.07,13.06c0.21,0.15,0.44,0.21,0.7,0.19
		c7.54-0.66,14.63-3.13,21.3-7.43c22.97-14.8,44.24-29.17,63.82-43.11c7.53-5.36,12-7.84,11.74-16.77
		c-0.01-0.19-0.08-0.39-0.21-0.53l-8.18-9.26c-0.16-0.19-0.37-0.27-0.61-0.26c-4.72,0.23-9.28,1.16-13.72,2.79
		c-0.55,0.2-1.39,0.24-2.53,0.11c-0.29-0.04-0.37-0.18-0.22-0.43c1.55-2.83,5.17-9.55,3.06-12.55c-2.93-4.15-6.34-7.78-10.21-10.89
		c-0.28-0.22-0.25-0.66,0.05-0.85c12.94-8.1,26.53-15.91,36.76-26.67c8.14-8.56-1.88-15.5-7.62-20.79c-0.2-0.19-0.22-0.38-0.05-0.59
		c0.84-1.06,1.7-2.25,2.92-2.94c9.61-5.47,17.43-10.18,23.44-14.14c7.88-5.19-0.19-14.79-4.06-19.45c-0.17-0.2-0.2-0.42-0.09-0.67
		c1.42-3.13,2.59-6.08,1.23-8.96c-0.89-1.9-2.77-5.47-5.62-10.72c-0.13-0.23-0.08-0.43,0.13-0.58c4.02-2.86,8.02-5.75,12-8.67
		c6.23-4.55,9.49-8.26,9.7-15.73c0.01-0.25-0.07-0.5-0.22-0.7l-4.15-5.59c-0.14-0.19-0.33-0.29-0.56-0.31
		c-5.44-0.51-10.19-0.4-15.61,1.43c-9.04,3.05-19.78,6.78-32.22,11.17c-1.44,0.5-2.86,0.34-4.28-0.48c-0.2-0.11-0.26-0.36-0.16-0.55
		c3.98-7.26,2.77-18.72-6.39-20.84c-4.21-0.97-10.86,0.58-15.83,1.06c-0.23,0.02-0.46-0.07-0.62-0.24
		c-7.58-8.42-12.82-9.13-23.61-6.01c-15.29,4.44-29.24,8.8-41.85,13.08c-5.4,1.83-7.53-4.69-13.33-3.04
		c-8.8,2.5-17.58,5.02-26.34,7.59c-3.48,1.01-6.31,2.08-10.08,2.41c-0.31,0.03-0.44-0.4-0.16-0.55c1.91-0.97,3.72-2.19,5.41-3.67
		c4.27-3.74,0.75-8.69-3.46-10.04c-0.98-0.31-2.28-0.4-3.89-0.27c-8.59,0.73-16.04,2.88-22.36,6.46
		c-12.82,7.25-25.74,15.37-39.02,21.69c-0.97,0.46-2.08,0.43-2.83,1.66"/>
	<path class="st0" d="M167.65,280.15c26.01-0.02,52.05-0.02,78.13-0.01c19.38,0,34.41-15.9,34.39-35.06
		c-0.04-38-0.07-76-0.08-113.99c-0.01-3.55-0.18-7.88-1.36-11.39c-4.48-13.39-16.62-24.46-31.45-24.43
		c-24.36,0.05-48.71,0.02-73.07-0.09c-15.33-0.07-30.66,0.21-45.98,0.12c-4.62-0.03-8.73,0.92-12.33,2.85
		c-1.32,0.7-2.33,1.12-3.04,1.23"/>
	<path class="st0" d="M145.37,280.28c-7.66-0.23-16.86,0.48-23.3-0.91c-8.74-1.9-15.78-6.73-21.09-14.5"/>
	<path class="st0" d="M98.34,260.26c-1.99-3.64-3.02-7.7-3.08-12.18c-0.22-15.44-0.28-31.08-0.18-46.93"/>
	<line class="st0" x1="95.03" y1="185.74" x2="94.97" y2="166.8"/>
	<path class="st0" d="M95.07,160.67c-0.06-9.24-0.04-18.5,0.04-27.79c0.05-5.74,0.47-10.03,1.25-12.84
		c2.25-8.15,7.2-14.59,14.86-19.31c0.35-0.22,0.52-0.49,0.49-0.81"/>
	<line class="st0" x1="128.16" y1="144.19" x2="126.39" y2="150.24"/>
	<path class="st0" d="M126.39,150.24c-1.01,5.77-0.44,11.65,1.71,17.65"/>
	<line class="st0" x1="128.1" y1="167.88" x2="131.32" y2="176.78"/>
	<path class="st0" d="M131.32,176.78c-0.25,0.94-0.02,1.6,0.68,1.98"/>
	<path class="st0" d="M132.01,178.76c-0.12,0.3-0.02,0.64,0.28,1"/>
	<path class="st0" d="M132.29,179.76c6.73,16.49,17.75,30.58,31,42.47"/>
	<line class="st0" x1="163.29" y1="222.24" x2="166.39" y2="224.95"/>
	<path class="st0" d="M166.39,224.95c10.26,8.97,21.93,15.67,35.01,20.09c1.56,0.52,3.32,1.29,5.29,2.29
		c0.16,0.08,0.33,0.1,0.5,0.05l0.36-0.1"/>
	<line class="st0" x1="207.55" y1="247.29" x2="207.91" y2="247.37"/>
	<path class="st0" d="M207.91,247.37c0.29,0.52,0.86,0.67,1.71,0.45"/>
	<line class="st0" x1="209.61" y1="247.82" x2="215.69" y2="248.97"/>
	<path class="st0" d="M215.69,248.97c7.65,1.39,16.91-2.01,23.34-5.82c5.59-3.31,8.78-8.1,9.58-14.36"/>
	<path class="st0" d="M248.61,228.79c0.47-1.12,0.68-2.5,0.64-4.12"/>
	<path class="st0" d="M249.26,224.67l-0.14-2.86c-0.01-0.25-0.11-0.46-0.29-0.62c-1.48-1.32-2.75-2.28-3.83-2.88
		c-7.65-4.22-15.27-8.53-22.86-12.9c-2.08-1.19-3.92-1.07-5.55,0.36c-1.69,1.48-5.41,5.58-11.15,12.29
		c-1.96,2.29-4.32,2.68-7.1,1.19c-4.6-2.47-8.38-4.69-11.33-6.67"/>
	<line class="st0" x1="187" y1="212.58" x2="184.22" y2="210.49"/>
	<path class="st0" d="M184.22,210.49c-7.62-5.17-14.36-11.98-20.23-20.45c-3.11-4.48-5.59-8.44-7.45-11.86
		c-1.38-2.53-2.35-5.31-0.04-7.75c4.03-4.25,9.3-7.12,12.76-11.82"/>
	<path class="st0" d="M169.26,158.6c3.37-2.83-0.37-7.85-2.86-11.39"/>
	<line class="st0" x1="166.4" y1="147.21" x2="158.94" y2="133.57"/>
	<line class="st0" x1="158.94" y1="133.57" x2="155.76" y2="128.32"/>
	<path class="st0" d="M155.76,128.32c-0.82-1.21-1.69-2.23-3.3-2.29c-13.64-0.46-19.94,6.61-24.3,18.16"/>
	<path class="st0" d="M155.76,128.32c-8.62,4.18-17.1,8.6-25.41,13.27c-1.31,0.73-1.48,1.36-2.19,2.6"/>
	<line class="st0" x1="158.94" y1="133.57" x2="126.39" y2="150.24"/>
	<line class="st0" x1="166.4" y1="147.21" x2="128.1" y2="167.88"/>
	<line class="st0" x1="169.26" y1="158.6" x2="132.29" y2="179.76"/>
	<line class="st0" x1="132.01" y1="178.76" x2="131.32" y2="176.78"/>
	<path class="st0" d="M184.22,210.49c-7,3.4-13.97,7.32-20.93,11.75"/>
	<path class="st0" d="M249.26,224.67l-41.78,21.62c-0.28,0.14-0.35,0.51-0.15,0.75l0.22,0.25"/>
	<line class="st0" x1="166.39" y1="224.95" x2="187" y2="212.58"/>
	<line class="st0" x1="248.61" y1="228.79" x2="215.69" y2="248.97"/>
	<path class="st0" d="M209.61,247.82c-0.55-0.41-1.12-0.56-1.71-0.45"/>
</g>
<path class="st1" d="M167.65,280.15c26.01-0.02,52.05-0.02,78.13-0.01c19.38,0,34.41-15.9,34.39-35.06c-0.04-38-0.07-76-0.08-113.99
	c-0.01-3.55-0.18-7.88-1.36-11.39c-4.48-13.39-16.62-24.46-31.45-24.43c-24.36,0.05-48.71,0.02-73.07-0.09
	c-15.33-0.07-30.66,0.21-45.98,0.12c-4.62-0.03-8.73,0.92-12.33,2.85c-1.32,0.7-2.33,1.12-3.04,1.23c0.75-1.23,1.87-1.21,2.83-1.66
	c13.27-6.33,26.19-14.44,39.02-21.69c6.32-3.58,13.78-5.73,22.36-6.46c1.61-0.14,2.91-0.04,3.89,0.27c4.21,1.35,7.73,6.3,3.46,10.04
	c-1.69,1.48-3.49,2.7-5.41,3.67c-0.28,0.14-0.16,0.58,0.16,0.55c3.76-0.33,6.6-1.4,10.08-2.41c8.77-2.56,17.55-5.09,26.34-7.59
	c5.8-1.64,7.93,4.87,13.33,3.04c12.61-4.28,26.55-8.64,41.85-13.08c10.79-3.13,16.03-2.41,23.61,6.01c0.16,0.17,0.39,0.26,0.62,0.24
	c4.97-0.48,11.62-2.03,15.83-1.06c9.16,2.12,10.37,13.58,6.39,20.84c-0.1,0.19-0.04,0.44,0.16,0.55c1.42,0.82,2.84,0.98,4.28,0.48
	c12.44-4.39,23.18-8.11,32.22-11.17c5.42-1.83,10.17-1.94,15.61-1.43c0.23,0.02,0.42,0.13,0.56,0.31l4.15,5.59
	c0.15,0.2,0.23,0.45,0.22,0.7c-0.22,7.48-3.47,11.18-9.7,15.73c-3.98,2.92-7.98,5.8-12,8.67c-0.22,0.16-0.26,0.35-0.13,0.58
	c2.85,5.24,4.72,8.82,5.62,10.72c1.36,2.88,0.19,5.83-1.23,8.96c-0.11,0.25-0.08,0.46,0.09,0.67c3.88,4.66,11.95,14.26,4.06,19.45
	c-6.01,3.96-13.83,8.67-23.44,14.14c-1.22,0.69-2.08,1.87-2.92,2.94c-0.16,0.21-0.15,0.4,0.05,0.59
	c5.74,5.29,15.76,12.22,7.62,20.79c-10.23,10.75-23.82,18.57-36.76,26.67c-0.31,0.19-0.33,0.62-0.05,0.85
	c3.87,3.1,7.27,6.73,10.21,10.89c2.11,2.99-1.51,9.72-3.06,12.55c-0.14,0.25-0.07,0.4,0.22,0.43c1.14,0.13,1.98,0.09,2.53-0.11
	c4.43-1.63,9-2.56,13.72-2.79c0.25-0.01,0.46,0.07,0.61,0.26l8.18,9.26c0.13,0.14,0.2,0.34,0.21,0.53
	c0.26,8.93-4.21,11.41-11.74,16.77c-19.57,13.94-40.85,28.32-63.82,43.11c-6.67,4.3-13.76,6.77-21.3,7.43
	c-0.25,0.02-0.49-0.04-0.7-0.19c-6.09-4.36-6.13-6.58-3.07-13.06c0.17-0.36-0.17-0.75-0.55-0.62c-10.7,3.49-32,18.81-38.92,0.57
	c-0.08-0.22-0.09-0.45-0.02-0.68c1.47-4.65,3.31-9.15,5.53-13.49c0.14-0.28-0.14-0.6-0.44-0.47c-8.18,3.46-28.62,16.12-35.73,4.92
	c-0.88-1.39-1.5-2.1-2.57-3.15c-0.18-0.17-0.23-0.43-0.14-0.66L167.65,280.15z"/>
<path d="M128.16,144.19l-1.77,6.04c-1.01,5.77-0.44,11.65,1.71,17.65l3.22,8.89c-0.25,0.94-0.02,1.6,0.68,1.98
	c-0.12,0.3-0.02,0.64,0.28,1c6.73,16.49,17.75,30.58,31,42.47l3.1,2.71c10.26,8.97,21.93,15.67,35.01,20.09
	c1.56,0.52,3.32,1.29,5.29,2.29c0.16,0.08,0.33,0.1,0.5,0.05l0.36-0.1l0.36,0.08c0.29,0.52,0.86,0.67,1.71,0.45l6.07,1.15
	c7.65,1.39,16.91-2.01,23.34-5.82c5.59-3.31,8.78-8.1,9.58-14.36c0.47-1.12,0.68-2.5,0.64-4.12l-0.14-2.86
	c-0.01-0.25-0.11-0.46-0.29-0.62c-1.48-1.32-2.75-2.28-3.83-2.88c-7.65-4.22-15.27-8.53-22.86-12.9c-2.08-1.19-3.92-1.07-5.55,0.36
	c-1.69,1.48-5.41,5.58-11.15,12.29c-1.96,2.29-4.32,2.68-7.1,1.19c-4.6-2.47-8.38-4.69-11.33-6.67l-2.77-2.09
	c-7.62-5.17-14.36-11.98-20.23-20.45c-3.11-4.48-5.59-8.44-7.45-11.86c-1.38-2.53-2.35-5.31-0.04-7.75
	c4.03-4.25,9.3-7.12,12.76-11.82c3.37-2.83-0.37-7.85-2.86-11.39l-7.45-13.64l-3.18-5.25c-0.82-1.21-1.69-2.23-3.3-2.29
	C138.82,125.57,132.52,132.65,128.16,144.19z M167.65,280.15l-22.28,0.13c-7.66-0.23-16.86,0.48-23.3-0.91
	c-8.74-1.9-15.78-6.73-21.09-14.5l-2.64-4.6c-1.99-3.64-3.02-7.7-3.08-12.18c-0.22-15.44-0.28-31.08-0.18-46.93l-0.04-15.41
	l-0.06-18.94l0.1-6.13c-0.06-9.24-0.04-18.5,0.04-27.79c0.05-5.74,0.47-10.03,1.25-12.84c2.25-8.15,7.2-14.59,14.86-19.31
	c0.35-0.22,0.52-0.49,0.49-0.81l1.15-0.54c0.71-0.11,1.72-0.52,3.04-1.23c3.6-1.93,7.71-2.88,12.33-2.85
	c15.32,0.09,30.65-0.19,45.98-0.12c24.36,0.11,48.71,0.14,73.07,0.09c14.83-0.03,26.97,11.05,31.45,24.43
	c1.18,3.51,1.35,7.84,1.36,11.39c0.01,38,0.04,76,0.08,113.99c0.02,19.16-15.01,35.06-34.39,35.06
	C219.7,280.14,193.66,280.14,167.65,280.15"/>
<path class="st1" d="M111.71,99.92c0.03,0.32-0.13,0.59-0.49,0.81c-7.66,4.72-12.61,11.16-14.86,19.31
	c-0.78,2.81-1.2,7.09-1.25,12.84c-0.08,9.29-0.1,18.55-0.04,27.79c-19.2,10.28-37.99,21.13-56.38,32.57
	c-6.07,3.78-12.37,4.67-17.35-1.42c-3.97-4.85-0.52-7.18,3.34-10.54c2.42-2.11,4.68-3.8,6.76-5.07
	c14.26-8.7,28.48-17.47,42.66-26.32c2.48-1.55,4.26-2.89,5.33-4c1.56-1.62,1.28-2.05-0.84-1.31c-4.24,1.48-8.59,3.34-13.03,5.55
	c-13.41,6.68-26.82,13.35-40.25,20c-5.23,2.59-11.05,5.65-16.52,4.33c-2.81-0.67-8.64-4.49-7.8-8.31c0.91-4.19,6.01-8.13,9.86-9.97
	c11.89-5.66,21.69-10.73,29.4-15.19c21.06-12.2,42.18-24.28,63.37-36.26C106.34,103.2,109.04,101.59,111.71,99.92z"/>
<path class="st1" d="M155.76,128.32c-8.62,4.18-17.1,8.6-25.41,13.27c-1.31,0.73-1.48,1.36-2.19,2.6
	c4.36-11.55,10.66-18.63,24.3-18.16C154.07,126.08,154.94,127.1,155.76,128.32z"/>
<path class="st1" d="M158.94,133.57l7.45,13.64l-38.3,20.68c-2.15-5.99-2.72-11.88-1.71-17.65L158.94,133.57z"/>
<path class="st1" d="M169.26,158.6c-3.46,4.7-8.74,7.57-12.76,11.82c-2.32,2.44-1.34,5.22,0.04,7.75c1.86,3.43,4.34,7.38,7.45,11.86
	c5.87,8.47,12.61,15.28,20.23,20.45c-7,3.4-13.97,7.32-20.93,11.75c-13.25-11.89-24.27-25.98-31-42.47L169.26,158.6z"/>
<path class="st1" d="M94.97,166.8l0.06,18.94c-17.86,9.6-35.63,19.29-53.3,29.06c-3.87,2.14-7.88,3.97-12.03,5.49
	c-5.49,2.01-8.05-1.84-11.02-5.46c-0.16-0.19-0.22-0.4-0.22-0.64c0.1-2.32,1-4.16,2.67-5.52c5.3-4.3,10.81-7.57,17.62-11.22
	C57.47,187.42,76.21,177.21,94.97,166.8z"/>
<path class="st1" d="M131.32,176.78l0.68,1.98C131.3,178.38,131.08,177.72,131.32,176.78z"/>
<path class="st1" d="M95.07,201.15c-0.1,15.85-0.04,31.49,0.18,46.93c0.06,4.48,1.09,8.53,3.08,12.18
	c-10.57,6.29-21.21,12.39-31.92,18.29c-8.87,4.89-17.27,10.54-24.24-1.4c-0.13-0.22-0.11-0.43,0.03-0.63
	c2.71-3.85,4.4-9.82,9.07-11.6c0.22-0.08,0.34-0.31,0.28-0.54c-0.72-2.8-2.44-6.88-1.97-9.67c0.47-2.78,2.57-6.12,4.13-8.42
	c0.39-0.58,0.01-1.36-0.68-1.42c-4.84-0.41-9.25-1.73-10.99-6.79c-0.07-0.22-0.07-0.43,0.03-0.64c2.64-5.87,5.85-9.04,11.74-12.46
	C67.47,217.07,81.22,209.14,95.07,201.15z"/>
<path class="st1" d="M249.26,224.67l-41.78,21.62c-0.28,0.14-0.35,0.51-0.15,0.75l0.22,0.25l-0.36,0.1
	c-0.17,0.05-0.34,0.03-0.5-0.05c-1.96-1-3.73-1.77-5.29-2.29c-13.08-4.42-24.75-11.12-35.01-20.09L187,212.58
	c2.95,1.98,6.73,4.2,11.33,6.67c2.78,1.49,5.14,1.09,7.1-1.19c5.74-6.71,9.46-10.81,11.15-12.29c1.63-1.43,3.47-1.55,5.55-0.36
	c7.59,4.37,15.21,8.68,22.86,12.9c1.08,0.6,2.35,1.56,3.83,2.88c0.19,0.16,0.28,0.37,0.29,0.62L249.26,224.67z"/>
<path class="st1" d="M248.61,228.79c-0.8,6.26-4,11.05-9.58,14.36c-6.43,3.81-15.69,7.21-23.34,5.82L248.61,228.79z"/>
<path class="st1" d="M207.91,247.37c0.59-0.11,1.16,0.04,1.71,0.45C208.77,248.05,208.2,247.9,207.91,247.37z"/>
<path class="st1" d="M100.98,264.86c5.32,7.77,12.35,12.61,21.09,14.5c6.44,1.39,15.64,0.68,23.3,0.91
	c-7.3,4.51-14.5,8.92-21.6,13.24c-7.48,4.56-20.41,13.02-27.1,9.4c-0.65-0.35-1.57-1.21-2.77-2.56c-1.63-1.84-3.64-3.21-6.03-4.1
	c-0.21-0.08-0.45-0.06-0.64,0.06c-6.79,4.09-24.35,17.2-29.25,3.25c-2.31-6.58,6.94-12.08,12.01-15.42
	C80.03,277.54,90.36,271.11,100.98,264.86z"/>
</svg>
