<?xml version="1.0" encoding="utf-8"?>
<!-- Generator: Adobe Illustrator 27.7.0, SVG Export Plug-In . SVG Version: 6.00 Build 0)  -->
<svg version="1.1" id="Layer_1" xmlns="http://www.w3.org/2000/svg" xmlns:xlink="http://www.w3.org/1999/xlink" x="0px" y="0px"
	 viewBox="0 0 375 375" style="enable-background:new 0 0 375 375;" xml:space="preserve">
<style type="text/css">
	.st0{fill:none;}
	.st1{fill:#206D8C;}
</style>
<g>
	<line class="st0" x1="98.44" y1="158.83" x2="96.45" y2="165.75"/>
	<path class="st0" d="M96.45,165.75c-20.77,12.31-42.38,23.39-63.54,35.04c-3.94,2.17-13.99,7.34-14.48,13.29
		c-0.02,0.27,0.05,0.51,0.22,0.71c3.13,3.71,5.55,7.54,11.2,5.47c4.1-1.51,8.06-3.33,11.89-5.44c17.31-9.56,34.72-19.07,52.23-28.53
		"/>
	<line class="st0" x1="93.97" y1="186.29" x2="94.9" y2="201.22"/>
	<path class="st0" d="M94.9,201.22c-13.72,7.94-27.41,15.85-41.07,23.75c-5.88,3.4-9.1,6.6-11.74,12.46
		c-0.1,0.21-0.1,0.42-0.03,0.64c1.72,5.06,6.14,6.38,10.99,6.79c0.7,0.06,1.07,0.85,0.68,1.42c-1.56,2.3-3.66,5.64-4.13,8.42
		c-0.47,2.8,1.25,6.88,1.97,9.67c0.05,0.22-0.07,0.46-0.28,0.54c-4.67,1.78-6.37,7.75-9.07,11.59c-0.14,0.21-0.16,0.42-0.03,0.64
		c2.81,4.82,6.08,8.32,12.25,6.82c3.26-0.79,6.75-2.24,10.45-4.33c17.51-9.89,34.85-20.06,52.01-30.51"/>
	<line class="st0" x1="116.89" y1="249.12" x2="120.68" y2="253.26"/>
	<path class="st0" d="M120.68,253.26c-18.43,10.81-30.8,18.19-37.11,22.14c-7.91,4.95-13.48,8.57-16.69,10.87
		c-4.41,3.17-10.88,7.18-8.98,13.05c4.65,14.34,22.52,1.06,29.31-3.02c0.19-0.12,0.43-0.14,0.64-0.06c2.38,0.89,4.39,2.26,6.02,4.09
		c1.21,1.36,2.14,2.22,2.78,2.57c5.42,2.92,16.08-2.67,21.35-5.89c11.89-7.3,23.92-14.56,36.09-21.8"/>
	<line class="st0" x1="154.11" y1="275.22" x2="168.05" y2="279.38"/>
	<path class="st0" d="M168.05,279.38l-3.26,8.06c-0.08,0.22-0.03,0.46,0.14,0.62c1.86,1.71,2.98,4.24,4.68,5.49
		c8.92,6.57,25.23-3.63,33.57-7.33c0.32-0.14,0.64,0.2,0.49,0.52c-2.23,4.34-4.06,8.84-5.53,13.5c-0.07,0.23-0.07,0.46,0.02,0.69
		c3.67,9.59,12.91,10.12,21.33,7.11c5.14-1.83,11.39-6.11,17.77-7.64c0.28-0.07,0.52,0.22,0.4,0.49c-3.05,6.46-3.16,8.7,2.95,13.09
		c0.2,0.14,0.42,0.2,0.66,0.18c7.43-0.58,14.04-2.69,19.82-6.34c22.14-13.98,45.91-30.09,71.28-48.32c4.16-2.99,6.1-7.18,5.81-12.56
		c-0.01-0.28-0.11-0.52-0.29-0.72l-8.04-9.1c-0.16-0.19-0.36-0.27-0.61-0.26c-4.72,0.23-9.29,1.17-13.72,2.8
		c-0.55,0.19-1.39,0.23-2.53,0.11c-0.29-0.04-0.37-0.18-0.22-0.43c1.56-2.83,5.16-9.55,3.05-12.55c-2.92-4.15-6.32-7.78-10.2-10.9
		c-0.28-0.22-0.25-0.65,0.05-0.84c12.94-8.1,26.53-15.91,36.76-26.67c8.14-8.56-1.88-15.5-7.62-20.79c-0.2-0.19-0.22-0.38-0.05-0.59
		c0.84-1.06,1.7-2.25,2.92-2.94c9.61-5.47,17.43-10.18,23.44-14.14c7.88-5.19-0.19-14.79-4.06-19.45c-0.17-0.2-0.2-0.42-0.09-0.67
		c1.42-3.13,2.59-6.08,1.23-8.96c-0.89-1.9-2.77-5.47-5.62-10.72c-0.13-0.23-0.08-0.43,0.13-0.58c4.02-2.86,8.02-5.75,12-8.67
		c6.23-4.55,9.49-8.26,9.7-15.73c0.01-0.25-0.07-0.5-0.22-0.71l-4.15-5.59c-0.14-0.19-0.33-0.29-0.56-0.31
		c-5.44-0.51-10.19-0.4-15.61,1.43c-9.04,3.05-19.78,6.78-32.22,11.17c-1.44,0.5-2.86,0.34-4.28-0.48c-0.2-0.11-0.26-0.36-0.16-0.55
		c3.98-7.26,2.77-18.72-6.39-20.84c-4.21-0.97-10.86,0.58-15.83,1.06c-0.23,0.02-0.46-0.07-0.62-0.24c-7.59-8.43-12.8-9.13-23.61-6
		c-15.29,4.42-29.2,8.72-41.75,12.9c-2.38,0.79-4.39,0.5-6.06-0.85c-2.95-2.42-4.99-2.65-8.85-1.57
		c-10.48,2.93-20.92,5.97-31.32,9.13c-1.06,0.32-2.25,0.42-3.58,0.29c-0.44-0.04-0.47-0.17-0.1-0.4c3.73-2.24,9.31-5.29,6.51-10.08
		c-1.21-2.07-4.18-4.09-6.58-4.03c-11.38,0.26-20.22,4.32-31.09,10.43c-37.35,20.98-74.62,42.11-111.8,63.4
		c-6.14,3.51-14.06,7.56-23.76,12.16c-5.41,2.56-8.41,4.7-10.93,9.71c-2.17,4.28,4.16,8.56,7.34,9.33
		c5.47,1.32,11.29-1.75,16.52-4.34c13.42-6.64,26.84-13.3,40.26-19.98c2.8-1.39,12.37-6.31,15.07-5.66
		c0.26,0.07,0.29,0.19,0.09,0.37c-2.06,1.88-4.27,3.55-6.64,5.03c-14.17,8.86-28.39,17.63-42.65,26.33
		c-3.24,1.98-6.38,4.86-9.7,7.61c-3.98,3.3-1.75,7.18,1.54,9.82c6.82,5.49,12.07,1.54,19.29-2.87c18.28-11.15,36.9-21.8,55.88-31.95
		"/>
	<path class="st0" d="M168.05,279.38c13.87,2.62,28.75,2.71,42.47-0.88c75.19-19.64,95.72-115.04,35.51-164.12"/>
	<path class="st0" d="M246.04,114.39l3.86-3.97c0.25-0.26,0.19-0.41-0.16-0.45c-2.5-0.31-4.89,0.28-7.16,1.79"/>
	<path class="st0" d="M242.58,111.76c-13.96-10.06-29.22-15.84-45.77-17.33c-11.71-1.06-25.02-0.11-36.48,3.53
		c-29.11,9.26-52.25,31.06-61.89,60.87"/>
	<line class="st0" x1="242.58" y1="111.76" x2="246.04" y2="114.39"/>
	<path class="st0" d="M154.11,275.22c-12.83-5.05-23.97-12.37-33.43-21.96"/>
	<path class="st0" d="M116.89,249.12c-11.89-13.78-19.21-29.75-21.99-47.9"/>
	<path class="st0" d="M93.97,186.29c0.09-6.83,0.91-13.68,2.47-20.53"/>
	<path class="st0" d="M190.72,146.14c0.14,18.62,0.19,37.29,0.13,56c0,1.44-0.39,2.94-0.52,4.48"/>
	<line class="st0" x1="190.33" y1="206.62" x2="189.07" y2="211.29"/>
	<path class="st0" d="M189.07,211.29c-2.65,6.58-7.6,9.56-14.89,8.95"/>
	<line class="st0" x1="174.19" y1="220.24" x2="171.22" y2="219.34"/>
	<path class="st0" d="M171.22,219.34c-1.54-1-3.11-1.27-4.45-2.36c-5.55-4.57-7.42-12.2-3.61-18.46c3.19-5.26,9.84-7,16.09-8.31
		c0.24-0.05,0.36-0.19,0.36-0.44V174.2c0-0.28-0.14-0.42-0.42-0.42c-13.31-0.05-25.62,6.54-31.15,18.67
		c-5.13,11.23-2.5,25.8,5.8,35.13"/>
	<line class="st0" x1="153.84" y1="227.57" x2="157.01" y2="230.63"/>
	<path class="st0" d="M157.01,230.63c18.64,13.72,42.2,3.18,48.59-17.65c0.97-3.16,1.39-7.15,1.27-11.96"/>
	<line class="st0" x1="206.87" y1="201.02" x2="207.17" y2="197.18"/>
	<path class="st0" d="M207.17,197.18l0.02-26.19c0-0.32,0.13-0.4,0.41-0.23c6.75,4.07,13.66,7.13,21.8,6.38
		c0.29-0.02,0.44-0.19,0.44-0.48v-14.81c0-0.26-0.2-0.48-0.46-0.49c-13.72-0.97-20.08-9.64-22.36-22.4
		c-0.04-0.24-0.2-0.44-0.42-0.54c-0.7-0.31-1.38-0.33-2.03-0.04"/>
	<path class="st0" d="M204.57,138.36l-13.53-0.04c-0.23-0.01-0.35,0.11-0.35,0.35l0.03,7.47"/>
	<line class="st0" x1="204.57" y1="138.36" x2="190.72" y2="146.14"/>
	<line class="st0" x1="207.17" y1="197.18" x2="190.33" y2="206.62"/>
	<line class="st0" x1="206.87" y1="201.02" x2="189.07" y2="211.29"/>
	<line class="st0" x1="157.01" y1="230.63" x2="174.19" y2="220.24"/>
	<path class="st0" d="M171.22,219.34c-0.59,0.05-1.17-0.07-1.75-0.38c-0.23-0.13-0.47-0.13-0.7,0.01l-14.93,8.6"/>
</g>
<path class="st1" d="M168.05,279.38c13.87,2.62,28.75,2.71,42.47-0.88c75.19-19.64,95.72-115.04,35.51-164.12l3.86-3.97
	c0.25-0.26,0.19-0.41-0.16-0.45c-2.5-0.31-4.89,0.28-7.16,1.79c-13.96-10.06-29.22-15.84-45.77-17.33
	c-11.71-1.06-25.02-0.11-36.48,3.53c-29.11,9.26-52.25,31.06-61.89,60.87c-18.98,10.15-37.6,20.79-55.88,31.95
	c-7.22,4.41-12.46,8.36-19.29,2.87c-3.29-2.65-5.52-6.52-1.54-9.82c3.32-2.75,6.46-5.63,9.7-7.61c14.26-8.7,28.48-17.47,42.65-26.33
	c2.36-1.48,4.57-3.15,6.64-5.03c0.2-0.19,0.17-0.31-0.09-0.37c-2.69-0.65-12.26,4.27-15.07,5.66
	c-13.42,6.67-26.83,13.33-40.26,19.98c-5.23,2.59-11.05,5.66-16.52,4.34c-3.18-0.76-9.51-5.05-7.34-9.33
	c2.53-5.01,5.52-7.15,10.93-9.71c9.7-4.6,17.62-8.65,23.76-12.16c37.19-21.28,74.45-42.41,111.8-63.4
	c10.87-6.11,19.72-10.17,31.09-10.43c2.4-0.05,5.36,1.96,6.58,4.03c2.8,4.79-2.77,7.84-6.51,10.08c-0.37,0.22-0.34,0.36,0.1,0.4
	c1.33,0.13,2.52,0.03,3.58-0.29c10.4-3.16,20.85-6.19,31.32-9.13c3.85-1.08,5.89-0.85,8.85,1.57c1.66,1.36,3.68,1.64,6.06,0.85
	c12.55-4.18,26.46-8.47,41.75-12.9c10.81-3.13,16.02-2.43,23.61,6c0.16,0.17,0.39,0.26,0.62,0.24c4.97-0.48,11.62-2.03,15.83-1.06
	c9.16,2.12,10.37,13.58,6.39,20.84c-0.1,0.19-0.04,0.44,0.16,0.55c1.42,0.82,2.84,0.98,4.28,0.48c12.44-4.39,23.18-8.11,32.22-11.17
	c5.42-1.83,10.17-1.94,15.61-1.43c0.23,0.02,0.42,0.13,0.56,0.31l4.15,5.59c0.15,0.21,0.23,0.46,0.22,0.71
	c-0.22,7.48-3.47,11.18-9.7,15.73c-3.98,2.92-7.98,5.8-12,8.67c-0.22,0.16-0.26,0.35-0.13,0.58c2.85,5.24,4.72,8.82,5.62,10.72
	c1.36,2.88,0.19,5.83-1.23,8.96c-0.11,0.25-0.08,0.46,0.09,0.67c3.88,4.66,11.95,14.26,4.06,19.45
	c-6.01,3.96-13.83,8.67-23.44,14.14c-1.22,0.69-2.08,1.87-2.92,2.94c-0.16,0.21-0.15,0.4,0.05,0.59
	c5.74,5.29,15.76,12.22,7.62,20.79c-10.23,10.75-23.82,18.57-36.76,26.67c-0.3,0.19-0.33,0.61-0.05,0.84
	c3.88,3.11,7.27,6.74,10.2,10.9c2.11,3-1.49,9.71-3.05,12.55c-0.14,0.25-0.07,0.4,0.22,0.43c1.14,0.13,1.98,0.09,2.53-0.11
	c4.43-1.63,9.01-2.56,13.72-2.8c0.25-0.01,0.45,0.07,0.61,0.26l8.04,9.1c0.18,0.2,0.28,0.44,0.29,0.72
	c0.28,5.38-1.65,9.57-5.81,12.56c-25.37,18.24-49.13,34.35-71.28,48.32c-5.78,3.65-12.39,5.77-19.82,6.34
	c-0.24,0.02-0.46-0.04-0.66-0.18c-6.11-4.39-6-6.64-2.95-13.09c0.13-0.26-0.11-0.55-0.4-0.49c-6.38,1.53-12.63,5.81-17.77,7.64
	c-8.42,3.01-17.67,2.48-21.33-7.11c-0.09-0.23-0.1-0.46-0.02-0.69c1.46-4.66,3.3-9.16,5.53-13.5c0.16-0.31-0.16-0.66-0.49-0.52
	c-8.33,3.7-24.64,13.9-33.57,7.33c-1.7-1.25-2.82-3.78-4.68-5.49c-0.17-0.16-0.22-0.4-0.14-0.62L168.05,279.38z"/>
<path d="M190.72,146.14c0.14,18.62,0.19,37.29,0.13,56c0,1.44-0.39,2.94-0.52,4.48l-1.26,4.67c-2.65,6.58-7.6,9.56-14.89,8.95
	l-2.97-0.9c-1.54-1-3.11-1.27-4.45-2.36c-5.55-4.57-7.42-12.2-3.61-18.46c3.19-5.26,9.84-7,16.09-8.31
	c0.24-0.05,0.36-0.19,0.36-0.44V174.2c0-0.28-0.14-0.42-0.42-0.42c-13.31-0.05-25.62,6.54-31.15,18.67
	c-5.13,11.23-2.5,25.8,5.8,35.13l3.17,3.06c18.64,13.72,42.2,3.18,48.59-17.65c0.97-3.16,1.39-7.15,1.27-11.96l0.3-3.85l0.02-26.19
	c0-0.32,0.13-0.4,0.41-0.23c6.75,4.07,13.66,7.13,21.8,6.38c0.29-0.02,0.44-0.19,0.44-0.48v-14.81c0-0.26-0.2-0.48-0.46-0.49
	c-13.72-0.97-20.08-9.64-22.36-22.4c-0.04-0.24-0.2-0.44-0.42-0.54c-0.7-0.31-1.38-0.33-2.03-0.04l-13.53-0.04
	c-0.23-0.01-0.35,0.11-0.35,0.35L190.72,146.14z M242.58,111.76l3.46,2.62c60.21,49.07,39.68,144.48-35.51,164.12
	c-13.72,3.59-28.6,3.49-42.47,0.88l-13.95-4.16c-12.83-5.05-23.97-12.37-33.43-21.96l-3.79-4.14
	c-11.89-13.78-19.21-29.75-21.99-47.9l-0.93-14.93c0.09-6.83,0.91-13.68,2.47-20.53l1.99-6.92c9.64-29.81,32.78-51.61,61.89-60.87
	c11.46-3.64,24.77-4.59,36.48-3.53C213.36,95.92,228.62,101.7,242.58,111.76"/>
<path class="st1" d="M204.57,138.36c0.65-0.28,1.33-0.27,2.03,0.04c0.22,0.1,0.37,0.3,0.42,0.54c2.28,12.76,8.65,21.42,22.36,22.4
	c0.26,0.01,0.46,0.23,0.46,0.49v14.81c0,0.29-0.15,0.46-0.44,0.48c-8.14,0.75-15.05-2.31-21.8-6.38c-0.28-0.16-0.41-0.09-0.41,0.23
	l-0.02,26.19l-16.84,9.44c0.13-1.54,0.52-3.04,0.52-4.48c0.05-18.71,0.01-37.38-0.13-56L204.57,138.36z"/>
<path class="st1" d="M96.45,165.75c-1.56,6.85-2.38,13.7-2.47,20.53c-17.51,9.46-34.92,18.97-52.23,28.53
	c-3.83,2.11-7.79,3.93-11.89,5.44c-5.65,2.08-8.07-1.75-11.2-5.47c-0.17-0.2-0.25-0.44-0.22-0.71c0.49-5.95,10.54-11.11,14.48-13.29
	C54.06,189.14,75.67,178.06,96.45,165.75z"/>
<path class="st1" d="M171.22,219.34c-0.59,0.05-1.17-0.07-1.75-0.38c-0.23-0.13-0.47-0.13-0.7,0.01l-14.93,8.6
	c-8.31-9.32-10.93-23.89-5.8-35.13c5.53-12.13,17.84-18.72,31.15-18.67c0.28,0,0.42,0.14,0.42,0.42v15.57
	c0,0.25-0.12,0.39-0.36,0.44c-6.25,1.3-12.89,3.04-16.09,8.31c-3.8,6.26-1.93,13.89,3.61,18.46
	C168.11,218.08,169.68,218.34,171.22,219.34z"/>
<path class="st1" d="M94.9,201.22c2.77,18.16,10.1,34.13,21.99,47.9c-17.16,10.45-34.5,20.62-52.01,30.51
	c-3.7,2.09-7.19,3.54-10.45,4.33c-6.16,1.5-9.43-2-12.25-6.82c-0.13-0.22-0.11-0.43,0.03-0.64c2.71-3.85,4.4-9.82,9.07-11.59
	c0.22-0.08,0.34-0.31,0.28-0.54c-0.72-2.8-2.44-6.88-1.97-9.67c0.47-2.78,2.57-6.12,4.13-8.42c0.39-0.58,0.01-1.36-0.68-1.42
	c-4.84-0.41-9.26-1.73-10.99-6.79c-0.07-0.22-0.07-0.43,0.03-0.64c2.64-5.86,5.86-9.06,11.74-12.46
	C67.49,217.07,81.19,209.16,94.9,201.22z"/>
<path class="st1" d="M206.87,201.02c0.12,4.81-0.31,8.8-1.27,11.96c-6.38,20.82-29.94,31.36-48.59,17.65l17.18-10.39
	c7.28,0.61,12.24-2.38,14.89-8.95L206.87,201.02z"/>
<path class="st1" d="M120.68,253.26c9.46,9.59,20.6,16.91,33.43,21.96c-12.16,7.24-24.19,14.5-36.09,21.8
	c-5.27,3.22-15.93,8.81-21.35,5.89c-0.64-0.35-1.57-1.21-2.78-2.57c-1.63-1.84-3.64-3.2-6.02-4.09c-0.21-0.08-0.45-0.06-0.64,0.06
	c-6.79,4.09-24.66,17.36-29.31,3.02c-1.9-5.87,4.57-9.88,8.98-13.05c3.21-2.3,8.77-5.92,16.69-10.87
	C89.88,271.45,102.25,264.08,120.68,253.26z"/>
</svg>
