<?xml version="1.0" encoding="utf-8"?>
<!-- Generator: Adobe Illustrator 27.7.0, SVG Export Plug-In . SVG Version: 6.00 Build 0)  -->
<svg version="1.1" id="Layer_1" xmlns="http://www.w3.org/2000/svg" xmlns:xlink="http://www.w3.org/1999/xlink" x="0px" y="0px"
	 viewBox="0 0 375 375" style="enable-background:new 0 0 375 375;" xml:space="preserve">
<style type="text/css">
	.st0{fill:none;stroke:#808080;stroke-width:0;stroke-miterlimit:10;}
	.st1{fill:none;stroke:#90B6C6;stroke-width:0;stroke-miterlimit:10;}
	.st2{fill:none;stroke:#103746;stroke-width:0;stroke-miterlimit:10;}
	.st3{fill:none;stroke:#33707C;stroke-width:0;stroke-miterlimit:10;}
	.st4{fill:none;stroke:#434858;stroke-width:0;stroke-miterlimit:10;}
	.st5{fill:none;stroke:#686A70;stroke-width:0;stroke-miterlimit:10;}
	.st6{fill:#206D8C;}
	.st7{fill:#66E0F7;}
	.st8{fill:#8690AF;}
	.st9{fill:#CFD3DF;}
</style>
<g>
	<path class="st0" d="M115.89,149.35c1.42,5.95,9.31,1.12,4.99-2.68"/>
	<path class="st1" d="M120.88,146.67c5.62-3.19,11.23-6.23,16.84-9.13c1.11-0.57,2.26-0.88,3.46-0.92"/>
	<path class="st0" d="M141.17,136.62l1.48,0.1c0.28,0.02,0.34,0.15,0.2,0.39l-4.03,6.96"/>
	<line class="st1" x1="138.82" y1="144.07" x2="135.19" y2="145.91"/>
	<path class="st0" d="M135.19,145.91c-3.01-0.31-4.74,0.61-5.21,2.74"/>
	<path class="st1" d="M129.97,148.66c-30.29,14.71-56.03,29.85-93.63,50.12c-5.57,3-10.09,5.95-14.8,9.55
		c-1.92,1.47-2.95,3.4-3.1,5.8c-0.01,0.25,0.05,0.47,0.21,0.66c3.01,3.72,5.65,7.54,11.19,5.48c4.1-1.52,8.06-3.34,11.89-5.45
		c30.35-16.78,60.86-33.35,91.52-49.7"/>
	<path class="st0" d="M133.27,165.12l-0.18,3.85c-0.01,0.25-0.14,0.38-0.4,0.37c-2.69-0.04-8.74-0.76-7.78,4.01
		c0.55,2.79,5.35,2.4,7.39,2.35c0.25-0.01,0.36,0.12,0.31,0.37c-0.37,2.14-1.34,3.88-2.93,5.23"/>
	<path class="st1" d="M129.69,181.31c-25.73,14.68-51.39,29.47-77,44.36c-5.23,3.04-8.14,6.48-10.6,11.72
		c-0.1,0.21-0.11,0.43-0.04,0.64c1.73,5.09,6.13,6.4,11,6.82c0.7,0.06,1.07,0.85,0.68,1.42c-1.56,2.3-3.66,5.64-4.13,8.42
		c-0.47,2.8,1.25,6.88,1.97,9.67c0.05,0.22-0.07,0.46-0.28,0.54c-4.67,1.78-6.37,7.75-9.07,11.6c-0.14,0.2-0.16,0.41-0.03,0.63
		c6.97,11.95,15.37,6.31,24.4,1.31c13.93-7.7,27.78-15.73,41.55-24.06"/>
	<line class="st0" x1="108.13" y1="254.39" x2="108.25" y2="260.69"/>
	<path class="st1" d="M108.25,260.69c-13.4,7.63-26.44,15.65-39.12,24.07c-4.23,2.81-13.2,7.99-11.22,14.5
		c4.42,14.49,22.6,1.09,29.31-2.95c0.19-0.12,0.43-0.14,0.64-0.06c2.38,0.89,4.39,2.26,6.02,4.09c1.21,1.37,2.14,2.23,2.79,2.57
		c5.44,2.92,16.04-2.67,21.33-5.89c16.34-9.93,30.09-18.38,49.28-29.2"/>
	<path class="st0" d="M167.3,267.82c3.22-1.11,11.11-0.45,18.72-0.38"/>
	<path class="st1" d="M186.02,267.43l-17.44,11.18c-0.22,0.14-0.37,0.33-0.47,0.57l-3.34,8.22c-0.07,0.19-0.03,0.4,0.11,0.53
		c0.76,0.73,1.69,1.92,2.78,3.58c6.96,10.62,27.04-1.61,35.54-5.26c0.31-0.13,0.61,0.19,0.46,0.49c-2.2,4.35-4.04,8.84-5.52,13.48
		c-0.07,0.22-0.07,0.48,0.01,0.7c6.91,18.01,27.51,3.34,38.88-0.6c0.4-0.13,0.77,0.28,0.59,0.66c-3.04,6.41-3.05,8.65,2.99,12.99
		c0.2,0.14,0.42,0.2,0.66,0.18c7.43-0.58,14.04-2.69,19.82-6.34c22.14-13.98,45.91-30.09,71.28-48.32c4.16-2.99,6.1-7.18,5.81-12.56
		c-0.01-0.28-0.11-0.52-0.29-0.72l-8.04-9.1c-0.16-0.19-0.36-0.27-0.61-0.26c-4.72,0.23-9.29,1.17-13.72,2.8
		c-0.55,0.19-1.39,0.23-2.53,0.11c-0.29-0.04-0.37-0.18-0.22-0.43c1.55-2.83,5.17-9.56,3.06-12.55c-2.96-4.19-6.36-7.82-10.2-10.89
		c-0.35-0.28-0.34-0.55,0.04-0.79c12.64-8.1,25.99-15.49,36.57-26.37c8.49-8.73-1.5-15.7-7.42-21.13c-0.17-0.16-0.19-0.41-0.04-0.59
		c0.84-1.07,1.7-2.26,2.92-2.95c9.61-5.47,17.43-10.18,23.44-14.14c7.88-5.19-0.19-14.79-4.06-19.45c-0.17-0.2-0.2-0.42-0.09-0.67
		c1.42-3.13,2.59-6.08,1.23-8.96c-0.89-1.9-2.77-5.47-5.62-10.72c-0.13-0.23-0.08-0.43,0.13-0.58c4.02-2.86,8.02-5.75,12-8.67
		c6.23-4.55,9.49-8.26,9.7-15.73c0.01-0.25-0.07-0.5-0.22-0.7l-4.15-5.59c-0.14-0.19-0.33-0.29-0.56-0.31
		c-5.44-0.51-10.19-0.4-15.61,1.43c-9.04,3.05-19.78,6.78-32.22,11.17c-1.44,0.5-2.86,0.34-4.28-0.48c-0.2-0.11-0.26-0.36-0.16-0.55
		c3.98-7.26,2.77-18.72-6.39-20.84c-4.21-0.97-10.86,0.58-15.83,1.06c-0.23,0.02-0.46-0.07-0.62-0.24c-7.6-8.44-12.79-9.12-23.6-6
		c-14.98,4.33-28.41,8.52-40.31,12.56c-2.63,0.89-4.69,1.24-7.13-0.34c-3.53-2.3-4.8-2.98-9.17-1.76
		c-10.55,2.95-21.06,6.01-31.55,9.18c-0.94,0.28-2.07,0.37-3.4,0.25c-0.41-0.04-0.45-0.16-0.1-0.38c4.22-2.65,10.57-5.98,5.18-11.54
		c-1.72-1.76-3.46-2.62-5.26-2.59c-11.38,0.26-20.21,4.32-31.09,10.43c-37.35,20.98-74.62,42.11-111.8,63.4
		c-6.13,3.5-14.05,7.56-23.76,12.16c-5.41,2.56-8.41,4.7-10.93,9.7c-2.17,4.28,4.16,8.56,7.34,9.33c5.47,1.32,11.29-1.75,16.52-4.34
		c13.42-6.64,26.84-13.3,40.26-19.98c2.8-1.39,12.37-6.31,15.07-5.66c0.26,0.07,0.29,0.19,0.09,0.37c-2.06,1.88-4.27,3.55-6.64,5.03
		c-14.17,8.86-28.39,17.63-42.65,26.33c-2.11,1.29-4.33,2.96-6.67,5.01c-3.74,3.28-7.46,5.85-3.58,10.43
		c7.18,8.49,13.54,3.79,21.97-1.28c23.84-14.35,48.08-28.02,72.73-41.02"/>
	<path class="st2" d="M186.02,267.43c23.06-0.05,46.3-0.07,69.71-0.04c2.31,0.01,4.03-0.2,5.16-0.59
		c8.41-2.96,8.71-15.13,0.52-18.55c-1.58-0.66-3.91-0.98-7-0.97c-9.04,0.06-18.07,0.07-27.09,0.01c-0.22,0-0.34-0.26-0.19-0.43
		c2.05-2.34,3.37-5.06,3.98-8.17"/>
	<path class="st1" d="M231.09,238.71c0.04,0.11,0.07,0.18,0.08,0.21c0.07,0.28,0.38,0.41,0.61,0.27l26.21-16.3
		c0.34-0.21,0.37-0.46,0.11-0.76c-0.76-0.86-2.02-1.06-3.1-0.49c-7.64,4.02-15.44,8.03-23.4,12.04"/>
	<path class="st2" d="M231.6,233.67c-0.31-2.8-1.03-5.35-2.15-7.66c-0.12-0.24-0.07-0.43,0.16-0.58
		c37.59-24.29,39.84-76.03,5.47-104.22"/>
	<path class="st1" d="M235.08,121.21c5.64-3.16,11.65-6.47,14.86-10.82c0.15-0.2,0.1-0.32-0.14-0.37c-1.36-0.25-2.31-0.28-2.85-0.08
		c-5.92,2.12-11.77,4.55-17.58,7.29"/>
	<path class="st2" d="M229.37,117.23c-6.94-4.27-14.76-7.18-23.46-8.77"/>
	<path class="st1" d="M205.91,108.46c3.97-2.17,7.7-4.24,11.19-6.21c0.61-0.35,0.76-0.94,0.43-1.78c-0.08-0.22-0.22-0.28-0.43-0.19
		L199.17,108"/>
	<path class="st2" d="M199.17,108c-20.2-0.61-37.81,6.88-50.99,22.07c-0.16,0.19-0.37,0.28-0.63,0.28c-3.3-0.02-6.6-0.01-9.9,0.01
		c-3.64,0.03-4.71,3.51-2.04,5.9c0.17,0.16,0.39,0.24,0.62,0.25l4.93,0.11"/>
	<path class="st2" d="M120.88,146.67c-2.28-1.62-4.98-0.13-4.99,2.68"/>
	<line class="st0" x1="205.91" y1="108.46" x2="199.17" y2="108"/>
	<line class="st0" x1="229.37" y1="117.23" x2="235.08" y2="121.21"/>
	<line class="st0" x1="231.6" y1="233.67" x2="231.09" y2="238.71"/>
	<path class="st2" d="M167.3,267.82c-0.13-0.25-0.27-0.37-0.44-0.38c-15.55-0.03-31.11-0.04-46.68-0.04c-6.02,0-9.61-1.19-11.92-6.7
		"/>
	<path class="st2" d="M108.13,254.39c2.1-5.12,6.12-7.5,12.07-7.12"/>
	<line class="st0" x1="120.2" y1="247.28" x2="130.56" y2="247.2"/>
	<path class="st2" d="M130.56,247.2l17.22,0.05c0.32,0,0.39-0.13,0.19-0.39c-1.76-2.42-3.08-5.1-3.94-8.05"/>
	<line class="st0" x1="144.03" y1="238.82" x2="143.56" y2="233.42"/>
	<path class="st2" d="M143.56,233.42l1.57-6.12c0.07-0.26-0.01-0.46-0.25-0.59c-10.81-5.82-19.61-13.76-26.4-23.83
		c-2.87-4.25-3.57-8.84-0.55-12.97c2.81-3.86,10.15-5.03,11.77-8.59"/>
	<path class="st2" d="M133.27,165.12l2.38-12c0.11-0.55-0.12-0.84-0.68-0.85c-3.34-0.07-5-1.28-4.99-3.62"/>
	<path class="st2" d="M135.19,145.91c1.55,0.02,3.66,0.54,3.64-1.84"/>
	<line class="st1" x1="144.03" y1="238.82" x2="130.56" y2="247.2"/>
	<line class="st1" x1="143.56" y1="233.42" x2="120.2" y2="247.28"/>
	<path class="st3" d="M172.93,151.78c-0.36,0.21-0.76,0.31-1.18,0.31h-28.88c-0.22,0-0.37,0.1-0.43,0.31
		c-1.86,5.38-2.86,10.9-3.01,16.58c-0.01,0.23,0.1,0.35,0.34,0.35c3.68,0.01,7.36,0.01,11.03,0.02c4.93,0.01,5.71,5.82,0.82,6.17
		c-4.04,0.29-8.11,0.31-12.21,0.04c-0.28-0.02-0.45,0.11-0.51,0.39c-1.85,9.05-6.33,12.65-14.39,16.32
		c-2.66,1.21-2.98,3.94-1.42,6.31c6.44,9.78,14.85,17.4,25.23,22.86c0.31,0.16,0.7,0.13,0.98-0.1c11.3-9.64,27.12-5.38,31.3,9.02
		c0.05,0.2,0.19,0.31,0.4,0.33c34.95,2.63,70-17.97,71.95-55.86c0.91-17.62-4.81-32.47-17.13-44.57
		c-21.89-21.5-56.69-21.4-78.82-0.37c-0.25,0.25-0.2,0.37,0.14,0.4c2.86,0.18,12.84-1.55,9.61,5.2c-0.1,0.22-0.28,0.4-0.5,0.5
		c-3.09,1.45-9.78,0.5-15.05,0.56c-0.28,0-0.5,0.12-0.66,0.37l-5.26,8.5c-0.19,0.32-0.1,0.48,0.27,0.48
		c8.23,0.01,16.45,0.01,24.68,0.02C173.9,145.92,176.77,149.54,172.93,151.78"/>
	<path class="st4" d="M174.78,234.78c0-6.85-5.56-12.41-12.41-12.41s-12.41,5.56-12.41,12.41c0,6.85,5.56,12.41,12.41,12.41
		S174.78,241.64,174.78,234.78"/>
	<path class="st4" d="M200.62,236.52c0.76,6.14,6.39,10.87,12.45,10.72c9.03-0.22,15.28-9.9,10.9-18.05
		c-0.16-0.31-0.4-0.38-0.72-0.22c-7.09,3.45-14.52,5.82-22.3,7.12C200.7,236.12,200.59,236.27,200.62,236.52"/>
	<path class="st2" d="M180.77,237.66c-0.44,3.49-1.83,6.56-4.17,9.19c-0.16,0.19-0.03,0.48,0.22,0.48h21.55
		c0.46,0,0.55-0.18,0.25-0.53c-2.28-2.68-3.68-5.76-4.2-9.25c-0.04-0.28-0.2-0.42-0.48-0.41l-12.7,0.11
		C180.96,237.24,180.8,237.38,180.77,237.66"/>
	<path class="st5" d="M261.17,257.23c0-2.05-1.66-3.71-3.71-3.71H117.87c-2.05,0-3.71,1.66-3.71,3.71v0.27
		c0,2.05,1.66,3.71,3.71,3.71h139.59c2.05,0,3.71-1.66,3.71-3.71V257.23"/>
	<path class="st3" d="M194.59,172.53c0-3.85-3.12-6.97-6.97-6.97c-3.85,0-6.97,3.12-6.97,6.97c0,3.85,3.12,6.97,6.97,6.97
		C191.47,179.49,194.59,176.37,194.59,172.53"/>
	<path class="st3" d="M235.15,172.52c0-3.85-3.12-6.97-6.97-6.97c-3.85,0-6.97,3.12-6.97,6.97c0,3.85,3.12,6.97,6.97,6.97
		C232.03,179.49,235.15,176.37,235.15,172.52"/>
	<path class="st3" d="M192.92,189.02c-2.21-3.56-7.62-0.22-4.72,4.04c9.82,14.47,30.16,14.53,39.61-0.3
		c2.41-3.79-2.4-7.37-4.84-3.72C215.4,200.39,200.17,200.66,192.92,189.02"/>
	<path class="st4" d="M165.42,234.79c0-1.69-1.37-3.06-3.06-3.06s-3.06,1.37-3.06,3.06s1.37,3.06,3.06,3.06
		S165.42,236.48,165.42,234.79"/>
</g>
<path class="st6" d="M186.02,267.43c23.06-0.05,46.3-0.07,69.71-0.04c2.31,0.01,4.03-0.2,5.16-0.59c8.41-2.96,8.71-15.13,0.52-18.55
	c-1.58-0.66-3.91-0.98-7-0.97c-9.04,0.06-18.07,0.07-27.09,0.01c-0.22,0-0.34-0.26-0.19-0.43c2.05-2.34,3.37-5.06,3.98-8.17
	c0.04,0.11,0.07,0.18,0.08,0.21c0.07,0.28,0.38,0.41,0.61,0.27l26.21-16.3c0.34-0.21,0.37-0.46,0.11-0.76
	c-0.76-0.86-2.02-1.06-3.1-0.49c-7.64,4.02-15.44,8.03-23.4,12.04c-0.31-2.8-1.03-5.35-2.15-7.66c-0.12-0.24-0.07-0.43,0.16-0.58
	c37.59-24.29,39.84-76.03,5.47-104.22c5.64-3.16,11.65-6.47,14.86-10.82c0.15-0.2,0.1-0.32-0.14-0.37
	c-1.36-0.25-2.31-0.28-2.85-0.08c-5.92,2.12-11.77,4.55-17.58,7.29c-6.94-4.27-14.76-7.18-23.46-8.77c3.97-2.17,7.7-4.24,11.19-6.21
	c0.61-0.35,0.76-0.94,0.43-1.78c-0.08-0.22-0.22-0.28-0.43-0.19L199.17,108c-20.2-0.61-37.81,6.88-50.99,22.07
	c-0.16,0.19-0.37,0.28-0.63,0.28c-3.3-0.02-6.6-0.01-9.9,0.01c-3.64,0.03-4.71,3.51-2.04,5.9c0.17,0.16,0.39,0.24,0.62,0.25
	l4.93,0.11c-1.19,0.04-2.35,0.35-3.46,0.92c-5.61,2.89-11.22,5.94-16.84,9.13c-2.28-1.62-4.98-0.13-4.99,2.68
	c-24.65,13-48.89,26.67-72.73,41.02c-8.44,5.08-14.8,9.77-21.97,1.28c-3.88-4.58-0.16-7.15,3.58-10.43
	c2.35-2.05,4.57-3.72,6.67-5.01c14.26-8.7,28.48-17.47,42.65-26.33c2.36-1.48,4.57-3.15,6.64-5.03c0.2-0.19,0.17-0.31-0.09-0.37
	c-2.69-0.65-12.26,4.27-15.07,5.66c-13.42,6.67-26.83,13.33-40.26,19.98c-5.23,2.59-11.05,5.66-16.52,4.34
	c-3.18-0.76-9.51-5.05-7.34-9.33c2.53-5,5.52-7.14,10.93-9.7c9.71-4.6,17.63-8.66,23.76-12.16c37.18-21.28,74.45-42.41,111.8-63.4
	c10.88-6.11,19.71-10.17,31.09-10.43c1.79-0.04,3.54,0.82,5.26,2.59c5.38,5.56-0.96,8.89-5.18,11.54c-0.35,0.22-0.31,0.34,0.1,0.38
	c1.33,0.12,2.46,0.04,3.4-0.25c10.48-3.16,21-6.22,31.55-9.18c4.37-1.22,5.64-0.54,9.17,1.76c2.44,1.58,4.5,1.23,7.13,0.34
	c11.89-4.04,25.33-8.23,40.31-12.56c10.81-3.12,16-2.44,23.6,6c0.16,0.17,0.39,0.26,0.62,0.24c4.97-0.48,11.62-2.03,15.83-1.06
	c9.16,2.12,10.37,13.58,6.39,20.84c-0.1,0.19-0.04,0.44,0.16,0.55c1.42,0.82,2.84,0.98,4.28,0.48c12.44-4.39,23.18-8.11,32.22-11.17
	c5.42-1.83,10.17-1.94,15.61-1.43c0.23,0.02,0.42,0.13,0.56,0.31l4.15,5.59c0.15,0.2,0.23,0.45,0.22,0.7
	c-0.22,7.48-3.47,11.18-9.7,15.73c-3.98,2.92-7.98,5.8-12,8.67c-0.22,0.16-0.26,0.35-0.13,0.58c2.85,5.24,4.72,8.82,5.62,10.72
	c1.36,2.88,0.19,5.83-1.23,8.96c-0.11,0.25-0.08,0.46,0.09,0.67c3.88,4.66,11.95,14.26,4.06,19.45
	c-6.01,3.96-13.83,8.67-23.44,14.14c-1.22,0.69-2.08,1.87-2.92,2.95c-0.14,0.18-0.13,0.43,0.04,0.59
	c5.92,5.44,15.91,12.4,7.42,21.13c-10.57,10.88-23.93,18.27-36.57,26.37c-0.38,0.25-0.39,0.51-0.04,0.79
	c3.84,3.07,7.24,6.7,10.2,10.89c2.11,2.98-1.51,9.72-3.06,12.55c-0.14,0.25-0.07,0.4,0.22,0.43c1.14,0.13,1.98,0.09,2.53-0.11
	c4.43-1.63,9.01-2.56,13.72-2.8c0.25-0.01,0.45,0.07,0.61,0.26l8.04,9.1c0.18,0.2,0.28,0.44,0.29,0.72
	c0.28,5.38-1.65,9.57-5.81,12.56c-25.37,18.24-49.13,34.35-71.28,48.32c-5.78,3.65-12.39,5.77-19.82,6.34
	c-0.24,0.02-0.46-0.04-0.66-0.18c-6.04-4.34-6.03-6.58-2.99-12.99c0.18-0.38-0.19-0.79-0.59-0.66c-11.36,3.94-31.96,18.61-38.88,0.6
	c-0.08-0.22-0.09-0.48-0.01-0.7c1.48-4.63,3.32-9.13,5.52-13.48c0.15-0.3-0.16-0.63-0.46-0.49c-8.5,3.65-28.58,15.88-35.54,5.26
	c-1.09-1.66-2.02-2.85-2.78-3.58c-0.14-0.13-0.19-0.34-0.11-0.53l3.34-8.22c0.1-0.24,0.25-0.43,0.47-0.57L186.02,267.43z"/>
<path d="M261.17,257.23c0-2.05-1.66-3.71-3.71-3.71H117.87c-2.05,0-3.71,1.66-3.71,3.71v0.27c0,2.05,1.66,3.71,3.71,3.71h139.59
	c2.05,0,3.71-1.66,3.71-3.71V257.23z M180.77,237.66c-0.44,3.49-1.83,6.56-4.17,9.19c-0.16,0.19-0.03,0.48,0.22,0.48h21.55
	c0.46,0,0.55-0.18,0.25-0.53c-2.28-2.68-3.68-5.76-4.2-9.25c-0.04-0.28-0.2-0.42-0.48-0.41l-12.7,0.11
	C180.96,237.24,180.8,237.38,180.77,237.66 M200.62,236.52c0.76,6.14,6.39,10.87,12.45,10.72c9.03-0.22,15.28-9.9,10.9-18.05
	c-0.16-0.31-0.4-0.38-0.72-0.22c-7.09,3.45-14.52,5.82-22.3,7.12C200.7,236.12,200.59,236.27,200.62,236.52 M174.78,234.78
	c0-6.85-5.56-12.41-12.41-12.41s-12.41,5.56-12.41,12.41c0,6.85,5.56,12.41,12.41,12.41S174.78,241.64,174.78,234.78 M172.93,151.78
	c-0.36,0.21-0.76,0.31-1.18,0.31h-28.88c-0.22,0-0.37,0.1-0.43,0.31c-1.86,5.38-2.86,10.9-3.01,16.58c-0.01,0.23,0.1,0.35,0.34,0.35
	c3.68,0.01,7.36,0.01,11.03,0.02c4.93,0.01,5.71,5.82,0.82,6.17c-4.04,0.29-8.11,0.31-12.21,0.04c-0.28-0.02-0.45,0.11-0.51,0.39
	c-1.85,9.05-6.33,12.65-14.39,16.32c-2.66,1.21-2.98,3.94-1.42,6.31c6.44,9.78,14.85,17.4,25.23,22.86c0.31,0.16,0.7,0.13,0.98-0.1
	c11.3-9.64,27.12-5.38,31.3,9.02c0.05,0.2,0.19,0.31,0.4,0.33c34.95,2.63,70-17.97,71.95-55.86c0.91-17.62-4.81-32.47-17.13-44.57
	c-21.89-21.5-56.69-21.4-78.82-0.37c-0.25,0.25-0.2,0.37,0.14,0.4c2.86,0.18,12.84-1.55,9.61,5.2c-0.1,0.22-0.28,0.4-0.5,0.5
	c-3.09,1.45-9.78,0.5-15.05,0.56c-0.28,0-0.5,0.12-0.66,0.37l-5.26,8.5c-0.19,0.32-0.1,0.48,0.27,0.48
	c8.23,0.01,16.45,0.01,24.68,0.02C173.9,145.92,176.77,149.54,172.93,151.78 M199.17,108l6.74,0.46c8.7,1.58,16.52,4.5,23.46,8.77
	l5.71,3.98c34.38,28.19,32.13,79.93-5.47,104.22c-0.23,0.15-0.28,0.34-0.16,0.58c1.12,2.31,1.84,4.86,2.15,7.66l-0.51,5.03
	c-0.61,3.11-1.93,5.83-3.98,8.17c-0.14,0.16-0.03,0.43,0.19,0.43c9.02,0.05,18.05,0.04,27.09-0.01c3.09-0.02,5.42,0.31,7,0.97
	c8.19,3.42,7.89,15.58-0.52,18.55c-1.13,0.4-2.85,0.6-5.16,0.59c-23.41-0.03-46.65-0.02-69.71,0.04
	c-7.61-0.07-15.49-0.73-18.72,0.38c-0.13-0.25-0.27-0.37-0.44-0.38c-15.55-0.03-31.11-0.04-46.68-0.04c-6.02,0-9.61-1.19-11.92-6.7
	l-0.12-6.3c2.1-5.12,6.12-7.5,12.07-7.12l10.36-0.07l17.22,0.05c0.32,0,0.39-0.13,0.19-0.39c-1.76-2.42-3.08-5.1-3.94-8.05
	l-0.47-5.4l1.57-6.12c0.07-0.26-0.01-0.46-0.25-0.59c-10.81-5.82-19.61-13.76-26.4-23.83c-2.87-4.25-3.57-8.84-0.55-12.97
	c2.81-3.86,10.15-5.03,11.77-8.59c1.59-1.35,2.56-3.09,2.93-5.23c0.04-0.25-0.06-0.37-0.31-0.37c-2.05,0.04-6.84,0.43-7.39-2.35
	c-0.96-4.78,5.08-4.06,7.78-4.01c0.25,0.01,0.39-0.12,0.4-0.37l0.18-3.85l2.38-12c0.11-0.55-0.12-0.84-0.68-0.85
	c-3.34-0.07-5-1.28-4.99-3.62c0.47-2.14,2.2-3.05,5.21-2.74c1.55,0.02,3.66,0.54,3.64-1.84l4.03-6.96c0.14-0.24,0.07-0.37-0.2-0.39
	l-1.48-0.1l-4.93-0.11c-0.23-0.01-0.45-0.09-0.62-0.25c-2.67-2.39-1.6-5.87,2.04-5.9c3.3-0.02,6.6-0.03,9.9-0.01
	c0.25,0,0.46-0.1,0.63-0.28C161.36,114.87,178.97,107.39,199.17,108"/>
<path class="st7" d="M192.92,189.02c-2.21-3.56-7.62-0.22-4.72,4.04c9.82,14.47,30.16,14.53,39.61-0.3c2.41-3.79-2.4-7.37-4.84-3.72
	C215.4,200.39,200.17,200.66,192.92,189.02z M235.15,172.52c0-3.85-3.12-6.97-6.97-6.97c-3.85,0-6.97,3.12-6.97,6.97
	c0,3.85,3.12,6.97,6.97,6.97C232.03,179.49,235.15,176.37,235.15,172.52 M194.59,172.53c0-3.85-3.12-6.97-6.97-6.97
	c-3.85,0-6.97,3.12-6.97,6.97c0,3.85,3.12,6.97,6.97,6.97C191.47,179.49,194.59,176.37,194.59,172.53 M172.93,151.78
	c3.84-2.23,0.97-5.86-2.72-5.86c-8.23-0.01-16.45-0.01-24.68-0.02c-0.37,0-0.46-0.16-0.27-0.48l5.26-8.5
	c0.16-0.25,0.37-0.37,0.66-0.37c5.27-0.06,11.96,0.89,15.05-0.56c0.22-0.1,0.4-0.28,0.5-0.5c3.23-6.76-6.75-5.02-9.61-5.2
	c-0.34-0.02-0.39-0.15-0.14-0.4c22.14-21.03,56.93-21.12,78.82,0.37c12.32,12.1,18.04,26.96,17.13,44.57
	c-1.94,37.89-37,58.49-71.95,55.86c-0.22-0.02-0.35-0.13-0.4-0.33c-4.18-14.4-20-18.66-31.3-9.02c-0.28,0.23-0.67,0.27-0.98,0.1
	c-10.38-5.47-18.79-13.09-25.23-22.86c-1.56-2.36-1.24-5.09,1.42-6.31c8.06-3.67,12.54-7.27,14.39-16.32
	c0.06-0.28,0.23-0.41,0.51-0.39c4.1,0.26,8.17,0.25,12.21-0.04c4.9-0.35,4.11-6.16-0.82-6.17c-3.67-0.01-7.35-0.02-11.03-0.02
	c-0.23,0-0.34-0.12-0.34-0.35c0.14-5.68,1.15-11.2,3.01-16.58c0.07-0.2,0.22-0.31,0.43-0.31h28.88
	C172.16,152.09,172.57,151.99,172.93,151.78"/>
<path class="st6" d="M138.82,144.07c0.02,2.38-2.08,1.86-3.64,1.84L138.82,144.07z"/>
<path d="M120.88,146.67c4.32,3.81-3.56,8.64-4.99,2.68C115.9,146.54,118.6,145.05,120.88,146.67z"/>
<path class="st6" d="M129.97,148.66c-0.01,2.34,1.65,3.55,4.99,3.62c0.56,0.01,0.79,0.29,0.68,0.85l-2.38,12
	c-30.66,16.35-61.17,32.91-91.52,49.7c-3.83,2.11-7.79,3.93-11.89,5.45c-5.53,2.05-8.18-1.76-11.19-5.48
	c-0.16-0.19-0.22-0.41-0.21-0.66c0.14-2.4,1.18-4.33,3.1-5.8c4.7-3.61,9.22-6.55,14.8-9.55C73.94,178.5,99.69,163.36,129.97,148.66z
	"/>
<circle cx="187.63" cy="172.53" r="6.97"/>
<ellipse transform="matrix(0.2298 -0.9732 0.9732 0.2298 7.8533 354.9604)" cx="228.18" cy="172.52" rx="6.97" ry="6.97"/>
<path class="st6" d="M129.69,181.31c-1.63,3.56-8.96,4.73-11.77,8.59c-3.02,4.13-2.32,8.72,0.55,12.97
	c6.79,10.07,15.6,18.01,26.4,23.83c0.24,0.13,0.32,0.33,0.25,0.59l-1.57,6.12l-23.36,13.86c-5.95-0.38-9.97,1.99-12.07,7.12
	c-13.76,8.34-27.61,16.36-41.55,24.06c-9.03,4.99-17.44,10.63-24.4-1.31c-0.13-0.22-0.11-0.43,0.03-0.63
	c2.71-3.85,4.4-9.82,9.07-11.6c0.22-0.08,0.34-0.31,0.28-0.54c-0.72-2.8-2.44-6.88-1.97-9.67c0.47-2.78,2.57-6.12,4.13-8.42
	c0.39-0.58,0.01-1.36-0.68-1.42c-4.87-0.42-9.27-1.73-11-6.82c-0.07-0.22-0.06-0.43,0.04-0.64c2.46-5.24,5.37-8.68,10.6-11.72
	C78.3,210.78,103.96,195.99,129.69,181.31z"/>
<path d="M188.2,193.06c-2.9-4.27,2.5-7.6,4.72-4.04c7.25,11.64,22.48,11.37,30.06,0.02c2.44-3.65,7.25-0.07,4.84,3.72
	C218.37,207.59,198.02,207.52,188.2,193.06z"/>
<path class="st8" d="M165.42,234.79c0-1.69-1.37-3.06-3.06-3.06s-3.06,1.37-3.06,3.06s1.37,3.06,3.06,3.06
	S165.42,236.48,165.42,234.79z M174.78,234.78c0,6.85-5.56,12.41-12.41,12.41s-12.41-5.56-12.41-12.41
	c0-6.85,5.56-12.41,12.41-12.41S174.78,227.93,174.78,234.78"/>
<path class="st8" d="M213.06,247.24c-6.06,0.15-11.69-4.58-12.45-10.72c-0.03-0.25,0.08-0.4,0.33-0.43
	c7.78-1.3,15.22-3.67,22.3-7.12c0.31-0.16,0.55-0.08,0.72,0.22C228.34,237.34,222.09,247.01,213.06,247.24z"/>
<circle cx="162.36" cy="234.79" r="3.06"/>
<path class="st6" d="M180.77,237.66c0.04-0.28,0.19-0.41,0.47-0.41l12.7-0.11c0.28-0.01,0.44,0.13,0.48,0.41
	c0.52,3.49,1.92,6.58,4.2,9.25c0.3,0.35,0.22,0.53-0.25,0.53h-21.55c-0.25,0-0.38-0.29-0.22-0.48
	C178.94,244.22,180.32,241.15,180.77,237.66z"/>
<path class="st6" d="M144.03,238.82c0.86,2.95,2.18,5.62,3.94,8.05c0.19,0.26,0.13,0.39-0.19,0.39l-17.22-0.05L144.03,238.82z"/>
<path class="st9" d="M261.17,257.5c0,2.05-1.66,3.71-3.71,3.71H117.87c-2.05,0-3.71-1.66-3.71-3.71v-0.27
	c0-2.05,1.66-3.71,3.71-3.71h139.59c2.05,0,3.71,1.66,3.71,3.71V257.5z"/>
<path class="st6" d="M108.25,260.69c2.32,5.51,5.9,6.7,11.92,6.7c15.57-0.01,31.13,0.01,46.68,0.04c0.17,0.01,0.31,0.13,0.44,0.38
	c-19.19,10.82-32.94,19.27-49.28,29.2c-5.29,3.22-15.9,8.81-21.33,5.89c-0.65-0.34-1.58-1.2-2.79-2.57
	c-1.63-1.84-3.64-3.2-6.02-4.09c-0.21-0.08-0.45-0.06-0.64,0.06c-6.71,4.04-24.9,17.44-29.31,2.95c-1.98-6.51,6.99-11.68,11.22-14.5
	C81.81,276.34,94.85,268.32,108.25,260.69z"/>
</svg>
