<?xml version="1.0" encoding="utf-8"?>
<!-- Generator: Adobe Illustrator 27.7.0, SVG Export Plug-In . SVG Version: 6.00 Build 0)  -->
<svg version="1.1" id="Layer_1" xmlns="http://www.w3.org/2000/svg" xmlns:xlink="http://www.w3.org/1999/xlink" x="0px" y="0px"
	 viewBox="0 0 375 375" style="enable-background:new 0 0 375 375;" xml:space="preserve">
<style type="text/css">
	.st0{fill:none;}
	.st1{fill:#206D8C;}
	.st2{fill:#29A71A;}
	.st3{fill:#FFFFFF;}
</style>
<g>
	<line class="st0" x1="107.91" y1="153.7" x2="107.85" y2="159.88"/>
	<path class="st0" d="M107.85,159.88c-9.57,4.72-20.43,11.2-27.87,15.25c-15.7,8.54-31.38,17.1-47.06,25.68
		c-3.97,2.17-14,7.3-14.5,13.27c-0.02,0.26,0.05,0.5,0.22,0.71c3.13,3.7,5.56,7.54,11.2,5.48c4.11-1.5,8.08-3.31,11.92-5.42
		c21.97-12.1,43.97-24.15,66-36.15"/>
	<line class="st0" x1="107.77" y1="178.71" x2="107.94" y2="193.73"/>
	<path class="st0" d="M107.94,193.73c-18.25,10.48-36.33,20.92-54.24,31.34c-5.84,3.4-9,6.52-11.61,12.36
		c-0.1,0.21-0.1,0.42-0.03,0.64c1.73,5.06,6.14,6.37,10.99,6.79c0.7,0.06,1.07,0.85,0.68,1.42c-1.56,2.3-3.66,5.64-4.13,8.42
		c-0.47,2.8,1.25,6.88,1.97,9.67c0.05,0.22-0.07,0.46-0.28,0.54c-4.67,1.78-6.37,7.75-9.07,11.6c-0.14,0.2-0.16,0.41-0.03,0.63
		c6.99,11.97,15.4,6.26,24.27,1.38c14.39-7.93,28.65-16.21,42.77-24.84"/>
	<line class="st0" x1="109.23" y1="253.69" x2="111.9" y2="258.53"/>
	<path class="st0" d="M111.9,258.53c-14.73,8.41-29.04,17.24-42.95,26.49c-4.71,3.12-13.08,7.84-11.04,14.28
		c4.57,14.41,22.54,1.09,29.31-2.98c0.19-0.12,0.43-0.14,0.64-0.06c2.36,0.88,4.36,2.23,5.98,4.06c1.25,1.4,2.21,2.29,2.87,2.64
		c6.79,3.63,20.11-5.16,27.77-9.86c14.08-8.64,28.37-17.12,42.86-25.44"/>
	<line class="st0" x1="167.36" y1="267.64" x2="186.51" y2="267.39"/>
	<path class="st0" d="M186.51,267.39l-17.94,11.27c-0.23,0.15-0.4,0.35-0.51,0.61l-3.31,8.14c-0.08,0.2-0.03,0.43,0.13,0.59
		c3.55,3.34,3.94,6.91,9.52,7.44c10.57,1,19.41-5.12,28.77-9.19c0.31-0.13,0.61,0.19,0.46,0.49c-2.2,4.34-4.03,8.83-5.51,13.48
		c-0.07,0.22-0.07,0.47,0.02,0.7c6.91,18.01,27.51,3.34,38.87-0.6c0.4-0.13,0.77,0.28,0.59,0.66c-3.04,6.41-3.05,8.65,2.99,12.99
		c0.2,0.14,0.42,0.2,0.66,0.18c7.43-0.58,14.04-2.69,19.82-6.34c22.14-13.98,45.91-30.09,71.28-48.32c4.16-2.99,6.1-7.18,5.81-12.56
		c-0.01-0.28-0.11-0.52-0.29-0.72l-8.04-9.1c-0.16-0.19-0.36-0.27-0.61-0.26c-4.72,0.23-9.29,1.17-13.72,2.8
		c-0.55,0.19-1.39,0.23-2.53,0.11c-0.29-0.04-0.37-0.18-0.22-0.43c1.55-2.83,5.17-9.56,3.06-12.55c-2.96-4.19-6.36-7.82-10.2-10.89
		c-0.35-0.28-0.34-0.55,0.04-0.79c12.64-8.1,25.99-15.49,36.57-26.37c8.49-8.73-1.5-15.7-7.42-21.13c-0.17-0.16-0.19-0.41-0.04-0.59
		c0.84-1.07,1.7-2.26,2.92-2.95c9.61-5.47,17.43-10.18,23.44-14.14c7.88-5.19-0.19-14.79-4.06-19.45c-0.17-0.2-0.2-0.42-0.09-0.67
		c1.42-3.13,2.59-6.08,1.23-8.96c-0.89-1.9-2.77-5.47-5.62-10.72c-0.13-0.23-0.08-0.43,0.13-0.58c4.02-2.86,8.02-5.75,12-8.67
		c6.23-4.55,9.49-8.26,9.7-15.73c0.01-0.25-0.07-0.5-0.22-0.7l-4.15-5.59c-0.14-0.19-0.33-0.29-0.56-0.31
		c-5.44-0.51-10.19-0.4-15.61,1.43c-9.04,3.05-19.78,6.78-32.22,11.17c-1.44,0.5-2.86,0.34-4.28-0.48c-0.2-0.11-0.26-0.36-0.16-0.55
		c3.98-7.26,2.77-18.72-6.39-20.84c-4.21-0.97-10.86,0.58-15.83,1.06c-0.23,0.02-0.46-0.07-0.62-0.24c-7.6-8.44-12.8-9.13-23.61-6
		c-15.31,4.43-29.23,8.72-41.75,12.88c-6.01,1.99-7.2-4.43-13.64-2.67c-10.82,2.96-21.6,6.06-32.34,9.29
		c-1.22,0.37-2.49,0.5-3.82,0.41c-0.46-0.04-0.49-0.17-0.1-0.41c4.36-2.62,11.1-6.67,4.65-12.28c-1.43-1.25-3.01-1.86-4.72-1.83
		c-11.26,0.17-20.28,4.35-31.09,10.42c-37.35,20.98-74.62,42.11-111.8,63.4c-6.13,3.5-14.05,7.56-23.76,12.16
		c-5.41,2.56-8.41,4.7-10.93,9.7c-2.17,4.28,4.16,8.56,7.34,9.33c5.47,1.31,11.29-1.75,16.52-4.33
		c13.42-6.65,26.84-13.32,40.25-19.99c4.45-2.22,9.2-4.21,14.23-5.98c0.59-0.21,1.05,0.55,0.58,0.97c-1.73,1.6-3.75,3.12-6.07,4.57
		c-14.17,8.88-28.38,17.67-42.65,26.37c-2.23,1.36-4.54,3.08-6.91,5.15c-3.75,3.28-7.46,5.85-3.58,10.45
		c7.14,8.43,13.62,3.79,21.99-1.28c21.14-12.82,42.72-25.04,64.73-36.69"/>
	<path class="st0" d="M186.51,267.39c20.03-0.01,40.04-0.06,60.02-0.17c9.09-0.05,17.11-6.06,19.75-14.51
		c0.71-2.25,1.06-6.62,1.06-13.11c-0.01-36.6-0.02-73.21-0.03-109.82c0-11.63-8.86-21.81-20.78-21.75
		c-14.89,0.08-27.87,0.01-38.94-0.22"/>
	<path class="st0" d="M207.61,107.81c3.14-1.97,6.17-3.77,9.09-5.4c0.7-0.39,1.07-1.11,0.95-1.87c-0.05-0.31-0.22-0.4-0.5-0.27
		l-17.68,7.67"/>
	<path class="st0" d="M199.46,107.94c-22.25,0.1-44.64,0.13-67.18,0.09c-4.45-0.01-7.73,0.34-9.84,1.05
		c-9.34,3.12-14.51,11.47-14.46,21.21c0.04,7.84,0.02,15.64-0.07,23.41"/>
	<line class="st0" x1="207.61" y1="107.81" x2="199.46" y2="107.94"/>
	<path class="st0" d="M167.36,267.64c-11.34-0.25-22.62-0.35-33.85-0.29c-9.64,0.05-15.97-1.27-21.6-8.83"/>
	<path class="st0" d="M109.23,253.69c-0.83-2.15-1.24-4.15-1.24-5.98c0.02-17.86,0.01-35.85-0.04-53.97"/>
	<line class="st0" x1="107.77" y1="178.71" x2="107.85" y2="159.88"/>
	<path class="st0" d="M165.9,231.76c18.89,8.96,40.44,5.64,55.76-8.56c17.71-16.42,20.46-44.21,6.73-64.03
		c-9.06-13.07-23.7-20.9-39.55-21.28c-37.11-0.88-61.99,37.97-45.46,71.42c0.11,0.22,0.14,0.45,0.09,0.7
		c-1.58,7.89-3.2,15.77-4.87,23.64c-0.71,3.37,0.01,4.29,3.36,3.53c7.77-1.75,15.52-3.58,23.25-5.49
		C165.45,231.63,165.68,231.66,165.9,231.76"/>
	<path class="st0" d="M197,149.74c-34.01-7.99-60.15,27.88-42.34,57.98c0.13,0.23,0.17,0.47,0.12,0.73l-3.16,15.01
		c-0.05,0.26,0.05,0.37,0.31,0.31l14.62-3.43c0.22-0.05,0.43-0.03,0.64,0.07c3.42,1.65,7.03,3.41,10.54,4.3
		c26.61,6.68,51.56-14.63,48.32-42.22C224.22,166.78,212.31,153.34,197,149.74"/>
	<path class="st0" d="M190.81,198.61c-5.38-3.52-11.26-8.2-14.8-13.64c-2.78-4.28,4.48-6.16,2.75-10.07
		c-1.07-2.41-3.62-9.67-5.63-10.97c-3.54-2.29-8.49,4.64-9.55,7.31c-2.74,6.88,1.48,15.54,5.95,20.93
		c7.79,9.4,19.69,19.79,32.44,19.1c4.98-0.26,8.32-2.87,11.01-6.88c1.84-2.72,1.59-5.61-1.88-6.58c-3.13-0.88-6.26-1.68-9.42-2.41
		C197.12,194.35,196.57,202.37,190.81,198.61"/>
</g>
<path class="st1" d="M186.51,267.39c20.03-0.01,40.04-0.06,60.02-0.17c9.09-0.05,17.11-6.06,19.75-14.51
	c0.71-2.25,1.06-6.62,1.06-13.11c-0.01-36.6-0.02-73.21-0.03-109.82c0-11.63-8.86-21.81-20.78-21.75
	c-14.89,0.08-27.87,0.01-38.94-0.22c3.14-1.97,6.17-3.77,9.09-5.4c0.7-0.39,1.07-1.11,0.95-1.87c-0.05-0.31-0.22-0.4-0.5-0.27
	l-17.68,7.67c-22.25,0.1-44.64,0.13-67.18,0.09c-4.45-0.01-7.73,0.34-9.84,1.05c-9.34,3.12-14.51,11.47-14.46,21.21
	c0.04,7.84,0.02,15.64-0.07,23.41c-22.01,11.65-43.59,23.87-64.73,36.69c-8.37,5.08-14.85,9.71-21.99,1.28
	c-3.88-4.6-0.17-7.17,3.58-10.45c2.37-2.07,4.67-3.79,6.91-5.15c14.27-8.71,28.48-17.5,42.65-26.37c2.32-1.45,4.33-2.97,6.07-4.57
	c0.46-0.43,0.01-1.18-0.58-0.97c-5.03,1.76-9.78,3.76-14.23,5.98c-13.41,6.67-26.82,13.34-40.25,19.99
	c-5.23,2.59-11.05,5.65-16.52,4.33c-3.18-0.76-9.51-5.05-7.34-9.33c2.53-5,5.52-7.14,10.93-9.7c9.71-4.6,17.63-8.66,23.76-12.16
	c37.18-21.28,74.45-42.41,111.8-63.4c10.81-6.07,19.83-10.25,31.09-10.42c1.72-0.03,3.29,0.58,4.72,1.83
	c6.45,5.62-0.29,9.67-4.65,12.28c-0.4,0.24-0.37,0.37,0.1,0.41c1.33,0.09,2.59-0.04,3.82-0.41c10.74-3.23,21.51-6.33,32.34-9.29
	c6.44-1.76,7.63,4.66,13.64,2.67c12.52-4.15,26.44-8.44,41.75-12.88c10.81-3.13,16.01-2.44,23.61,6c0.16,0.17,0.39,0.26,0.62,0.24
	c4.97-0.48,11.62-2.03,15.83-1.06c9.16,2.12,10.37,13.58,6.39,20.84c-0.1,0.19-0.04,0.44,0.16,0.55c1.42,0.82,2.84,0.98,4.28,0.48
	c12.44-4.39,23.18-8.11,32.22-11.17c5.42-1.83,10.17-1.94,15.61-1.43c0.23,0.02,0.42,0.13,0.56,0.31l4.15,5.59
	c0.15,0.2,0.23,0.45,0.22,0.7c-0.22,7.48-3.47,11.18-9.7,15.73c-3.98,2.92-7.98,5.8-12,8.67c-0.22,0.16-0.26,0.35-0.13,0.58
	c2.85,5.24,4.72,8.82,5.62,10.72c1.36,2.88,0.19,5.83-1.23,8.96c-0.11,0.25-0.08,0.46,0.09,0.67c3.88,4.66,11.95,14.26,4.06,19.45
	c-6.01,3.96-13.83,8.67-23.44,14.14c-1.22,0.69-2.08,1.87-2.92,2.95c-0.14,0.18-0.13,0.43,0.04,0.59
	c5.92,5.44,15.91,12.4,7.42,21.13c-10.57,10.88-23.93,18.27-36.57,26.37c-0.38,0.25-0.39,0.51-0.04,0.79
	c3.84,3.07,7.24,6.7,10.2,10.89c2.11,2.98-1.51,9.72-3.06,12.55c-0.14,0.25-0.07,0.4,0.22,0.43c1.14,0.13,1.98,0.09,2.53-0.11
	c4.43-1.63,9.01-2.56,13.72-2.8c0.25-0.01,0.45,0.07,0.61,0.26l8.04,9.1c0.18,0.2,0.28,0.44,0.29,0.72
	c0.28,5.38-1.65,9.57-5.81,12.56c-25.37,18.24-49.13,34.35-71.28,48.32c-5.78,3.65-12.39,5.77-19.82,6.34
	c-0.24,0.02-0.46-0.04-0.66-0.18c-6.04-4.34-6.03-6.58-2.99-12.99c0.18-0.38-0.19-0.79-0.59-0.66c-11.35,3.94-31.96,18.61-38.87,0.6
	c-0.09-0.22-0.1-0.47-0.02-0.7c1.48-4.64,3.31-9.13,5.51-13.48c0.15-0.3-0.16-0.63-0.46-0.49c-9.37,4.06-18.2,10.18-28.77,9.19
	c-5.59-0.53-5.97-4.09-9.52-7.44c-0.16-0.16-0.22-0.39-0.13-0.59l3.31-8.14c0.1-0.25,0.28-0.46,0.51-0.61L186.51,267.39z"/>
<path class="st2" d="M165.9,231.76c18.89,8.96,40.44,5.64,55.76-8.56c17.71-16.42,20.46-44.21,6.73-64.03
	c-9.06-13.07-23.7-20.9-39.55-21.28c-37.11-0.88-61.99,37.97-45.46,71.42c0.11,0.22,0.14,0.45,0.09,0.7
	c-1.58,7.89-3.2,15.77-4.87,23.64c-0.71,3.37,0.01,4.29,3.36,3.53c7.77-1.75,15.52-3.58,23.25-5.49
	C165.45,231.63,165.68,231.66,165.9,231.76z M207.61,107.81c11.07,0.22,24.05,0.3,38.94,0.22c11.92-0.06,20.78,10.12,20.78,21.75
	c0.01,36.6,0.02,73.21,0.03,109.82c0,6.49-0.35,10.86-1.06,13.11c-2.65,8.45-10.66,14.46-19.75,14.51
	c-19.99,0.11-39.99,0.16-60.02,0.17l-19.15,0.25c-11.34-0.25-22.62-0.35-33.85-0.29c-9.64,0.05-15.97-1.27-21.6-8.83l-2.67-4.84
	c-0.83-2.15-1.24-4.15-1.24-5.98c0.02-17.86,0.01-35.85-0.04-53.97l-0.17-15.02l0.08-18.83l0.06-6.18
	c0.09-7.78,0.11-15.58,0.07-23.41c-0.05-9.74,5.12-18.09,14.46-21.21c2.11-0.7,5.39-1.06,9.84-1.05
	c22.54,0.04,44.93,0.01,67.18-0.09L207.61,107.81"/>
<path class="st3" d="M197,149.74c-34.01-7.99-60.15,27.88-42.34,57.98c0.13,0.23,0.17,0.47,0.12,0.73l-3.16,15.01
	c-0.05,0.26,0.05,0.37,0.31,0.31l14.62-3.43c0.22-0.05,0.43-0.03,0.64,0.07c3.42,1.65,7.03,3.41,10.54,4.3
	c26.61,6.68,51.56-14.63,48.32-42.22C224.22,166.78,212.31,153.34,197,149.74z M165.2,231.69c-7.73,1.9-15.48,3.73-23.25,5.49
	c-3.35,0.76-4.07-0.16-3.36-3.53c1.66-7.87,3.28-15.75,4.87-23.64c0.05-0.25,0.02-0.48-0.09-0.7
	c-16.53-33.45,8.35-72.31,45.46-71.42c15.85,0.38,30.49,8.21,39.55,21.28c13.73,19.81,10.99,47.61-6.73,64.03
	c-15.32,14.2-36.87,17.52-55.76,8.56C165.68,231.66,165.45,231.63,165.2,231.69"/>
<path class="st2" d="M190.81,198.61c-5.38-3.52-11.26-8.2-14.8-13.64c-2.78-4.28,4.48-6.16,2.75-10.07
	c-1.07-2.41-3.62-9.67-5.63-10.97c-3.54-2.29-8.49,4.64-9.55,7.31c-2.74,6.88,1.48,15.54,5.95,20.93
	c7.79,9.4,19.69,19.79,32.44,19.1c4.98-0.26,8.32-2.87,11.01-6.88c1.84-2.72,1.59-5.61-1.88-6.58c-3.13-0.88-6.26-1.68-9.42-2.41
	C197.12,194.35,196.57,202.37,190.81,198.61z M197,149.74c15.31,3.6,27.22,17.05,29.07,32.74c3.23,27.59-21.72,48.9-48.32,42.22
	c-3.52-0.88-7.12-2.65-10.54-4.3c-0.21-0.1-0.43-0.12-0.64-0.07l-14.62,3.43c-0.26,0.06-0.37-0.04-0.31-0.31l3.16-15.01
	c0.05-0.26,0.01-0.5-0.12-0.73C136.85,177.62,162.99,141.75,197,149.74"/>
<path class="st1" d="M107.85,159.88l-0.08,18.83c-22.02,12-44.03,24.05-66,36.15c-3.83,2.11-7.81,3.92-11.92,5.42
	c-5.64,2.05-8.08-1.78-11.2-5.48c-0.17-0.21-0.25-0.45-0.22-0.71c0.49-5.98,10.52-11.11,14.5-13.27
	c15.67-8.59,31.36-17.14,47.06-25.68C87.42,171.08,98.28,164.6,107.85,159.88z"/>
<path class="st3" d="M176.01,184.97c3.53,5.44,9.41,10.12,14.8,13.64c5.77,3.76,6.31-4.26,10.88-3.21c3.16,0.73,6.29,1.53,9.42,2.41
	c3.47,0.97,3.72,3.86,1.88,6.58c-2.69,4-6.03,6.61-11.01,6.88c-12.76,0.69-24.65-9.7-32.44-19.1c-4.47-5.39-8.69-14.05-5.95-20.93
	c1.06-2.67,6.01-9.6,9.55-7.31c2.01,1.3,4.56,8.56,5.63,10.97C180.49,178.8,173.23,180.69,176.01,184.97z"/>
<path class="st1" d="M107.94,193.73c0.05,18.13,0.07,36.12,0.04,53.97c0,1.84,0.41,3.83,1.24,5.98
	c-14.13,8.63-28.38,16.91-42.77,24.84c-8.88,4.88-17.29,10.59-24.27-1.38c-0.13-0.22-0.11-0.43,0.03-0.63
	c2.71-3.85,4.4-9.82,9.07-11.6c0.22-0.08,0.34-0.31,0.28-0.54c-0.72-2.8-2.44-6.88-1.97-9.67c0.47-2.78,2.57-6.12,4.13-8.42
	c0.39-0.58,0.01-1.36-0.68-1.42c-4.84-0.41-9.25-1.72-10.99-6.79c-0.07-0.22-0.07-0.43,0.03-0.64c2.61-5.84,5.77-8.96,11.61-12.36
	C71.62,214.66,89.7,204.21,107.94,193.73z"/>
<path class="st1" d="M111.9,258.53c5.63,7.56,11.96,8.87,21.6,8.83c11.23-0.06,22.51,0.04,33.85,0.29
	c-14.5,8.32-28.78,16.8-42.86,25.44c-7.66,4.7-20.98,13.49-27.77,9.86c-0.66-0.35-1.62-1.24-2.87-2.64
	c-1.63-1.82-3.62-3.18-5.98-4.06c-0.21-0.08-0.45-0.06-0.64,0.06c-6.77,4.07-24.75,17.4-29.31,2.98
	c-2.04-6.43,6.33-11.16,11.04-14.28C82.86,275.77,97.17,266.94,111.9,258.53z"/>
</svg>
